%TF.GenerationSoftware,KiCad,Pcbnew,9.0.1*%
%TF.CreationDate,2025-08-14T16:00:01+05:30*%
%TF.ProjectId,TinySolarSupply,54696e79-536f-46c6-9172-537570706c79,rev?*%
%TF.SameCoordinates,Original*%
%TF.FileFunction,Copper,L2,Bot*%
%TF.FilePolarity,Positive*%
%FSLAX46Y46*%
G04 Gerber Fmt 4.6, Leading zero omitted, Abs format (unit mm)*
G04 Created by KiCad (PCBNEW 9.0.1) date 2025-08-14 16:00:01*
%MOMM*%
%LPD*%
G01*
G04 APERTURE LIST*
G04 Aperture macros list*
%AMRoundRect*
0 Rectangle with rounded corners*
0 $1 Rounding radius*
0 $2 $3 $4 $5 $6 $7 $8 $9 X,Y pos of 4 corners*
0 Add a 4 corners polygon primitive as box body*
4,1,4,$2,$3,$4,$5,$6,$7,$8,$9,$2,$3,0*
0 Add four circle primitives for the rounded corners*
1,1,$1+$1,$2,$3*
1,1,$1+$1,$4,$5*
1,1,$1+$1,$6,$7*
1,1,$1+$1,$8,$9*
0 Add four rect primitives between the rounded corners*
20,1,$1+$1,$2,$3,$4,$5,0*
20,1,$1+$1,$4,$5,$6,$7,0*
20,1,$1+$1,$6,$7,$8,$9,0*
20,1,$1+$1,$8,$9,$2,$3,0*%
G04 Aperture macros list end*
%TA.AperFunction,ComponentPad*%
%ADD10R,1.700000X1.700000*%
%TD*%
%TA.AperFunction,ComponentPad*%
%ADD11C,1.700000*%
%TD*%
%TA.AperFunction,ComponentPad*%
%ADD12RoundRect,0.250000X-0.550000X-0.550000X0.550000X-0.550000X0.550000X0.550000X-0.550000X0.550000X0*%
%TD*%
%TA.AperFunction,ComponentPad*%
%ADD13C,1.600000*%
%TD*%
%TA.AperFunction,ViaPad*%
%ADD14C,0.600000*%
%TD*%
%TA.AperFunction,ViaPad*%
%ADD15C,0.900000*%
%TD*%
%TA.AperFunction,Conductor*%
%ADD16C,0.200000*%
%TD*%
%TA.AperFunction,Conductor*%
%ADD17C,0.350000*%
%TD*%
G04 APERTURE END LIST*
D10*
%TO.P,J2,1,Pin_1*%
%TO.N,/BAT_P*%
X101489200Y-112704800D03*
D11*
%TO.P,J2,2,Pin_2*%
%TO.N,GNDD*%
X101489200Y-110164800D03*
%TD*%
D10*
%TO.P,J1,1,Pin_1*%
%TO.N,GNDD*%
X135543600Y-106167000D03*
D11*
%TO.P,J1,2,Pin_2*%
%TO.N,/OUT_P*%
X135543600Y-108707000D03*
%TD*%
D10*
%TO.P,J4,1,Pin_1*%
%TO.N,/SOLAR_P*%
X101514600Y-105745200D03*
D11*
%TO.P,J4,2,Pin_2*%
%TO.N,GNDD*%
X101514600Y-103205200D03*
%TD*%
D12*
%TO.P,J3,1,Pin_1*%
%TO.N,Net-(J3-Pin_1)*%
X105706500Y-107022700D03*
D13*
%TO.P,J3,2,Pin_2*%
%TO.N,/BAT_P*%
X113326500Y-107022700D03*
%TD*%
D14*
%TO.N,Net-(J3-Pin_1)*%
X107772200Y-109967400D03*
%TO.N,GNDD*%
X125069600Y-111963200D03*
X111302800Y-115900200D03*
X127533400Y-113233200D03*
X120345200Y-111531400D03*
X112090200Y-116014600D03*
X111455200Y-113919000D03*
X115366800Y-107010200D03*
D15*
%TO.N,/OUT_P*%
X122732800Y-101092000D03*
X122123200Y-110896400D03*
X128676400Y-111887000D03*
D14*
%TO.N,Net-(U1-FB)*%
X115468400Y-108788200D03*
X123444000Y-113690400D03*
X115976400Y-112725200D03*
D15*
%TO.N,/BAT_P*%
X104165400Y-111404400D03*
%TO.N,/SOLAR_P*%
X102891200Y-104368600D03*
X105638600Y-114046000D03*
X109499400Y-111074200D03*
%TD*%
D16*
%TO.N,Net-(J3-Pin_1)*%
X105968800Y-108077000D02*
X105968800Y-107285000D01*
X107772200Y-109880400D02*
X105968800Y-108077000D01*
X105968800Y-107285000D02*
X105706500Y-107022700D01*
X107772200Y-109967400D02*
X107772200Y-109880400D01*
%TO.N,GNDD*%
X111912400Y-115976400D02*
X112052000Y-115976400D01*
X115062000Y-108000800D02*
X115366800Y-108000800D01*
X135986600Y-106167000D02*
X135543600Y-106167000D01*
X115366800Y-108000800D02*
X115553200Y-108187200D01*
X114867400Y-108195400D02*
X115062000Y-108000800D01*
X112052000Y-115976400D02*
X112090200Y-116014600D01*
X101489200Y-110164800D02*
X101489200Y-109972800D01*
X115366800Y-107010200D02*
X115366800Y-107984000D01*
X111302800Y-116213600D02*
X111675200Y-116213600D01*
X126771400Y-113233200D02*
X126923800Y-113385600D01*
X128498600Y-113436400D02*
X134442200Y-113436400D01*
X117864600Y-108187200D02*
X119303800Y-109626400D01*
X126441200Y-113334800D02*
X126669800Y-113334800D01*
X127660400Y-112598200D02*
X128498600Y-113436400D01*
X111912400Y-113919000D02*
X112369600Y-113461800D01*
X137083800Y-107264200D02*
X135986600Y-106167000D01*
X101811800Y-116213600D02*
X111302800Y-116213600D01*
X99060000Y-107543600D02*
X99060000Y-104140000D01*
X115366800Y-108000800D02*
X115366800Y-107984000D01*
X134442200Y-113436400D02*
X137083800Y-110794800D01*
X99542600Y-110540800D02*
X99542600Y-113944400D01*
X111302800Y-116213600D02*
X111302800Y-115900200D01*
X127381000Y-113385600D02*
X127533400Y-113233200D01*
X101489200Y-109972800D02*
X99060000Y-107543600D01*
X125069600Y-111963200D02*
X126441200Y-113334800D01*
X126771400Y-112903000D02*
X127076200Y-112598200D01*
X126669800Y-113334800D02*
X126771400Y-113233200D01*
X137083800Y-110794800D02*
X137083800Y-107264200D01*
X120345200Y-111150400D02*
X120345200Y-111531400D01*
X99994800Y-103205200D02*
X101514600Y-103205200D01*
X126771400Y-113233200D02*
X126771400Y-112903000D01*
X119303800Y-110109000D02*
X120345200Y-111150400D01*
X111912400Y-115976400D02*
X111912400Y-113919000D01*
X114867400Y-109440000D02*
X114867400Y-108195400D01*
X99542600Y-113944400D02*
X101811800Y-116213600D01*
X127076200Y-112598200D02*
X127660400Y-112598200D01*
X99918600Y-110164800D02*
X99542600Y-110540800D01*
X111675200Y-116213600D02*
X111912400Y-115976400D01*
X126923800Y-113385600D02*
X127381000Y-113385600D01*
X111455200Y-113919000D02*
X111912400Y-113919000D01*
X112369600Y-111937800D02*
X114867400Y-109440000D01*
X99060000Y-104140000D02*
X99994800Y-103205200D01*
X101489200Y-110164800D02*
X99918600Y-110164800D01*
X119303800Y-109626400D02*
X119303800Y-110109000D01*
X115553200Y-108187200D02*
X117864600Y-108187200D01*
X112369600Y-113461800D02*
X112369600Y-111937800D01*
D17*
%TO.N,/OUT_P*%
X122936000Y-110693200D02*
X122732800Y-110896400D01*
X123139200Y-110896400D02*
X127685800Y-110896400D01*
X122732800Y-110896400D02*
X122123200Y-110896400D01*
X127685800Y-110896400D02*
X128676400Y-111887000D01*
X122732800Y-101092000D02*
X122656600Y-101168200D01*
X122936000Y-110693200D02*
X123139200Y-110896400D01*
X122656600Y-101168200D02*
X122656600Y-110413800D01*
X122656600Y-110413800D02*
X122936000Y-110693200D01*
D16*
%TO.N,Net-(U1-FB)*%
X123240800Y-113893600D02*
X116662200Y-113893600D01*
X115468400Y-112217200D02*
X115468400Y-108788200D01*
X116662200Y-113893600D02*
X115976400Y-113207800D01*
X115976400Y-113207800D02*
X115976400Y-112725200D01*
X115976400Y-112725200D02*
X115468400Y-112217200D01*
X123444000Y-113690400D02*
X123240800Y-113893600D01*
D17*
%TO.N,/BAT_P*%
X104165400Y-111709200D02*
X103200200Y-112674400D01*
X103200200Y-112674400D02*
X101519600Y-112674400D01*
X104165400Y-111404400D02*
X104165400Y-111709200D01*
X101519600Y-112674400D02*
X101489200Y-112704800D01*
%TO.N,/SOLAR_P*%
X105638600Y-114046000D02*
X105638600Y-113207800D01*
X107797600Y-111048800D02*
X108635800Y-111048800D01*
X108356400Y-110769400D02*
X105460800Y-110769400D01*
X108635800Y-111048800D02*
X108356400Y-110769400D01*
X102891200Y-104368600D02*
X101514600Y-105745200D01*
X108661200Y-111074200D02*
X108635800Y-111048800D01*
X101514600Y-106823200D02*
X101514600Y-105745200D01*
X105638600Y-113207800D02*
X107797600Y-111048800D01*
X109499400Y-111074200D02*
X108661200Y-111074200D01*
X105460800Y-110769400D02*
X101514600Y-106823200D01*
%TD*%
%TA.AperFunction,Conductor*%
%TO.N,GNDD*%
G36*
X136722688Y-99615624D02*
G01*
X136789645Y-99635576D01*
X136835188Y-99688563D01*
X136844854Y-99757761D01*
X136832673Y-99795916D01*
X136801633Y-99856836D01*
X136736161Y-100058337D01*
X136717204Y-100178027D01*
X136703019Y-100267588D01*
X136703019Y-100328490D01*
X136703019Y-100479450D01*
X136704071Y-100486092D01*
X136736068Y-100688114D01*
X136736162Y-100688704D01*
X136791007Y-100857500D01*
X136801632Y-100890198D01*
X136897816Y-101078971D01*
X137022337Y-101250360D01*
X137022341Y-101250365D01*
X137172153Y-101400177D01*
X137172158Y-101400181D01*
X137287054Y-101483657D01*
X137343552Y-101524705D01*
X137435627Y-101571619D01*
X137486422Y-101619592D01*
X137503330Y-101682840D01*
X137427170Y-114496875D01*
X137407087Y-114563796D01*
X137359471Y-114606620D01*
X137343555Y-114614730D01*
X137343552Y-114614732D01*
X137172158Y-114739256D01*
X137172153Y-114739260D01*
X137022341Y-114889072D01*
X137022337Y-114889077D01*
X136897816Y-115060466D01*
X136801632Y-115249239D01*
X136736161Y-115450737D01*
X136711663Y-115605414D01*
X136703019Y-115659988D01*
X136703019Y-115720890D01*
X136703019Y-115871850D01*
X136736162Y-116081104D01*
X136789215Y-116244385D01*
X136801632Y-116282598D01*
X136897813Y-116471366D01*
X136930325Y-116516115D01*
X136953804Y-116581922D01*
X136937978Y-116649976D01*
X136887872Y-116698670D01*
X136830006Y-116713000D01*
X100235475Y-116713000D01*
X100168436Y-116693315D01*
X100122681Y-116640511D01*
X100112737Y-116571353D01*
X100135156Y-116516115D01*
X100154510Y-116489476D01*
X100167667Y-116471367D01*
X100263850Y-116282596D01*
X100329319Y-116081104D01*
X100362462Y-115871850D01*
X100362462Y-115659988D01*
X100329319Y-115450734D01*
X100263850Y-115249242D01*
X100167667Y-115060471D01*
X100167665Y-115060468D01*
X100167664Y-115060466D01*
X100162457Y-115053299D01*
X102224750Y-115053299D01*
X102224750Y-115589000D01*
X103726750Y-115589000D01*
X103726750Y-115179366D01*
X107224750Y-115179366D01*
X107224750Y-115589000D01*
X108726750Y-115589000D01*
X109724750Y-115589000D01*
X110064352Y-115589000D01*
X110119122Y-115420435D01*
X110126568Y-115402458D01*
X110208747Y-115241174D01*
X110218914Y-115224584D01*
X110325311Y-115078140D01*
X110337948Y-115063344D01*
X110465944Y-114935348D01*
X110480740Y-114922711D01*
X110582946Y-114848454D01*
X110510241Y-114775749D01*
X112400158Y-114775749D01*
X112569965Y-114830922D01*
X112587942Y-114838368D01*
X112749226Y-114920547D01*
X112765816Y-114930714D01*
X112912260Y-115037111D01*
X112927056Y-115049748D01*
X113055052Y-115177744D01*
X113067689Y-115192540D01*
X113174086Y-115338984D01*
X113184253Y-115355574D01*
X113266432Y-115516858D01*
X113273878Y-115534835D01*
X113291477Y-115589000D01*
X113726750Y-115589000D01*
X114724750Y-115589000D01*
X116226750Y-115589000D01*
X116226750Y-115431810D01*
X116140547Y-115408712D01*
X116132785Y-115406357D01*
X116086293Y-115390576D01*
X116078698Y-115387718D01*
X116018316Y-115362708D01*
X116010923Y-115359358D01*
X115966879Y-115337638D01*
X115959724Y-115333814D01*
X115766182Y-115222074D01*
X115759290Y-115217788D01*
X115718451Y-115190500D01*
X115711853Y-115185772D01*
X115659999Y-115145981D01*
X115653726Y-115140833D01*
X115616815Y-115108461D01*
X115610896Y-115102916D01*
X115461093Y-114953113D01*
X124724750Y-114953113D01*
X124724750Y-115589000D01*
X126226750Y-115589000D01*
X127224750Y-115589000D01*
X128726750Y-115589000D01*
X129724750Y-115589000D01*
X131226750Y-115589000D01*
X132224750Y-115589000D01*
X133726750Y-115589000D01*
X134724750Y-115589000D01*
X135707520Y-115589000D01*
X135709638Y-115562110D01*
X135710114Y-115557273D01*
X135713574Y-115528039D01*
X135714242Y-115523215D01*
X135753517Y-115275248D01*
X135754372Y-115270456D01*
X135760120Y-115241557D01*
X135761166Y-115236794D01*
X135770319Y-115198677D01*
X135771546Y-115193972D01*
X135779539Y-115165630D01*
X135780953Y-115160970D01*
X135858530Y-114922214D01*
X135860124Y-114917617D01*
X135870309Y-114890007D01*
X135872081Y-114885479D01*
X135887079Y-114849262D01*
X135889033Y-114844795D01*
X135901375Y-114818021D01*
X135903501Y-114813636D01*
X135952555Y-114717362D01*
X134724750Y-114717362D01*
X134724750Y-115589000D01*
X133726750Y-115589000D01*
X133726750Y-114717362D01*
X132224750Y-114717362D01*
X132224750Y-115589000D01*
X131226750Y-115589000D01*
X131226750Y-114717362D01*
X129724750Y-114717362D01*
X129724750Y-115589000D01*
X128726750Y-115589000D01*
X128726750Y-114717362D01*
X127224750Y-114717362D01*
X127224750Y-115589000D01*
X126226750Y-115589000D01*
X126226750Y-114717362D01*
X124920844Y-114717362D01*
X124881983Y-114775522D01*
X124878478Y-114780498D01*
X124856545Y-114810071D01*
X124852801Y-114814869D01*
X124821712Y-114852751D01*
X124817738Y-114857358D01*
X124793007Y-114884645D01*
X124788809Y-114889054D01*
X124724750Y-114953113D01*
X115461093Y-114953113D01*
X115225343Y-114717362D01*
X114724750Y-114717362D01*
X114724750Y-115589000D01*
X113726750Y-115589000D01*
X113726750Y-114717362D01*
X112449907Y-114717362D01*
X112432690Y-114741060D01*
X112420052Y-114755856D01*
X112400158Y-114775749D01*
X110510241Y-114775749D01*
X110490348Y-114755856D01*
X110477710Y-114741060D01*
X110460493Y-114717362D01*
X109724750Y-114717362D01*
X109724750Y-115589000D01*
X108726750Y-115589000D01*
X108726750Y-114717362D01*
X107469554Y-114717362D01*
X107393579Y-114900783D01*
X107391113Y-114906346D01*
X107375373Y-114939626D01*
X107372637Y-114945061D01*
X107349536Y-114988282D01*
X107346536Y-114993578D01*
X107327601Y-115025170D01*
X107324344Y-115030314D01*
X107224750Y-115179366D01*
X103726750Y-115179366D01*
X103726750Y-114717362D01*
X103286708Y-114717362D01*
X103151074Y-114818898D01*
X103143804Y-114823946D01*
X103098737Y-114852910D01*
X103091123Y-114857428D01*
X103028533Y-114891605D01*
X103020619Y-114895567D01*
X102971882Y-114917825D01*
X102963702Y-114921213D01*
X102766218Y-114994869D01*
X102758879Y-114997348D01*
X102714028Y-115010953D01*
X102706552Y-115012968D01*
X102645837Y-115027316D01*
X102638245Y-115028861D01*
X102592040Y-115036772D01*
X102584367Y-115037841D01*
X102480445Y-115049012D01*
X102477136Y-115049323D01*
X102457099Y-115050935D01*
X102453787Y-115051157D01*
X102427105Y-115052586D01*
X102423787Y-115052719D01*
X102403736Y-115053255D01*
X102400422Y-115053299D01*
X102224750Y-115053299D01*
X100162457Y-115053299D01*
X100043143Y-114889077D01*
X100043139Y-114889072D01*
X99893327Y-114739260D01*
X99893322Y-114739256D01*
X99721933Y-114614735D01*
X99600272Y-114552746D01*
X99549476Y-114504772D01*
X99532569Y-114442813D01*
X99520923Y-111806935D01*
X100138700Y-111806935D01*
X100138700Y-113602670D01*
X100138701Y-113602676D01*
X100145108Y-113662283D01*
X100195402Y-113797128D01*
X100195406Y-113797135D01*
X100281652Y-113912344D01*
X100281655Y-113912347D01*
X100396864Y-113998593D01*
X100396871Y-113998597D01*
X100531717Y-114048891D01*
X100531716Y-114048891D01*
X100538644Y-114049635D01*
X100591327Y-114055300D01*
X102387072Y-114055299D01*
X102446683Y-114048891D01*
X102581531Y-113998596D01*
X102696746Y-113912346D01*
X102782996Y-113797131D01*
X102833291Y-113662283D01*
X102839700Y-113602673D01*
X102839700Y-113473900D01*
X102859385Y-113406861D01*
X102912189Y-113361106D01*
X102963700Y-113349900D01*
X103266732Y-113349900D01*
X103266733Y-113349899D01*
X103397236Y-113323941D01*
X103520169Y-113273020D01*
X103630806Y-113199095D01*
X104542792Y-112287107D01*
X104583017Y-112260230D01*
X104615631Y-112246722D01*
X104771308Y-112142702D01*
X104903702Y-112010308D01*
X105007722Y-111854631D01*
X105079373Y-111681651D01*
X105112467Y-111515275D01*
X105144851Y-111453364D01*
X105205567Y-111418790D01*
X105258276Y-111417849D01*
X105263762Y-111418940D01*
X105263764Y-111418941D01*
X105394267Y-111444899D01*
X105394268Y-111444900D01*
X105394269Y-111444900D01*
X105527331Y-111444900D01*
X106146837Y-111444900D01*
X106213876Y-111464585D01*
X106259631Y-111517389D01*
X106269575Y-111586547D01*
X106240550Y-111650103D01*
X106234518Y-111656581D01*
X105113907Y-112777190D01*
X105113904Y-112777194D01*
X105039983Y-112887824D01*
X105039978Y-112887834D01*
X105010626Y-112958697D01*
X104989059Y-113010764D01*
X104983264Y-113039900D01*
X104963100Y-113141266D01*
X104963100Y-113325927D01*
X104943415Y-113392966D01*
X104926781Y-113413608D01*
X104900300Y-113440088D01*
X104900297Y-113440092D01*
X104796281Y-113595762D01*
X104796276Y-113595771D01*
X104724627Y-113768748D01*
X104724625Y-113768756D01*
X104688100Y-113952379D01*
X104688100Y-114139620D01*
X104724625Y-114323243D01*
X104724627Y-114323251D01*
X104796276Y-114496228D01*
X104796281Y-114496237D01*
X104900297Y-114651907D01*
X104900300Y-114651911D01*
X105032688Y-114784299D01*
X105032692Y-114784302D01*
X105188362Y-114888318D01*
X105188371Y-114888323D01*
X105205860Y-114895567D01*
X105361349Y-114959973D01*
X105503669Y-114988282D01*
X105544979Y-114996499D01*
X105544983Y-114996500D01*
X105544984Y-114996500D01*
X105732217Y-114996500D01*
X105732218Y-114996499D01*
X105915851Y-114959973D01*
X106088831Y-114888322D01*
X106244508Y-114784302D01*
X106376902Y-114651908D01*
X106480922Y-114496231D01*
X106552573Y-114323251D01*
X106589100Y-114139616D01*
X106589100Y-113952384D01*
X106552573Y-113768749D01*
X106509113Y-113663828D01*
X107549253Y-113663828D01*
X107560300Y-113719362D01*
X108726750Y-113719362D01*
X108726750Y-113014230D01*
X109724750Y-113014230D01*
X109724750Y-113719362D01*
X110196939Y-113719362D01*
X110211044Y-113630310D01*
X110215586Y-113611390D01*
X110271522Y-113439235D01*
X110278968Y-113421258D01*
X110361147Y-113259974D01*
X110371314Y-113243384D01*
X110477711Y-113096940D01*
X110490348Y-113082144D01*
X110618344Y-112954148D01*
X110633140Y-112941511D01*
X110685651Y-112903360D01*
X112224750Y-112903360D01*
X112277260Y-112941511D01*
X112292056Y-112954148D01*
X112420052Y-113082144D01*
X112432689Y-113096940D01*
X112539086Y-113243384D01*
X112549253Y-113259974D01*
X112631432Y-113421258D01*
X112638878Y-113439235D01*
X112694814Y-113611390D01*
X112699356Y-113630310D01*
X112713461Y-113719362D01*
X113726750Y-113719362D01*
X113726750Y-112217362D01*
X112224750Y-112217362D01*
X112224750Y-112903360D01*
X110685651Y-112903360D01*
X110779584Y-112835114D01*
X110796174Y-112824947D01*
X110957458Y-112742768D01*
X110975435Y-112735322D01*
X111147590Y-112679386D01*
X111166510Y-112674844D01*
X111226750Y-112665302D01*
X111226750Y-112217362D01*
X111079005Y-112217362D01*
X111053896Y-112254940D01*
X111050393Y-112259914D01*
X111028460Y-112289488D01*
X111024714Y-112294288D01*
X110993625Y-112332170D01*
X110989651Y-112336777D01*
X110964920Y-112364064D01*
X110960722Y-112368473D01*
X110793673Y-112535522D01*
X110789264Y-112539720D01*
X110761977Y-112564451D01*
X110757370Y-112568425D01*
X110719488Y-112599514D01*
X110714688Y-112603260D01*
X110685114Y-112625193D01*
X110680140Y-112628696D01*
X110483714Y-112759944D01*
X110478570Y-112763201D01*
X110446978Y-112782136D01*
X110441682Y-112785136D01*
X110398461Y-112808237D01*
X110393026Y-112810973D01*
X110359746Y-112826713D01*
X110354183Y-112829179D01*
X110135935Y-112919580D01*
X110130259Y-112921770D01*
X110095597Y-112934173D01*
X110089818Y-112936082D01*
X110042922Y-112950309D01*
X110037052Y-112951933D01*
X110001324Y-112960882D01*
X109995387Y-112962215D01*
X109763681Y-113008304D01*
X109757686Y-113009345D01*
X109724750Y-113014230D01*
X108726750Y-113014230D01*
X108726750Y-112863198D01*
X108644618Y-112829179D01*
X108639054Y-112826713D01*
X108605774Y-112810973D01*
X108600339Y-112808237D01*
X108557118Y-112785136D01*
X108551822Y-112782136D01*
X108520230Y-112763201D01*
X108515086Y-112759944D01*
X108488310Y-112742053D01*
X108472579Y-112740504D01*
X107549253Y-113663828D01*
X106509113Y-113663828D01*
X106487460Y-113611553D01*
X106480923Y-113595771D01*
X106480918Y-113595762D01*
X106427313Y-113515537D01*
X106406435Y-113448860D01*
X106424919Y-113381479D01*
X106442730Y-113358969D01*
X108041082Y-111760619D01*
X108102405Y-111727134D01*
X108128763Y-111724300D01*
X108454767Y-111724300D01*
X108478959Y-111726683D01*
X108594667Y-111749700D01*
X108594669Y-111749700D01*
X108779327Y-111749700D01*
X108846366Y-111769385D01*
X108867008Y-111786019D01*
X108893488Y-111812499D01*
X108893492Y-111812502D01*
X109049162Y-111916518D01*
X109049168Y-111916521D01*
X109049169Y-111916522D01*
X109222149Y-111988173D01*
X109361071Y-112015806D01*
X109405779Y-112024699D01*
X109405783Y-112024700D01*
X109405784Y-112024700D01*
X109593017Y-112024700D01*
X109593018Y-112024699D01*
X109776651Y-111988173D01*
X109949631Y-111916522D01*
X110105308Y-111812502D01*
X110237702Y-111680108D01*
X110341722Y-111524431D01*
X110413373Y-111351451D01*
X110439647Y-111219362D01*
X112224750Y-111219362D01*
X113726750Y-111219362D01*
X113726750Y-109717362D01*
X112224750Y-109717362D01*
X112224750Y-111219362D01*
X110439647Y-111219362D01*
X110449900Y-111167819D01*
X110449900Y-110980583D01*
X110449899Y-110980579D01*
X110428371Y-110872350D01*
X110413373Y-110796949D01*
X110357954Y-110663156D01*
X110341723Y-110623971D01*
X110341718Y-110623962D01*
X110237702Y-110468292D01*
X110237699Y-110468288D01*
X110105311Y-110335900D01*
X110105307Y-110335897D01*
X109949637Y-110231881D01*
X109949628Y-110231876D01*
X109776651Y-110160227D01*
X109776643Y-110160225D01*
X109593020Y-110123700D01*
X109593016Y-110123700D01*
X109405784Y-110123700D01*
X109405779Y-110123700D01*
X109222156Y-110160225D01*
X109222148Y-110160227D01*
X109049171Y-110231876D01*
X109049164Y-110231880D01*
X108968937Y-110285486D01*
X108902259Y-110306363D01*
X108834879Y-110287878D01*
X108812366Y-110270064D01*
X108787009Y-110244707D01*
X108787005Y-110244704D01*
X108676375Y-110170783D01*
X108676360Y-110170775D01*
X108649246Y-110159544D01*
X108594843Y-110115703D01*
X108572779Y-110049408D01*
X108572700Y-110044984D01*
X108572700Y-109888555D01*
X108572699Y-109888553D01*
X108564766Y-109848672D01*
X108541937Y-109733903D01*
X108505768Y-109646582D01*
X108481597Y-109588227D01*
X108481590Y-109588214D01*
X108393989Y-109457111D01*
X108393986Y-109457107D01*
X108282492Y-109345613D01*
X108282488Y-109345610D01*
X108151385Y-109258009D01*
X108151372Y-109258002D01*
X108005698Y-109197663D01*
X108005689Y-109197661D01*
X107958954Y-109188365D01*
X107897043Y-109155981D01*
X107895464Y-109154429D01*
X107460397Y-108719362D01*
X109724750Y-108719362D01*
X111226750Y-108719362D01*
X111226750Y-108709353D01*
X114667900Y-108709353D01*
X114667900Y-108867046D01*
X114698661Y-109021689D01*
X114698664Y-109021701D01*
X114759002Y-109167372D01*
X114759009Y-109167385D01*
X114847002Y-109299074D01*
X114867880Y-109365751D01*
X114867900Y-109367965D01*
X114867900Y-112130530D01*
X114867899Y-112130548D01*
X114867899Y-112296254D01*
X114867898Y-112296254D01*
X114891139Y-112382987D01*
X114908823Y-112448985D01*
X114925239Y-112477418D01*
X114933485Y-112491699D01*
X114933486Y-112491703D01*
X114933487Y-112491703D01*
X114975487Y-112564451D01*
X114987879Y-112585914D01*
X114987881Y-112585917D01*
X115106749Y-112704785D01*
X115106755Y-112704790D01*
X115141825Y-112739860D01*
X115175310Y-112801183D01*
X115175761Y-112803349D01*
X115206661Y-112958691D01*
X115206664Y-112958701D01*
X115267002Y-113104372D01*
X115267009Y-113104385D01*
X115356637Y-113238522D01*
X115372053Y-113279472D01*
X115373796Y-113279006D01*
X115375899Y-113286854D01*
X115375899Y-113286857D01*
X115392792Y-113349900D01*
X115416822Y-113439583D01*
X115417117Y-113440093D01*
X115417142Y-113440137D01*
X115495877Y-113576512D01*
X115495881Y-113576517D01*
X115614749Y-113695385D01*
X115614754Y-113695389D01*
X116293484Y-114374120D01*
X116293486Y-114374121D01*
X116293490Y-114374124D01*
X116412465Y-114442813D01*
X116430416Y-114453177D01*
X116583143Y-114494101D01*
X116583145Y-114494101D01*
X116748854Y-114494101D01*
X116748870Y-114494100D01*
X123154131Y-114494100D01*
X123154147Y-114494101D01*
X123161743Y-114494101D01*
X123319856Y-114494101D01*
X123319857Y-114494101D01*
X123319857Y-114494100D01*
X123327914Y-114493040D01*
X123327987Y-114493599D01*
X123359066Y-114491050D01*
X123359066Y-114490900D01*
X123360895Y-114490900D01*
X123363224Y-114490709D01*
X123365153Y-114490899D01*
X123365158Y-114490900D01*
X123365163Y-114490900D01*
X123522844Y-114490900D01*
X123522845Y-114490899D01*
X123677497Y-114460137D01*
X123823179Y-114399794D01*
X123954289Y-114312189D01*
X124065789Y-114200689D01*
X124153394Y-114069579D01*
X124213737Y-113923897D01*
X124244500Y-113769242D01*
X124244500Y-113611558D01*
X124244500Y-113611555D01*
X124244499Y-113611553D01*
X124220193Y-113489361D01*
X124213737Y-113456903D01*
X124203606Y-113432445D01*
X124153397Y-113311227D01*
X124153390Y-113311214D01*
X124102126Y-113234493D01*
X125186954Y-113234493D01*
X125187779Y-113238165D01*
X125228104Y-113440892D01*
X125229145Y-113446889D01*
X125234549Y-113483320D01*
X125235294Y-113489361D01*
X125240097Y-113538133D01*
X125240545Y-113544203D01*
X125242351Y-113580975D01*
X125242500Y-113587058D01*
X125242500Y-113719362D01*
X126226750Y-113719362D01*
X126226750Y-113529956D01*
X129724750Y-113529956D01*
X129724750Y-113719362D01*
X131226750Y-113719362D01*
X132224750Y-113719362D01*
X133726750Y-113719362D01*
X134724750Y-113719362D01*
X136226750Y-113719362D01*
X136226750Y-112217362D01*
X134724750Y-112217362D01*
X134724750Y-113719362D01*
X133726750Y-113719362D01*
X133726750Y-112217362D01*
X132224750Y-112217362D01*
X132224750Y-113719362D01*
X131226750Y-113719362D01*
X131226750Y-112217362D01*
X130597360Y-112217362D01*
X130564415Y-112382987D01*
X130563082Y-112388924D01*
X130554133Y-112424652D01*
X130552509Y-112430522D01*
X130538282Y-112477418D01*
X130536373Y-112483197D01*
X130523970Y-112517859D01*
X130521780Y-112523535D01*
X130431379Y-112741783D01*
X130428913Y-112747346D01*
X130413173Y-112780626D01*
X130410437Y-112786061D01*
X130387336Y-112829282D01*
X130384336Y-112834578D01*
X130365401Y-112866170D01*
X130362144Y-112871314D01*
X130230896Y-113067740D01*
X130227393Y-113072714D01*
X130205460Y-113102288D01*
X130201714Y-113107088D01*
X130170625Y-113144970D01*
X130166651Y-113149577D01*
X130141920Y-113176864D01*
X130137722Y-113181273D01*
X129970673Y-113348322D01*
X129966264Y-113352520D01*
X129938977Y-113377251D01*
X129934370Y-113381225D01*
X129896488Y-113412314D01*
X129891688Y-113416060D01*
X129862114Y-113437993D01*
X129857140Y-113441496D01*
X129724750Y-113529956D01*
X126226750Y-113529956D01*
X126226750Y-112569900D01*
X126190314Y-112569900D01*
X126163653Y-112622226D01*
X126153486Y-112638816D01*
X126047089Y-112785260D01*
X126034452Y-112800056D01*
X125906456Y-112928052D01*
X125891660Y-112940689D01*
X125745216Y-113047086D01*
X125728626Y-113057253D01*
X125567342Y-113139432D01*
X125549365Y-113146878D01*
X125377210Y-113202814D01*
X125358290Y-113207356D01*
X125186954Y-113234493D01*
X124102126Y-113234493D01*
X124065789Y-113180111D01*
X124065786Y-113180107D01*
X123954292Y-113068613D01*
X123954288Y-113068610D01*
X123823185Y-112981009D01*
X123823172Y-112981002D01*
X123677501Y-112920664D01*
X123677489Y-112920661D01*
X123522845Y-112889900D01*
X123522842Y-112889900D01*
X123365158Y-112889900D01*
X123365155Y-112889900D01*
X123210510Y-112920661D01*
X123210498Y-112920664D01*
X123064827Y-112981002D01*
X123064814Y-112981009D01*
X122933711Y-113068610D01*
X122933707Y-113068613D01*
X122822212Y-113180108D01*
X122809528Y-113199092D01*
X122783536Y-113237991D01*
X122729926Y-113282796D01*
X122680435Y-113293100D01*
X116962298Y-113293100D01*
X116895259Y-113273415D01*
X116874617Y-113256781D01*
X116755047Y-113137211D01*
X116721562Y-113075888D01*
X116726546Y-113006196D01*
X116728145Y-113002131D01*
X116746137Y-112958697D01*
X116776900Y-112804042D01*
X116776900Y-112646358D01*
X116776900Y-112646355D01*
X116776899Y-112646353D01*
X116761398Y-112568425D01*
X116746137Y-112491703D01*
X116693268Y-112364064D01*
X116685797Y-112346027D01*
X116685790Y-112346014D01*
X116598189Y-112214911D01*
X116598186Y-112214907D01*
X116486692Y-112103413D01*
X116486688Y-112103410D01*
X116355585Y-112015809D01*
X116355572Y-112015802D01*
X116209901Y-111955464D01*
X116209892Y-111955461D01*
X116168707Y-111947269D01*
X116106796Y-111914883D01*
X116072223Y-111854167D01*
X116068900Y-111825652D01*
X116068900Y-111219362D01*
X117224750Y-111219362D01*
X118726750Y-111219362D01*
X118726750Y-110802779D01*
X121172700Y-110802779D01*
X121172700Y-110990020D01*
X121209225Y-111173643D01*
X121209227Y-111173651D01*
X121280876Y-111346628D01*
X121280881Y-111346637D01*
X121384897Y-111502307D01*
X121384900Y-111502311D01*
X121517288Y-111634699D01*
X121517292Y-111634702D01*
X121672962Y-111738718D01*
X121672971Y-111738723D01*
X121693719Y-111747317D01*
X121845949Y-111810373D01*
X122029579Y-111846899D01*
X122029583Y-111846900D01*
X122029584Y-111846900D01*
X122216817Y-111846900D01*
X122216818Y-111846899D01*
X122400451Y-111810373D01*
X122573431Y-111738722D01*
X122729108Y-111634702D01*
X122763470Y-111600339D01*
X122824789Y-111566855D01*
X122826824Y-111566431D01*
X122911812Y-111549526D01*
X122960194Y-111549527D01*
X123072666Y-111571900D01*
X123072669Y-111571900D01*
X123205731Y-111571900D01*
X127354637Y-111571900D01*
X127421676Y-111591585D01*
X127442318Y-111608219D01*
X127689581Y-111855482D01*
X127723066Y-111916805D01*
X127725900Y-111943163D01*
X127725900Y-111980620D01*
X127762425Y-112164243D01*
X127762427Y-112164251D01*
X127834076Y-112337228D01*
X127834081Y-112337237D01*
X127938097Y-112492907D01*
X127938100Y-112492911D01*
X128070488Y-112625299D01*
X128070492Y-112625302D01*
X128226162Y-112729318D01*
X128226171Y-112729323D01*
X128256252Y-112741783D01*
X128399149Y-112800973D01*
X128541469Y-112829282D01*
X128582779Y-112837499D01*
X128582783Y-112837500D01*
X128582784Y-112837500D01*
X128770017Y-112837500D01*
X128770018Y-112837499D01*
X128953651Y-112800973D01*
X129126631Y-112729322D01*
X129282308Y-112625302D01*
X129414702Y-112492908D01*
X129518722Y-112337231D01*
X129590373Y-112164251D01*
X129626900Y-111980616D01*
X129626900Y-111793384D01*
X129590373Y-111609749D01*
X129518722Y-111436769D01*
X129518721Y-111436768D01*
X129518718Y-111436762D01*
X129414702Y-111281092D01*
X129414699Y-111281088D01*
X129282311Y-111148700D01*
X129282307Y-111148697D01*
X129126637Y-111044681D01*
X129126628Y-111044676D01*
X128953651Y-110973027D01*
X128953643Y-110973025D01*
X128770020Y-110936500D01*
X128770016Y-110936500D01*
X128732563Y-110936500D01*
X128665524Y-110916815D01*
X128644882Y-110900181D01*
X128116409Y-110371707D01*
X128116405Y-110371704D01*
X128005775Y-110297783D01*
X128005765Y-110297778D01*
X127882836Y-110246859D01*
X127882828Y-110246857D01*
X127868681Y-110244043D01*
X129724750Y-110244043D01*
X129857140Y-110332504D01*
X129862114Y-110336007D01*
X129891688Y-110357940D01*
X129896488Y-110361686D01*
X129934370Y-110392775D01*
X129938977Y-110396749D01*
X129966264Y-110421480D01*
X129970673Y-110425678D01*
X130137722Y-110592727D01*
X130141920Y-110597136D01*
X130166651Y-110624423D01*
X130170625Y-110629030D01*
X130201714Y-110666912D01*
X130205460Y-110671712D01*
X130227393Y-110701286D01*
X130230896Y-110706260D01*
X130362144Y-110902686D01*
X130365401Y-110907830D01*
X130384336Y-110939422D01*
X130387336Y-110944718D01*
X130410437Y-110987939D01*
X130413173Y-110993374D01*
X130428913Y-111026654D01*
X130431379Y-111032217D01*
X130508897Y-111219362D01*
X131226750Y-111219362D01*
X132224750Y-111219362D01*
X133726750Y-111219362D01*
X133726750Y-110200998D01*
X133720568Y-110193157D01*
X133717625Y-110189269D01*
X133569626Y-109985565D01*
X133566840Y-109981568D01*
X133550474Y-109957073D01*
X133547850Y-109952973D01*
X133527369Y-109919550D01*
X133524907Y-109915350D01*
X133510517Y-109889654D01*
X133508222Y-109885361D01*
X133422622Y-109717362D01*
X132224750Y-109717362D01*
X132224750Y-111219362D01*
X131226750Y-111219362D01*
X131226750Y-109717362D01*
X129724750Y-109717362D01*
X129724750Y-110244043D01*
X127868681Y-110244043D01*
X127752335Y-110220900D01*
X127752331Y-110220900D01*
X123470363Y-110220900D01*
X123403324Y-110201215D01*
X123382682Y-110184581D01*
X123368419Y-110170318D01*
X123334934Y-110108995D01*
X123332100Y-110082637D01*
X123332100Y-108719362D01*
X124724750Y-108719362D01*
X126226750Y-108719362D01*
X127224750Y-108719362D01*
X128726750Y-108719362D01*
X129724750Y-108719362D01*
X131226750Y-108719362D01*
X132224750Y-108719362D01*
X133195100Y-108719362D01*
X133195100Y-108600713D01*
X134193100Y-108600713D01*
X134193100Y-108813286D01*
X134226109Y-109021701D01*
X134226354Y-109023243D01*
X134277621Y-109181027D01*
X134292044Y-109225414D01*
X134388551Y-109414820D01*
X134513490Y-109586786D01*
X134663813Y-109737109D01*
X134835779Y-109862048D01*
X134835781Y-109862049D01*
X134835784Y-109862051D01*
X135025188Y-109958557D01*
X135227357Y-110024246D01*
X135437313Y-110057500D01*
X135437314Y-110057500D01*
X135649886Y-110057500D01*
X135649887Y-110057500D01*
X135859843Y-110024246D01*
X136062012Y-109958557D01*
X136251416Y-109862051D01*
X136385408Y-109764701D01*
X136423386Y-109737109D01*
X136423388Y-109737106D01*
X136423392Y-109737104D01*
X136573704Y-109586792D01*
X136573706Y-109586788D01*
X136573709Y-109586786D01*
X136698648Y-109414820D01*
X136698647Y-109414820D01*
X136698651Y-109414816D01*
X136795157Y-109225412D01*
X136860846Y-109023243D01*
X136894100Y-108813287D01*
X136894100Y-108600713D01*
X136860846Y-108390757D01*
X136795157Y-108188588D01*
X136698651Y-107999184D01*
X136698649Y-107999181D01*
X136698648Y-107999179D01*
X136573709Y-107827213D01*
X136459781Y-107713285D01*
X136426296Y-107651962D01*
X136431280Y-107582270D01*
X136473152Y-107526337D01*
X136504129Y-107509422D01*
X136635686Y-107460354D01*
X136635693Y-107460350D01*
X136750787Y-107374190D01*
X136750790Y-107374187D01*
X136836950Y-107259093D01*
X136836954Y-107259086D01*
X136887196Y-107124379D01*
X136887198Y-107124372D01*
X136893599Y-107064844D01*
X136893600Y-107064827D01*
X136893600Y-106417000D01*
X135976612Y-106417000D01*
X136009525Y-106359993D01*
X136043600Y-106232826D01*
X136043600Y-106101174D01*
X136009525Y-105974007D01*
X135976612Y-105917000D01*
X136893600Y-105917000D01*
X136893600Y-105269172D01*
X136893599Y-105269155D01*
X136887198Y-105209627D01*
X136887196Y-105209620D01*
X136836954Y-105074913D01*
X136836950Y-105074906D01*
X136750790Y-104959812D01*
X136750787Y-104959809D01*
X136635693Y-104873649D01*
X136635686Y-104873645D01*
X136500979Y-104823403D01*
X136500972Y-104823401D01*
X136441444Y-104817000D01*
X135793600Y-104817000D01*
X135793600Y-105733988D01*
X135736593Y-105701075D01*
X135609426Y-105667000D01*
X135477774Y-105667000D01*
X135350607Y-105701075D01*
X135293600Y-105733988D01*
X135293600Y-104817000D01*
X134645755Y-104817000D01*
X134586227Y-104823401D01*
X134586220Y-104823403D01*
X134451513Y-104873645D01*
X134451506Y-104873649D01*
X134336412Y-104959809D01*
X134336409Y-104959812D01*
X134250249Y-105074906D01*
X134250245Y-105074913D01*
X134200003Y-105209620D01*
X134200001Y-105209627D01*
X134193600Y-105269155D01*
X134193600Y-105917000D01*
X135110588Y-105917000D01*
X135077675Y-105974007D01*
X135043600Y-106101174D01*
X135043600Y-106232826D01*
X135077675Y-106359993D01*
X135110588Y-106417000D01*
X134193600Y-106417000D01*
X134193600Y-107064844D01*
X134200001Y-107124372D01*
X134200003Y-107124379D01*
X134250245Y-107259086D01*
X134250249Y-107259093D01*
X134336409Y-107374187D01*
X134336412Y-107374190D01*
X134451506Y-107460350D01*
X134451513Y-107460354D01*
X134583070Y-107509422D01*
X134639004Y-107551293D01*
X134663421Y-107616758D01*
X134648569Y-107685031D01*
X134627419Y-107713285D01*
X134513489Y-107827215D01*
X134388551Y-107999179D01*
X134292044Y-108188585D01*
X134226353Y-108390760D01*
X134193100Y-108600713D01*
X133195100Y-108600713D01*
X133195100Y-108581103D01*
X133195196Y-108576231D01*
X133196354Y-108546779D01*
X133196641Y-108541914D01*
X133199719Y-108502835D01*
X133200196Y-108497997D01*
X133203656Y-108468764D01*
X133204323Y-108463941D01*
X133243708Y-108215272D01*
X133244564Y-108210477D01*
X133250313Y-108181577D01*
X133251358Y-108176817D01*
X133260511Y-108138700D01*
X133261738Y-108133995D01*
X133269731Y-108105653D01*
X133271145Y-108100993D01*
X133348942Y-107861560D01*
X133350536Y-107856963D01*
X133360721Y-107829353D01*
X133362493Y-107824825D01*
X133377491Y-107788608D01*
X133379446Y-107784139D01*
X133388788Y-107763871D01*
X133357238Y-107706091D01*
X133353277Y-107698177D01*
X133331019Y-107649441D01*
X133327630Y-107641261D01*
X133254021Y-107443904D01*
X133251542Y-107436564D01*
X133237932Y-107391695D01*
X133235915Y-107384212D01*
X133221572Y-107323501D01*
X133220028Y-107315916D01*
X133212122Y-107269738D01*
X133211055Y-107262069D01*
X133206248Y-107217362D01*
X132224750Y-107217362D01*
X132224750Y-108719362D01*
X131226750Y-108719362D01*
X131226750Y-107217362D01*
X129724750Y-107217362D01*
X129724750Y-108719362D01*
X128726750Y-108719362D01*
X128726750Y-107217362D01*
X127224750Y-107217362D01*
X127224750Y-108719362D01*
X126226750Y-108719362D01*
X126226750Y-107217362D01*
X124724750Y-107217362D01*
X124724750Y-108719362D01*
X123332100Y-108719362D01*
X123332100Y-106219362D01*
X124724750Y-106219362D01*
X126226750Y-106219362D01*
X127224750Y-106219362D01*
X128726750Y-106219362D01*
X129724750Y-106219362D01*
X131226750Y-106219362D01*
X132224750Y-106219362D01*
X133195600Y-106219362D01*
X133195600Y-106216454D01*
X133205039Y-106169002D01*
X133205868Y-106167000D01*
X133205039Y-106164998D01*
X133195600Y-106117546D01*
X133195600Y-105255823D01*
X133195644Y-105252509D01*
X133196180Y-105232461D01*
X133196313Y-105229145D01*
X133197742Y-105202458D01*
X133197964Y-105199144D01*
X133199577Y-105179095D01*
X133199889Y-105175783D01*
X133211055Y-105071931D01*
X133212122Y-105064262D01*
X133220028Y-105018084D01*
X133221572Y-105010499D01*
X133235915Y-104949788D01*
X133237932Y-104942305D01*
X133251542Y-104897436D01*
X133254021Y-104890096D01*
X133318446Y-104717362D01*
X132224750Y-104717362D01*
X132224750Y-106219362D01*
X131226750Y-106219362D01*
X131226750Y-104717362D01*
X129724750Y-104717362D01*
X129724750Y-106219362D01*
X128726750Y-106219362D01*
X128726750Y-104717362D01*
X127224750Y-104717362D01*
X127224750Y-106219362D01*
X126226750Y-106219362D01*
X126226750Y-104717362D01*
X124724750Y-104717362D01*
X124724750Y-106219362D01*
X123332100Y-106219362D01*
X123332100Y-103719362D01*
X124724750Y-103719362D01*
X126226750Y-103719362D01*
X127224750Y-103719362D01*
X128726750Y-103719362D01*
X129724750Y-103719362D01*
X131226750Y-103719362D01*
X132224750Y-103719362D01*
X133726750Y-103719362D01*
X134724750Y-103719362D01*
X136226750Y-103719362D01*
X136226750Y-102217362D01*
X134724750Y-102217362D01*
X134724750Y-103719362D01*
X133726750Y-103719362D01*
X133726750Y-102217362D01*
X132224750Y-102217362D01*
X132224750Y-103719362D01*
X131226750Y-103719362D01*
X131226750Y-102217362D01*
X129724750Y-102217362D01*
X129724750Y-103719362D01*
X128726750Y-103719362D01*
X128726750Y-102217362D01*
X127224750Y-102217362D01*
X127224750Y-103719362D01*
X126226750Y-103719362D01*
X126226750Y-102217362D01*
X124724750Y-102217362D01*
X124724750Y-103719362D01*
X123332100Y-103719362D01*
X123332100Y-101888272D01*
X123351785Y-101821233D01*
X123368414Y-101800595D01*
X123471102Y-101697908D01*
X123575122Y-101542231D01*
X123646773Y-101369251D01*
X123676588Y-101219362D01*
X124724750Y-101219362D01*
X126226750Y-101219362D01*
X127224750Y-101219362D01*
X128726750Y-101219362D01*
X129724750Y-101219362D01*
X131226750Y-101219362D01*
X132224750Y-101219362D01*
X133726750Y-101219362D01*
X134724750Y-101219362D01*
X135859271Y-101219362D01*
X135858530Y-101217224D01*
X135780953Y-100978468D01*
X135779539Y-100973808D01*
X135771546Y-100945466D01*
X135770319Y-100940761D01*
X135761166Y-100902644D01*
X135760120Y-100897881D01*
X135754372Y-100868982D01*
X135753517Y-100864190D01*
X135733160Y-100735668D01*
X134724750Y-100731629D01*
X134724750Y-101219362D01*
X133726750Y-101219362D01*
X133726750Y-100727632D01*
X132224750Y-100721615D01*
X132224750Y-101219362D01*
X131226750Y-101219362D01*
X131226750Y-100717618D01*
X129724750Y-100711602D01*
X129724750Y-101219362D01*
X128726750Y-101219362D01*
X128726750Y-100707605D01*
X127224750Y-100701589D01*
X127224750Y-101219362D01*
X126226750Y-101219362D01*
X126226750Y-100697592D01*
X124724750Y-100691575D01*
X124724750Y-101219362D01*
X123676588Y-101219362D01*
X123683300Y-101185616D01*
X123683300Y-100998384D01*
X123646773Y-100814749D01*
X123579162Y-100651522D01*
X123575123Y-100641771D01*
X123575118Y-100641762D01*
X123471102Y-100486092D01*
X123471099Y-100486088D01*
X123338711Y-100353700D01*
X123338707Y-100353697D01*
X123183037Y-100249681D01*
X123183028Y-100249676D01*
X123010051Y-100178027D01*
X123010043Y-100178025D01*
X122826420Y-100141500D01*
X122826416Y-100141500D01*
X122639184Y-100141500D01*
X122639179Y-100141500D01*
X122455556Y-100178025D01*
X122455548Y-100178027D01*
X122282571Y-100249676D01*
X122282562Y-100249681D01*
X122126892Y-100353697D01*
X122126888Y-100353700D01*
X121994500Y-100486088D01*
X121994497Y-100486092D01*
X121890481Y-100641762D01*
X121890476Y-100641771D01*
X121818827Y-100814748D01*
X121818825Y-100814756D01*
X121782300Y-100998379D01*
X121782300Y-101185620D01*
X121818825Y-101369243D01*
X121818827Y-101369251D01*
X121890476Y-101542228D01*
X121890481Y-101542236D01*
X121960202Y-101646580D01*
X121981080Y-101713257D01*
X121981100Y-101715471D01*
X121981100Y-109853779D01*
X121961415Y-109920818D01*
X121908611Y-109966573D01*
X121881293Y-109975396D01*
X121845953Y-109982425D01*
X121845948Y-109982427D01*
X121672971Y-110054076D01*
X121672962Y-110054081D01*
X121517292Y-110158097D01*
X121517288Y-110158100D01*
X121384900Y-110290488D01*
X121384897Y-110290492D01*
X121280881Y-110446162D01*
X121280876Y-110446171D01*
X121209227Y-110619148D01*
X121209225Y-110619156D01*
X121172700Y-110802779D01*
X118726750Y-110802779D01*
X118726750Y-109717362D01*
X117224750Y-109717362D01*
X117224750Y-111219362D01*
X116068900Y-111219362D01*
X116068900Y-109367965D01*
X116088585Y-109300926D01*
X116089798Y-109299074D01*
X116139018Y-109225412D01*
X116177794Y-109167379D01*
X116238137Y-109021697D01*
X116268900Y-108867042D01*
X116268900Y-108709358D01*
X116268900Y-108709355D01*
X116268899Y-108709353D01*
X116244593Y-108587161D01*
X116238137Y-108554703D01*
X116214649Y-108497997D01*
X116177797Y-108409027D01*
X116177790Y-108409014D01*
X116171208Y-108399163D01*
X117224750Y-108399163D01*
X117252504Y-108538692D01*
X117253545Y-108544689D01*
X117258949Y-108581120D01*
X117259694Y-108587161D01*
X117264497Y-108635933D01*
X117264945Y-108642003D01*
X117266751Y-108678775D01*
X117266900Y-108684858D01*
X117266900Y-108719362D01*
X118726750Y-108719362D01*
X119724750Y-108719362D01*
X120983100Y-108719362D01*
X120983100Y-107217362D01*
X119724750Y-107217362D01*
X119724750Y-108719362D01*
X118726750Y-108719362D01*
X118726750Y-107217362D01*
X117224750Y-107217362D01*
X117224750Y-108399163D01*
X116171208Y-108399163D01*
X116090189Y-108277911D01*
X116090186Y-108277907D01*
X115978692Y-108166413D01*
X115978688Y-108166410D01*
X115847585Y-108078809D01*
X115847572Y-108078802D01*
X115701901Y-108018464D01*
X115701889Y-108018461D01*
X115547245Y-107987700D01*
X115547242Y-107987700D01*
X115389558Y-107987700D01*
X115389555Y-107987700D01*
X115234910Y-108018461D01*
X115234898Y-108018464D01*
X115089227Y-108078802D01*
X115089214Y-108078809D01*
X114958111Y-108166410D01*
X114958107Y-108166413D01*
X114846613Y-108277907D01*
X114846610Y-108277911D01*
X114759009Y-108409014D01*
X114759002Y-108409027D01*
X114698664Y-108554698D01*
X114698661Y-108554710D01*
X114667900Y-108709353D01*
X111226750Y-108709353D01*
X111226750Y-107964589D01*
X111223152Y-107957528D01*
X111221025Y-107953143D01*
X111208682Y-107926367D01*
X111206728Y-107921900D01*
X111191730Y-107885684D01*
X111189957Y-107881153D01*
X111179773Y-107853544D01*
X111178180Y-107848950D01*
X111102808Y-107616983D01*
X111101394Y-107612320D01*
X111093391Y-107583941D01*
X111092160Y-107579222D01*
X111083012Y-107541103D01*
X111081970Y-107536352D01*
X111076230Y-107507489D01*
X111075375Y-107502701D01*
X111037223Y-107261825D01*
X111036555Y-107257001D01*
X111033095Y-107227767D01*
X111032619Y-107222930D01*
X111032180Y-107217362D01*
X109724750Y-107217362D01*
X109724750Y-108719362D01*
X107460397Y-108719362D01*
X106893049Y-108152014D01*
X106859564Y-108090691D01*
X106864548Y-108020999D01*
X106875188Y-107999241D01*
X106941314Y-107892034D01*
X106959886Y-107835987D01*
X107988406Y-107835987D01*
X108456642Y-108304223D01*
X108555927Y-108345348D01*
X108561491Y-108347814D01*
X108594773Y-108363555D01*
X108600207Y-108366290D01*
X108643429Y-108389391D01*
X108648725Y-108392391D01*
X108680318Y-108411326D01*
X108685463Y-108414584D01*
X108726750Y-108442171D01*
X108726750Y-107217362D01*
X108005000Y-107217362D01*
X108005000Y-107635404D01*
X108004960Y-107638557D01*
X108004475Y-107657627D01*
X108004355Y-107660780D01*
X108003063Y-107686151D01*
X108002862Y-107689302D01*
X108001405Y-107708351D01*
X108001124Y-107711496D01*
X107988406Y-107835987D01*
X106959886Y-107835987D01*
X106996499Y-107725497D01*
X107007000Y-107622709D01*
X107006999Y-106920348D01*
X112026000Y-106920348D01*
X112026000Y-107125052D01*
X112030079Y-107150808D01*
X112058022Y-107327234D01*
X112121281Y-107521923D01*
X112214215Y-107704313D01*
X112334528Y-107869913D01*
X112479286Y-108014671D01*
X112604515Y-108105653D01*
X112644890Y-108134987D01*
X112726986Y-108176817D01*
X112827276Y-108227918D01*
X112827278Y-108227918D01*
X112827281Y-108227920D01*
X112918356Y-108257512D01*
X113021965Y-108291177D01*
X113104334Y-108304223D01*
X113224148Y-108323200D01*
X113224149Y-108323200D01*
X113428851Y-108323200D01*
X113428852Y-108323200D01*
X113631034Y-108291177D01*
X113825719Y-108227920D01*
X114008110Y-108134987D01*
X114136982Y-108041357D01*
X114173713Y-108014671D01*
X114173715Y-108014668D01*
X114173719Y-108014666D01*
X114318466Y-107869919D01*
X114318468Y-107869915D01*
X114318471Y-107869913D01*
X114380788Y-107784139D01*
X114438787Y-107704310D01*
X114531720Y-107521919D01*
X114594977Y-107327234D01*
X114627000Y-107125052D01*
X114627000Y-106920348D01*
X114594977Y-106718165D01*
X114531718Y-106523476D01*
X114480365Y-106422691D01*
X114438787Y-106341090D01*
X114423392Y-106319900D01*
X114350348Y-106219362D01*
X117224750Y-106219362D01*
X118726750Y-106219362D01*
X119724750Y-106219362D01*
X120983100Y-106219362D01*
X120983100Y-104717362D01*
X119724750Y-104717362D01*
X119724750Y-106219362D01*
X118726750Y-106219362D01*
X118726750Y-104717362D01*
X117224750Y-104717362D01*
X117224750Y-106219362D01*
X114350348Y-106219362D01*
X114318471Y-106175486D01*
X114173713Y-106030728D01*
X114008113Y-105910415D01*
X114008112Y-105910414D01*
X114008110Y-105910413D01*
X113948398Y-105879988D01*
X113825723Y-105817481D01*
X113631034Y-105754222D01*
X113456495Y-105726578D01*
X113428852Y-105722200D01*
X113224148Y-105722200D01*
X113199829Y-105726051D01*
X113021965Y-105754222D01*
X112827276Y-105817481D01*
X112644886Y-105910415D01*
X112479286Y-106030728D01*
X112334528Y-106175486D01*
X112214215Y-106341086D01*
X112121281Y-106523476D01*
X112058022Y-106718165D01*
X112026000Y-106920348D01*
X107006999Y-106920348D01*
X107006999Y-106422692D01*
X106996499Y-106319903D01*
X106941314Y-106153366D01*
X106849212Y-106004044D01*
X106725156Y-105879988D01*
X106575834Y-105787886D01*
X106409297Y-105732701D01*
X106409295Y-105732700D01*
X106306510Y-105722200D01*
X105106498Y-105722200D01*
X105106481Y-105722201D01*
X105003703Y-105732700D01*
X105003700Y-105732701D01*
X104837168Y-105787885D01*
X104837163Y-105787887D01*
X104687842Y-105879989D01*
X104563789Y-106004042D01*
X104471687Y-106153363D01*
X104471685Y-106153368D01*
X104443849Y-106237370D01*
X104416501Y-106319903D01*
X104416501Y-106319904D01*
X104416500Y-106319904D01*
X104406000Y-106422683D01*
X104406000Y-107622701D01*
X104406001Y-107622718D01*
X104416500Y-107725496D01*
X104416501Y-107725499D01*
X104461588Y-107861560D01*
X104471686Y-107892034D01*
X104563788Y-108041356D01*
X104687844Y-108165412D01*
X104837166Y-108257514D01*
X105003703Y-108312699D01*
X105106491Y-108323200D01*
X105345952Y-108323199D01*
X105412992Y-108342883D01*
X105453340Y-108385199D01*
X105488277Y-108445712D01*
X105488281Y-108445717D01*
X105607149Y-108564585D01*
X105607155Y-108564590D01*
X106924784Y-109882219D01*
X106958269Y-109943542D01*
X106953285Y-110013234D01*
X106911413Y-110069167D01*
X106845949Y-110093584D01*
X106837103Y-110093900D01*
X105791963Y-110093900D01*
X105724924Y-110074215D01*
X105704282Y-110057581D01*
X102745593Y-107098892D01*
X102712108Y-107037569D01*
X102717092Y-106967877D01*
X102734005Y-106936904D01*
X102808396Y-106837531D01*
X102858691Y-106702683D01*
X102865100Y-106643073D01*
X102865099Y-105443099D01*
X102884784Y-105376061D01*
X102937587Y-105330306D01*
X102978914Y-105321315D01*
X102978755Y-105319697D01*
X102984810Y-105319100D01*
X102984816Y-105319100D01*
X103168451Y-105282573D01*
X103341431Y-105210922D01*
X103497108Y-105106902D01*
X103588445Y-105015565D01*
X107224750Y-105015565D01*
X107273803Y-105045821D01*
X107279833Y-105049787D01*
X107315593Y-105074828D01*
X107321377Y-105079134D01*
X107366944Y-105115164D01*
X107372471Y-105119802D01*
X107405069Y-105148813D01*
X107410313Y-105153761D01*
X107575439Y-105318887D01*
X107580387Y-105324131D01*
X107609398Y-105356729D01*
X107614036Y-105362256D01*
X107650066Y-105407823D01*
X107654372Y-105413607D01*
X107679413Y-105449367D01*
X107683379Y-105455397D01*
X107805981Y-105654168D01*
X107809588Y-105660415D01*
X107830306Y-105698840D01*
X107833544Y-105705287D01*
X107858091Y-105757932D01*
X107860947Y-105764554D01*
X107877056Y-105805104D01*
X107879522Y-105811880D01*
X107952409Y-106031837D01*
X107954361Y-106038314D01*
X107965099Y-106077816D01*
X107966695Y-106084391D01*
X107978093Y-106137645D01*
X107979327Y-106144289D01*
X107985696Y-106184694D01*
X107986566Y-106191401D01*
X107989422Y-106219362D01*
X108726750Y-106219362D01*
X109724750Y-106219362D01*
X111170735Y-106219362D01*
X111178180Y-106196450D01*
X111179773Y-106191856D01*
X111189957Y-106164247D01*
X111191730Y-106159716D01*
X111206728Y-106123500D01*
X111208682Y-106119033D01*
X111221025Y-106092257D01*
X111223151Y-106087873D01*
X111226750Y-106080809D01*
X111226750Y-105197485D01*
X114724750Y-105197485D01*
X114776196Y-105234863D01*
X114780084Y-105237806D01*
X114803243Y-105256065D01*
X114807008Y-105259155D01*
X114836815Y-105284616D01*
X114840454Y-105287850D01*
X114862059Y-105307824D01*
X114865563Y-105311194D01*
X115038006Y-105483637D01*
X115041376Y-105487141D01*
X115061350Y-105508746D01*
X115064584Y-105512385D01*
X115090045Y-105542192D01*
X115093135Y-105545957D01*
X115111394Y-105569116D01*
X115114337Y-105573004D01*
X115236375Y-105740977D01*
X115256896Y-105737727D01*
X115276293Y-105736200D01*
X115457307Y-105736200D01*
X115476705Y-105737727D01*
X115655490Y-105766044D01*
X115674410Y-105770586D01*
X115846565Y-105826522D01*
X115864542Y-105833968D01*
X116025826Y-105916147D01*
X116042416Y-105926314D01*
X116188860Y-106032711D01*
X116203656Y-106045348D01*
X116226750Y-106068442D01*
X116226750Y-104717362D01*
X114724750Y-104717362D01*
X114724750Y-105197485D01*
X111226750Y-105197485D01*
X111226750Y-104717362D01*
X109724750Y-104717362D01*
X109724750Y-106219362D01*
X108726750Y-106219362D01*
X108726750Y-104717362D01*
X107224750Y-104717362D01*
X107224750Y-105015565D01*
X103588445Y-105015565D01*
X103629502Y-104974508D01*
X103733522Y-104818831D01*
X103805173Y-104645851D01*
X103841700Y-104462216D01*
X103841700Y-104274984D01*
X103805173Y-104091349D01*
X103733522Y-103918369D01*
X103733521Y-103918368D01*
X103733518Y-103918362D01*
X103629502Y-103762692D01*
X103629499Y-103762688D01*
X103570316Y-103703505D01*
X104724750Y-103703505D01*
X104731318Y-103719362D01*
X106226750Y-103719362D01*
X107224750Y-103719362D01*
X108726750Y-103719362D01*
X109724750Y-103719362D01*
X111226750Y-103719362D01*
X112224750Y-103719362D01*
X113726750Y-103719362D01*
X114724750Y-103719362D01*
X116226750Y-103719362D01*
X117224750Y-103719362D01*
X118726750Y-103719362D01*
X119724750Y-103719362D01*
X120983100Y-103719362D01*
X120983100Y-102217362D01*
X119724750Y-102217362D01*
X119724750Y-103719362D01*
X118726750Y-103719362D01*
X118726750Y-102217362D01*
X117224750Y-102217362D01*
X117224750Y-103719362D01*
X116226750Y-103719362D01*
X116226750Y-102217362D01*
X114724750Y-102217362D01*
X114724750Y-103719362D01*
X113726750Y-103719362D01*
X113726750Y-102217362D01*
X112224750Y-102217362D01*
X112224750Y-103719362D01*
X111226750Y-103719362D01*
X111226750Y-102217362D01*
X109724750Y-102217362D01*
X109724750Y-103719362D01*
X108726750Y-103719362D01*
X108726750Y-102217362D01*
X107224750Y-102217362D01*
X107224750Y-103719362D01*
X106226750Y-103719362D01*
X106226750Y-102217362D01*
X104724750Y-102217362D01*
X104724750Y-103703505D01*
X103570316Y-103703505D01*
X103497111Y-103630300D01*
X103497107Y-103630297D01*
X103341437Y-103526281D01*
X103341428Y-103526276D01*
X103168451Y-103454627D01*
X103168443Y-103454625D01*
X102984820Y-103418100D01*
X102978755Y-103417503D01*
X102978974Y-103415273D01*
X102921561Y-103398415D01*
X102875806Y-103345611D01*
X102864600Y-103294100D01*
X102864600Y-103098953D01*
X102831357Y-102889072D01*
X102831357Y-102889069D01*
X102765695Y-102686982D01*
X102669224Y-102497649D01*
X102629870Y-102443482D01*
X102629869Y-102443482D01*
X101997562Y-103075790D01*
X101980525Y-103012207D01*
X101914699Y-102898193D01*
X101821607Y-102805101D01*
X101707593Y-102739275D01*
X101644009Y-102722237D01*
X102276316Y-102089928D01*
X102222150Y-102050575D01*
X102032817Y-101954104D01*
X101830729Y-101888442D01*
X101620846Y-101855200D01*
X101408354Y-101855200D01*
X101198472Y-101888442D01*
X101198469Y-101888442D01*
X100996382Y-101954104D01*
X100807039Y-102050580D01*
X100752882Y-102089927D01*
X100752882Y-102089928D01*
X101385191Y-102722237D01*
X101321607Y-102739275D01*
X101207593Y-102805101D01*
X101114501Y-102898193D01*
X101048675Y-103012207D01*
X101031637Y-103075791D01*
X100399328Y-102443482D01*
X100399327Y-102443482D01*
X100359980Y-102497639D01*
X100263504Y-102686982D01*
X100197842Y-102889069D01*
X100197842Y-102889072D01*
X100164600Y-103098953D01*
X100164600Y-103311446D01*
X100197842Y-103521327D01*
X100197842Y-103521330D01*
X100263504Y-103723417D01*
X100359975Y-103912750D01*
X100399328Y-103966916D01*
X101031637Y-103334608D01*
X101048675Y-103398193D01*
X101114501Y-103512207D01*
X101207593Y-103605299D01*
X101321607Y-103671125D01*
X101385190Y-103688162D01*
X100714970Y-104358381D01*
X100653647Y-104391866D01*
X100627298Y-104394700D01*
X100616734Y-104394700D01*
X100616723Y-104394701D01*
X100557116Y-104401108D01*
X100422271Y-104451402D01*
X100422264Y-104451406D01*
X100307055Y-104537652D01*
X100307052Y-104537655D01*
X100220806Y-104652864D01*
X100220802Y-104652871D01*
X100170508Y-104787717D01*
X100164101Y-104847316D01*
X100164100Y-104847335D01*
X100164100Y-106643070D01*
X100164101Y-106643076D01*
X100170508Y-106702683D01*
X100220802Y-106837528D01*
X100220806Y-106837535D01*
X100307052Y-106952744D01*
X100307055Y-106952747D01*
X100422264Y-107038993D01*
X100422271Y-107038997D01*
X100467218Y-107055761D01*
X100557117Y-107089291D01*
X100616727Y-107095700D01*
X100817980Y-107095699D01*
X100885020Y-107115383D01*
X100921083Y-107150808D01*
X100989904Y-107253805D01*
X100989907Y-107253809D01*
X104006345Y-110270246D01*
X104039830Y-110331569D01*
X104034846Y-110401261D01*
X103992974Y-110457194D01*
X103942857Y-110479544D01*
X103888153Y-110490425D01*
X103888148Y-110490427D01*
X103715171Y-110562076D01*
X103715162Y-110562081D01*
X103559492Y-110666097D01*
X103559488Y-110666100D01*
X103427100Y-110798488D01*
X103427097Y-110798492D01*
X103323081Y-110954162D01*
X103323076Y-110954171D01*
X103251427Y-111127148D01*
X103251425Y-111127156D01*
X103214900Y-111310779D01*
X103214900Y-111310784D01*
X103214900Y-111498016D01*
X103229596Y-111571900D01*
X103236210Y-111605153D01*
X103229981Y-111674745D01*
X103202273Y-111717024D01*
X103049434Y-111869863D01*
X102988111Y-111903348D01*
X102918419Y-111898364D01*
X102862486Y-111856492D01*
X102838463Y-111795434D01*
X102838242Y-111793379D01*
X102833291Y-111747317D01*
X102830085Y-111738722D01*
X102782997Y-111612471D01*
X102782993Y-111612464D01*
X102696747Y-111497255D01*
X102696744Y-111497252D01*
X102581535Y-111411006D01*
X102581528Y-111411002D01*
X102446682Y-111360708D01*
X102446683Y-111360708D01*
X102387083Y-111354301D01*
X102387081Y-111354300D01*
X102387073Y-111354300D01*
X102387065Y-111354300D01*
X102376509Y-111354300D01*
X102309470Y-111334615D01*
X102288828Y-111317981D01*
X101618608Y-110647762D01*
X101682193Y-110630725D01*
X101796207Y-110564899D01*
X101889299Y-110471807D01*
X101955125Y-110357793D01*
X101972162Y-110294208D01*
X102604470Y-110926517D01*
X102604470Y-110926516D01*
X102643822Y-110872354D01*
X102740295Y-110683017D01*
X102805957Y-110480930D01*
X102805957Y-110480927D01*
X102839200Y-110271046D01*
X102839200Y-110058553D01*
X102805957Y-109848672D01*
X102805957Y-109848669D01*
X102740295Y-109646582D01*
X102643824Y-109457249D01*
X102604470Y-109403082D01*
X102604469Y-109403082D01*
X101972162Y-110035390D01*
X101955125Y-109971807D01*
X101889299Y-109857793D01*
X101796207Y-109764701D01*
X101682193Y-109698875D01*
X101618609Y-109681837D01*
X102250916Y-109049528D01*
X102196750Y-109010175D01*
X102007417Y-108913704D01*
X101805329Y-108848042D01*
X101595446Y-108814800D01*
X101382954Y-108814800D01*
X101173072Y-108848042D01*
X101173069Y-108848042D01*
X100970982Y-108913704D01*
X100781639Y-109010180D01*
X100727482Y-109049527D01*
X100727482Y-109049528D01*
X101359791Y-109681837D01*
X101296207Y-109698875D01*
X101182193Y-109764701D01*
X101089101Y-109857793D01*
X101023275Y-109971807D01*
X101006237Y-110035391D01*
X100373928Y-109403082D01*
X100373927Y-109403082D01*
X100334580Y-109457239D01*
X100238104Y-109646582D01*
X100172442Y-109848669D01*
X100172442Y-109848672D01*
X100139200Y-110058553D01*
X100139200Y-110271046D01*
X100172442Y-110480927D01*
X100172442Y-110480930D01*
X100238104Y-110683017D01*
X100334575Y-110872350D01*
X100373928Y-110926516D01*
X101006237Y-110294208D01*
X101023275Y-110357793D01*
X101089101Y-110471807D01*
X101182193Y-110564899D01*
X101296207Y-110630725D01*
X101359790Y-110647762D01*
X100689570Y-111317981D01*
X100628247Y-111351466D01*
X100601898Y-111354300D01*
X100591334Y-111354300D01*
X100591323Y-111354301D01*
X100531716Y-111360708D01*
X100396871Y-111411002D01*
X100396864Y-111411006D01*
X100281655Y-111497252D01*
X100281652Y-111497255D01*
X100195406Y-111612464D01*
X100195402Y-111612471D01*
X100145108Y-111747317D01*
X100138701Y-111806916D01*
X100138700Y-111806935D01*
X99520923Y-111806935D01*
X99476752Y-101809640D01*
X99496139Y-101742519D01*
X99544454Y-101698612D01*
X99721929Y-101608186D01*
X99893329Y-101483657D01*
X100043138Y-101333848D01*
X100167667Y-101162448D01*
X100263850Y-100973677D01*
X100265985Y-100967107D01*
X102224750Y-100967107D01*
X102359863Y-101011009D01*
X102364464Y-101012605D01*
X102392109Y-101022804D01*
X102396645Y-101024579D01*
X102432861Y-101039581D01*
X102437319Y-101041531D01*
X102464063Y-101053860D01*
X102468446Y-101055986D01*
X102692710Y-101170256D01*
X102697005Y-101172552D01*
X102722717Y-101186952D01*
X102726919Y-101189415D01*
X102760340Y-101209897D01*
X102764440Y-101212521D01*
X102774678Y-101219362D01*
X103726750Y-101219362D01*
X104724750Y-101219362D01*
X106226750Y-101219362D01*
X107224750Y-101219362D01*
X108726750Y-101219362D01*
X109724750Y-101219362D01*
X111226750Y-101219362D01*
X112224750Y-101219362D01*
X113726750Y-101219362D01*
X114724750Y-101219362D01*
X116226750Y-101219362D01*
X117224750Y-101219362D01*
X118726750Y-101219362D01*
X119724750Y-101219362D01*
X120784604Y-101219362D01*
X120784449Y-101216200D01*
X120784300Y-101210118D01*
X120784300Y-100973882D01*
X120784449Y-100967800D01*
X120786255Y-100931025D01*
X120786703Y-100924954D01*
X120791506Y-100876185D01*
X120792251Y-100870142D01*
X120797655Y-100833714D01*
X120798696Y-100827719D01*
X120828880Y-100675971D01*
X119724750Y-100671549D01*
X119724750Y-101219362D01*
X118726750Y-101219362D01*
X118726750Y-100667552D01*
X117224750Y-100661536D01*
X117224750Y-101219362D01*
X116226750Y-101219362D01*
X116226750Y-100657539D01*
X114724750Y-100651522D01*
X114724750Y-101219362D01*
X113726750Y-101219362D01*
X113726750Y-100647525D01*
X112224750Y-100641509D01*
X112224750Y-101219362D01*
X111226750Y-101219362D01*
X111226750Y-100637512D01*
X109724750Y-100631496D01*
X109724750Y-101219362D01*
X108726750Y-101219362D01*
X108726750Y-100627499D01*
X107224750Y-100621482D01*
X107224750Y-101219362D01*
X106226750Y-101219362D01*
X106226750Y-100617485D01*
X104724750Y-100611469D01*
X104724750Y-101219362D01*
X103726750Y-101219362D01*
X103726750Y-100607472D01*
X102224750Y-100601456D01*
X102224750Y-100967107D01*
X100265985Y-100967107D01*
X100329319Y-100772185D01*
X100362462Y-100562931D01*
X100362462Y-100351069D01*
X100329319Y-100141815D01*
X100263850Y-99940323D01*
X100167667Y-99751552D01*
X100107015Y-99668071D01*
X100105690Y-99666247D01*
X100082210Y-99600441D01*
X100098035Y-99532387D01*
X100148141Y-99483692D01*
X100206499Y-99469364D01*
X136722688Y-99615624D01*
G37*
%TD.AperFunction*%
%TD*%
M02*
