%TF.GenerationSoftware,KiCad,Pcbnew,9.0.1*%
%TF.CreationDate,2025-08-14T16:00:01+05:30*%
%TF.ProjectId,TinySolarSupply,54696e79-536f-46c6-9172-537570706c79,rev?*%
%TF.SameCoordinates,Original*%
%TF.FileFunction,Legend,Bot*%
%TF.FilePolarity,Positive*%
%FSLAX46Y46*%
G04 Gerber Fmt 4.6, Leading zero omitted, Abs format (unit mm)*
G04 Created by KiCad (PCBNEW 9.0.1) date 2025-08-14 16:00:01*
%MOMM*%
%LPD*%
G01*
G04 APERTURE LIST*
%ADD10C,0.100000*%
%ADD11C,0.010000*%
G04 APERTURE END LIST*
D10*
X133490687Y-101189187D02*
X133824020Y-100712996D01*
X134062115Y-101189187D02*
X134062115Y-100189187D01*
X134062115Y-100189187D02*
X133681163Y-100189187D01*
X133681163Y-100189187D02*
X133585925Y-100236806D01*
X133585925Y-100236806D02*
X133538306Y-100284425D01*
X133538306Y-100284425D02*
X133490687Y-100379663D01*
X133490687Y-100379663D02*
X133490687Y-100522520D01*
X133490687Y-100522520D02*
X133538306Y-100617758D01*
X133538306Y-100617758D02*
X133585925Y-100665377D01*
X133585925Y-100665377D02*
X133681163Y-100712996D01*
X133681163Y-100712996D02*
X134062115Y-100712996D01*
X132681163Y-101141568D02*
X132776401Y-101189187D01*
X132776401Y-101189187D02*
X132966877Y-101189187D01*
X132966877Y-101189187D02*
X133062115Y-101141568D01*
X133062115Y-101141568D02*
X133109734Y-101046329D01*
X133109734Y-101046329D02*
X133109734Y-100665377D01*
X133109734Y-100665377D02*
X133062115Y-100570139D01*
X133062115Y-100570139D02*
X132966877Y-100522520D01*
X132966877Y-100522520D02*
X132776401Y-100522520D01*
X132776401Y-100522520D02*
X132681163Y-100570139D01*
X132681163Y-100570139D02*
X132633544Y-100665377D01*
X132633544Y-100665377D02*
X132633544Y-100760615D01*
X132633544Y-100760615D02*
X133109734Y-100855853D01*
X132300210Y-100522520D02*
X132062115Y-101189187D01*
X132062115Y-101189187D02*
X131824020Y-100522520D01*
X130157353Y-101189187D02*
X130728781Y-101189187D01*
X130443067Y-101189187D02*
X130443067Y-100189187D01*
X130443067Y-100189187D02*
X130538305Y-100332044D01*
X130538305Y-100332044D02*
X130633543Y-100427282D01*
X130633543Y-100427282D02*
X130728781Y-100474901D01*
X129728781Y-101093948D02*
X129681162Y-101141568D01*
X129681162Y-101141568D02*
X129728781Y-101189187D01*
X129728781Y-101189187D02*
X129776400Y-101141568D01*
X129776400Y-101141568D02*
X129728781Y-101093948D01*
X129728781Y-101093948D02*
X129728781Y-101189187D01*
X129062115Y-100189187D02*
X128966877Y-100189187D01*
X128966877Y-100189187D02*
X128871639Y-100236806D01*
X128871639Y-100236806D02*
X128824020Y-100284425D01*
X128824020Y-100284425D02*
X128776401Y-100379663D01*
X128776401Y-100379663D02*
X128728782Y-100570139D01*
X128728782Y-100570139D02*
X128728782Y-100808234D01*
X128728782Y-100808234D02*
X128776401Y-100998710D01*
X128776401Y-100998710D02*
X128824020Y-101093948D01*
X128824020Y-101093948D02*
X128871639Y-101141568D01*
X128871639Y-101141568D02*
X128966877Y-101189187D01*
X128966877Y-101189187D02*
X129062115Y-101189187D01*
X129062115Y-101189187D02*
X129157353Y-101141568D01*
X129157353Y-101141568D02*
X129204972Y-101093948D01*
X129204972Y-101093948D02*
X129252591Y-100998710D01*
X129252591Y-100998710D02*
X129300210Y-100808234D01*
X129300210Y-100808234D02*
X129300210Y-100570139D01*
X129300210Y-100570139D02*
X129252591Y-100379663D01*
X129252591Y-100379663D02*
X129204972Y-100284425D01*
X129204972Y-100284425D02*
X129157353Y-100236806D01*
X129157353Y-100236806D02*
X129062115Y-100189187D01*
X134204972Y-101799131D02*
X133633544Y-101799131D01*
X133919258Y-102799131D02*
X133919258Y-101799131D01*
X133300210Y-102799131D02*
X133300210Y-102132464D01*
X133300210Y-101799131D02*
X133347829Y-101846750D01*
X133347829Y-101846750D02*
X133300210Y-101894369D01*
X133300210Y-101894369D02*
X133252591Y-101846750D01*
X133252591Y-101846750D02*
X133300210Y-101799131D01*
X133300210Y-101799131D02*
X133300210Y-101894369D01*
X132824020Y-102132464D02*
X132824020Y-102799131D01*
X132824020Y-102227702D02*
X132776401Y-102180083D01*
X132776401Y-102180083D02*
X132681163Y-102132464D01*
X132681163Y-102132464D02*
X132538306Y-102132464D01*
X132538306Y-102132464D02*
X132443068Y-102180083D01*
X132443068Y-102180083D02*
X132395449Y-102275321D01*
X132395449Y-102275321D02*
X132395449Y-102799131D01*
X132014496Y-102132464D02*
X131776401Y-102799131D01*
X131538306Y-102132464D02*
X131776401Y-102799131D01*
X131776401Y-102799131D02*
X131871639Y-103037226D01*
X131871639Y-103037226D02*
X131919258Y-103084845D01*
X131919258Y-103084845D02*
X132014496Y-103132464D01*
X130443067Y-102751512D02*
X130300210Y-102799131D01*
X130300210Y-102799131D02*
X130062115Y-102799131D01*
X130062115Y-102799131D02*
X129966877Y-102751512D01*
X129966877Y-102751512D02*
X129919258Y-102703892D01*
X129919258Y-102703892D02*
X129871639Y-102608654D01*
X129871639Y-102608654D02*
X129871639Y-102513416D01*
X129871639Y-102513416D02*
X129919258Y-102418178D01*
X129919258Y-102418178D02*
X129966877Y-102370559D01*
X129966877Y-102370559D02*
X130062115Y-102322940D01*
X130062115Y-102322940D02*
X130252591Y-102275321D01*
X130252591Y-102275321D02*
X130347829Y-102227702D01*
X130347829Y-102227702D02*
X130395448Y-102180083D01*
X130395448Y-102180083D02*
X130443067Y-102084845D01*
X130443067Y-102084845D02*
X130443067Y-101989607D01*
X130443067Y-101989607D02*
X130395448Y-101894369D01*
X130395448Y-101894369D02*
X130347829Y-101846750D01*
X130347829Y-101846750D02*
X130252591Y-101799131D01*
X130252591Y-101799131D02*
X130014496Y-101799131D01*
X130014496Y-101799131D02*
X129871639Y-101846750D01*
X129300210Y-102799131D02*
X129395448Y-102751512D01*
X129395448Y-102751512D02*
X129443067Y-102703892D01*
X129443067Y-102703892D02*
X129490686Y-102608654D01*
X129490686Y-102608654D02*
X129490686Y-102322940D01*
X129490686Y-102322940D02*
X129443067Y-102227702D01*
X129443067Y-102227702D02*
X129395448Y-102180083D01*
X129395448Y-102180083D02*
X129300210Y-102132464D01*
X129300210Y-102132464D02*
X129157353Y-102132464D01*
X129157353Y-102132464D02*
X129062115Y-102180083D01*
X129062115Y-102180083D02*
X129014496Y-102227702D01*
X129014496Y-102227702D02*
X128966877Y-102322940D01*
X128966877Y-102322940D02*
X128966877Y-102608654D01*
X128966877Y-102608654D02*
X129014496Y-102703892D01*
X129014496Y-102703892D02*
X129062115Y-102751512D01*
X129062115Y-102751512D02*
X129157353Y-102799131D01*
X129157353Y-102799131D02*
X129300210Y-102799131D01*
X128395448Y-102799131D02*
X128490686Y-102751512D01*
X128490686Y-102751512D02*
X128538305Y-102656273D01*
X128538305Y-102656273D02*
X128538305Y-101799131D01*
X127585924Y-102799131D02*
X127585924Y-102275321D01*
X127585924Y-102275321D02*
X127633543Y-102180083D01*
X127633543Y-102180083D02*
X127728781Y-102132464D01*
X127728781Y-102132464D02*
X127919257Y-102132464D01*
X127919257Y-102132464D02*
X128014495Y-102180083D01*
X127585924Y-102751512D02*
X127681162Y-102799131D01*
X127681162Y-102799131D02*
X127919257Y-102799131D01*
X127919257Y-102799131D02*
X128014495Y-102751512D01*
X128014495Y-102751512D02*
X128062114Y-102656273D01*
X128062114Y-102656273D02*
X128062114Y-102561035D01*
X128062114Y-102561035D02*
X128014495Y-102465797D01*
X128014495Y-102465797D02*
X127919257Y-102418178D01*
X127919257Y-102418178D02*
X127681162Y-102418178D01*
X127681162Y-102418178D02*
X127585924Y-102370559D01*
X127109733Y-102799131D02*
X127109733Y-102132464D01*
X127109733Y-102322940D02*
X127062114Y-102227702D01*
X127062114Y-102227702D02*
X127014495Y-102180083D01*
X127014495Y-102180083D02*
X126919257Y-102132464D01*
X126919257Y-102132464D02*
X126824019Y-102132464D01*
X125728780Y-102799131D02*
X125728780Y-101799131D01*
X125728780Y-101799131D02*
X125347828Y-101799131D01*
X125347828Y-101799131D02*
X125252590Y-101846750D01*
X125252590Y-101846750D02*
X125204971Y-101894369D01*
X125204971Y-101894369D02*
X125157352Y-101989607D01*
X125157352Y-101989607D02*
X125157352Y-102132464D01*
X125157352Y-102132464D02*
X125204971Y-102227702D01*
X125204971Y-102227702D02*
X125252590Y-102275321D01*
X125252590Y-102275321D02*
X125347828Y-102322940D01*
X125347828Y-102322940D02*
X125728780Y-102322940D01*
X124585923Y-102799131D02*
X124681161Y-102751512D01*
X124681161Y-102751512D02*
X124728780Y-102703892D01*
X124728780Y-102703892D02*
X124776399Y-102608654D01*
X124776399Y-102608654D02*
X124776399Y-102322940D01*
X124776399Y-102322940D02*
X124728780Y-102227702D01*
X124728780Y-102227702D02*
X124681161Y-102180083D01*
X124681161Y-102180083D02*
X124585923Y-102132464D01*
X124585923Y-102132464D02*
X124443066Y-102132464D01*
X124443066Y-102132464D02*
X124347828Y-102180083D01*
X124347828Y-102180083D02*
X124300209Y-102227702D01*
X124300209Y-102227702D02*
X124252590Y-102322940D01*
X124252590Y-102322940D02*
X124252590Y-102608654D01*
X124252590Y-102608654D02*
X124300209Y-102703892D01*
X124300209Y-102703892D02*
X124347828Y-102751512D01*
X124347828Y-102751512D02*
X124443066Y-102799131D01*
X124443066Y-102799131D02*
X124585923Y-102799131D01*
X123919256Y-102132464D02*
X123728780Y-102799131D01*
X123728780Y-102799131D02*
X123538304Y-102322940D01*
X123538304Y-102322940D02*
X123347828Y-102799131D01*
X123347828Y-102799131D02*
X123157352Y-102132464D01*
X122395447Y-102751512D02*
X122490685Y-102799131D01*
X122490685Y-102799131D02*
X122681161Y-102799131D01*
X122681161Y-102799131D02*
X122776399Y-102751512D01*
X122776399Y-102751512D02*
X122824018Y-102656273D01*
X122824018Y-102656273D02*
X122824018Y-102275321D01*
X122824018Y-102275321D02*
X122776399Y-102180083D01*
X122776399Y-102180083D02*
X122681161Y-102132464D01*
X122681161Y-102132464D02*
X122490685Y-102132464D01*
X122490685Y-102132464D02*
X122395447Y-102180083D01*
X122395447Y-102180083D02*
X122347828Y-102275321D01*
X122347828Y-102275321D02*
X122347828Y-102370559D01*
X122347828Y-102370559D02*
X122824018Y-102465797D01*
X121919256Y-102799131D02*
X121919256Y-102132464D01*
X121919256Y-102322940D02*
X121871637Y-102227702D01*
X121871637Y-102227702D02*
X121824018Y-102180083D01*
X121824018Y-102180083D02*
X121728780Y-102132464D01*
X121728780Y-102132464D02*
X121633542Y-102132464D01*
X120585922Y-102751512D02*
X120443065Y-102799131D01*
X120443065Y-102799131D02*
X120204970Y-102799131D01*
X120204970Y-102799131D02*
X120109732Y-102751512D01*
X120109732Y-102751512D02*
X120062113Y-102703892D01*
X120062113Y-102703892D02*
X120014494Y-102608654D01*
X120014494Y-102608654D02*
X120014494Y-102513416D01*
X120014494Y-102513416D02*
X120062113Y-102418178D01*
X120062113Y-102418178D02*
X120109732Y-102370559D01*
X120109732Y-102370559D02*
X120204970Y-102322940D01*
X120204970Y-102322940D02*
X120395446Y-102275321D01*
X120395446Y-102275321D02*
X120490684Y-102227702D01*
X120490684Y-102227702D02*
X120538303Y-102180083D01*
X120538303Y-102180083D02*
X120585922Y-102084845D01*
X120585922Y-102084845D02*
X120585922Y-101989607D01*
X120585922Y-101989607D02*
X120538303Y-101894369D01*
X120538303Y-101894369D02*
X120490684Y-101846750D01*
X120490684Y-101846750D02*
X120395446Y-101799131D01*
X120395446Y-101799131D02*
X120157351Y-101799131D01*
X120157351Y-101799131D02*
X120014494Y-101846750D01*
X119157351Y-102132464D02*
X119157351Y-102799131D01*
X119585922Y-102132464D02*
X119585922Y-102656273D01*
X119585922Y-102656273D02*
X119538303Y-102751512D01*
X119538303Y-102751512D02*
X119443065Y-102799131D01*
X119443065Y-102799131D02*
X119300208Y-102799131D01*
X119300208Y-102799131D02*
X119204970Y-102751512D01*
X119204970Y-102751512D02*
X119157351Y-102703892D01*
X118681160Y-102132464D02*
X118681160Y-103132464D01*
X118681160Y-102180083D02*
X118585922Y-102132464D01*
X118585922Y-102132464D02*
X118395446Y-102132464D01*
X118395446Y-102132464D02*
X118300208Y-102180083D01*
X118300208Y-102180083D02*
X118252589Y-102227702D01*
X118252589Y-102227702D02*
X118204970Y-102322940D01*
X118204970Y-102322940D02*
X118204970Y-102608654D01*
X118204970Y-102608654D02*
X118252589Y-102703892D01*
X118252589Y-102703892D02*
X118300208Y-102751512D01*
X118300208Y-102751512D02*
X118395446Y-102799131D01*
X118395446Y-102799131D02*
X118585922Y-102799131D01*
X118585922Y-102799131D02*
X118681160Y-102751512D01*
X117776398Y-102132464D02*
X117776398Y-103132464D01*
X117776398Y-102180083D02*
X117681160Y-102132464D01*
X117681160Y-102132464D02*
X117490684Y-102132464D01*
X117490684Y-102132464D02*
X117395446Y-102180083D01*
X117395446Y-102180083D02*
X117347827Y-102227702D01*
X117347827Y-102227702D02*
X117300208Y-102322940D01*
X117300208Y-102322940D02*
X117300208Y-102608654D01*
X117300208Y-102608654D02*
X117347827Y-102703892D01*
X117347827Y-102703892D02*
X117395446Y-102751512D01*
X117395446Y-102751512D02*
X117490684Y-102799131D01*
X117490684Y-102799131D02*
X117681160Y-102799131D01*
X117681160Y-102799131D02*
X117776398Y-102751512D01*
X116728779Y-102799131D02*
X116824017Y-102751512D01*
X116824017Y-102751512D02*
X116871636Y-102656273D01*
X116871636Y-102656273D02*
X116871636Y-101799131D01*
X116443064Y-102132464D02*
X116204969Y-102799131D01*
X115966874Y-102132464D02*
X116204969Y-102799131D01*
X116204969Y-102799131D02*
X116300207Y-103037226D01*
X116300207Y-103037226D02*
X116347826Y-103084845D01*
X116347826Y-103084845D02*
X116443064Y-103132464D01*
X133490687Y-104313836D02*
X133538306Y-104361456D01*
X133538306Y-104361456D02*
X133681163Y-104409075D01*
X133681163Y-104409075D02*
X133776401Y-104409075D01*
X133776401Y-104409075D02*
X133919258Y-104361456D01*
X133919258Y-104361456D02*
X134014496Y-104266217D01*
X134014496Y-104266217D02*
X134062115Y-104170979D01*
X134062115Y-104170979D02*
X134109734Y-103980503D01*
X134109734Y-103980503D02*
X134109734Y-103837646D01*
X134109734Y-103837646D02*
X134062115Y-103647170D01*
X134062115Y-103647170D02*
X134014496Y-103551932D01*
X134014496Y-103551932D02*
X133919258Y-103456694D01*
X133919258Y-103456694D02*
X133776401Y-103409075D01*
X133776401Y-103409075D02*
X133681163Y-103409075D01*
X133681163Y-103409075D02*
X133538306Y-103456694D01*
X133538306Y-103456694D02*
X133490687Y-103504313D01*
X133062115Y-104409075D02*
X133062115Y-103742408D01*
X133062115Y-103932884D02*
X133014496Y-103837646D01*
X133014496Y-103837646D02*
X132966877Y-103790027D01*
X132966877Y-103790027D02*
X132871639Y-103742408D01*
X132871639Y-103742408D02*
X132776401Y-103742408D01*
X132062115Y-104361456D02*
X132157353Y-104409075D01*
X132157353Y-104409075D02*
X132347829Y-104409075D01*
X132347829Y-104409075D02*
X132443067Y-104361456D01*
X132443067Y-104361456D02*
X132490686Y-104266217D01*
X132490686Y-104266217D02*
X132490686Y-103885265D01*
X132490686Y-103885265D02*
X132443067Y-103790027D01*
X132443067Y-103790027D02*
X132347829Y-103742408D01*
X132347829Y-103742408D02*
X132157353Y-103742408D01*
X132157353Y-103742408D02*
X132062115Y-103790027D01*
X132062115Y-103790027D02*
X132014496Y-103885265D01*
X132014496Y-103885265D02*
X132014496Y-103980503D01*
X132014496Y-103980503D02*
X132490686Y-104075741D01*
X131157353Y-104409075D02*
X131157353Y-103885265D01*
X131157353Y-103885265D02*
X131204972Y-103790027D01*
X131204972Y-103790027D02*
X131300210Y-103742408D01*
X131300210Y-103742408D02*
X131490686Y-103742408D01*
X131490686Y-103742408D02*
X131585924Y-103790027D01*
X131157353Y-104361456D02*
X131252591Y-104409075D01*
X131252591Y-104409075D02*
X131490686Y-104409075D01*
X131490686Y-104409075D02*
X131585924Y-104361456D01*
X131585924Y-104361456D02*
X131633543Y-104266217D01*
X131633543Y-104266217D02*
X131633543Y-104170979D01*
X131633543Y-104170979D02*
X131585924Y-104075741D01*
X131585924Y-104075741D02*
X131490686Y-104028122D01*
X131490686Y-104028122D02*
X131252591Y-104028122D01*
X131252591Y-104028122D02*
X131157353Y-103980503D01*
X130824019Y-103742408D02*
X130443067Y-103742408D01*
X130681162Y-103409075D02*
X130681162Y-104266217D01*
X130681162Y-104266217D02*
X130633543Y-104361456D01*
X130633543Y-104361456D02*
X130538305Y-104409075D01*
X130538305Y-104409075D02*
X130443067Y-104409075D01*
X129728781Y-104361456D02*
X129824019Y-104409075D01*
X129824019Y-104409075D02*
X130014495Y-104409075D01*
X130014495Y-104409075D02*
X130109733Y-104361456D01*
X130109733Y-104361456D02*
X130157352Y-104266217D01*
X130157352Y-104266217D02*
X130157352Y-103885265D01*
X130157352Y-103885265D02*
X130109733Y-103790027D01*
X130109733Y-103790027D02*
X130014495Y-103742408D01*
X130014495Y-103742408D02*
X129824019Y-103742408D01*
X129824019Y-103742408D02*
X129728781Y-103790027D01*
X129728781Y-103790027D02*
X129681162Y-103885265D01*
X129681162Y-103885265D02*
X129681162Y-103980503D01*
X129681162Y-103980503D02*
X130157352Y-104075741D01*
X128824019Y-104409075D02*
X128824019Y-103409075D01*
X128824019Y-104361456D02*
X128919257Y-104409075D01*
X128919257Y-104409075D02*
X129109733Y-104409075D01*
X129109733Y-104409075D02*
X129204971Y-104361456D01*
X129204971Y-104361456D02*
X129252590Y-104313836D01*
X129252590Y-104313836D02*
X129300209Y-104218598D01*
X129300209Y-104218598D02*
X129300209Y-103932884D01*
X129300209Y-103932884D02*
X129252590Y-103837646D01*
X129252590Y-103837646D02*
X129204971Y-103790027D01*
X129204971Y-103790027D02*
X129109733Y-103742408D01*
X129109733Y-103742408D02*
X128919257Y-103742408D01*
X128919257Y-103742408D02*
X128824019Y-103790027D01*
X127585923Y-104409075D02*
X127585923Y-103409075D01*
X127585923Y-103790027D02*
X127490685Y-103742408D01*
X127490685Y-103742408D02*
X127300209Y-103742408D01*
X127300209Y-103742408D02*
X127204971Y-103790027D01*
X127204971Y-103790027D02*
X127157352Y-103837646D01*
X127157352Y-103837646D02*
X127109733Y-103932884D01*
X127109733Y-103932884D02*
X127109733Y-104218598D01*
X127109733Y-104218598D02*
X127157352Y-104313836D01*
X127157352Y-104313836D02*
X127204971Y-104361456D01*
X127204971Y-104361456D02*
X127300209Y-104409075D01*
X127300209Y-104409075D02*
X127490685Y-104409075D01*
X127490685Y-104409075D02*
X127585923Y-104361456D01*
X126776399Y-103742408D02*
X126538304Y-104409075D01*
X126300209Y-103742408D02*
X126538304Y-104409075D01*
X126538304Y-104409075D02*
X126633542Y-104647170D01*
X126633542Y-104647170D02*
X126681161Y-104694789D01*
X126681161Y-104694789D02*
X126776399Y-104742408D01*
X124585923Y-104313836D02*
X124633542Y-104361456D01*
X124633542Y-104361456D02*
X124776399Y-104409075D01*
X124776399Y-104409075D02*
X124871637Y-104409075D01*
X124871637Y-104409075D02*
X125014494Y-104361456D01*
X125014494Y-104361456D02*
X125109732Y-104266217D01*
X125109732Y-104266217D02*
X125157351Y-104170979D01*
X125157351Y-104170979D02*
X125204970Y-103980503D01*
X125204970Y-103980503D02*
X125204970Y-103837646D01*
X125204970Y-103837646D02*
X125157351Y-103647170D01*
X125157351Y-103647170D02*
X125109732Y-103551932D01*
X125109732Y-103551932D02*
X125014494Y-103456694D01*
X125014494Y-103456694D02*
X124871637Y-103409075D01*
X124871637Y-103409075D02*
X124776399Y-103409075D01*
X124776399Y-103409075D02*
X124633542Y-103456694D01*
X124633542Y-103456694D02*
X124585923Y-103504313D01*
X124014494Y-104409075D02*
X124109732Y-104361456D01*
X124109732Y-104361456D02*
X124157351Y-104266217D01*
X124157351Y-104266217D02*
X124157351Y-103409075D01*
X123252589Y-104361456D02*
X123347827Y-104409075D01*
X123347827Y-104409075D02*
X123538303Y-104409075D01*
X123538303Y-104409075D02*
X123633541Y-104361456D01*
X123633541Y-104361456D02*
X123681160Y-104266217D01*
X123681160Y-104266217D02*
X123681160Y-103885265D01*
X123681160Y-103885265D02*
X123633541Y-103790027D01*
X123633541Y-103790027D02*
X123538303Y-103742408D01*
X123538303Y-103742408D02*
X123347827Y-103742408D01*
X123347827Y-103742408D02*
X123252589Y-103790027D01*
X123252589Y-103790027D02*
X123204970Y-103885265D01*
X123204970Y-103885265D02*
X123204970Y-103980503D01*
X123204970Y-103980503D02*
X123681160Y-104075741D01*
X122776398Y-104409075D02*
X122776398Y-103742408D01*
X122776398Y-103837646D02*
X122728779Y-103790027D01*
X122728779Y-103790027D02*
X122633541Y-103742408D01*
X122633541Y-103742408D02*
X122490684Y-103742408D01*
X122490684Y-103742408D02*
X122395446Y-103790027D01*
X122395446Y-103790027D02*
X122347827Y-103885265D01*
X122347827Y-103885265D02*
X122347827Y-104409075D01*
X122347827Y-103885265D02*
X122300208Y-103790027D01*
X122300208Y-103790027D02*
X122204970Y-103742408D01*
X122204970Y-103742408D02*
X122062113Y-103742408D01*
X122062113Y-103742408D02*
X121966874Y-103790027D01*
X121966874Y-103790027D02*
X121919255Y-103885265D01*
X121919255Y-103885265D02*
X121919255Y-104409075D01*
X121062113Y-104361456D02*
X121157351Y-104409075D01*
X121157351Y-104409075D02*
X121347827Y-104409075D01*
X121347827Y-104409075D02*
X121443065Y-104361456D01*
X121443065Y-104361456D02*
X121490684Y-104266217D01*
X121490684Y-104266217D02*
X121490684Y-103885265D01*
X121490684Y-103885265D02*
X121443065Y-103790027D01*
X121443065Y-103790027D02*
X121347827Y-103742408D01*
X121347827Y-103742408D02*
X121157351Y-103742408D01*
X121157351Y-103742408D02*
X121062113Y-103790027D01*
X121062113Y-103790027D02*
X121014494Y-103885265D01*
X121014494Y-103885265D02*
X121014494Y-103980503D01*
X121014494Y-103980503D02*
X121490684Y-104075741D01*
X120585922Y-103742408D02*
X120585922Y-104409075D01*
X120585922Y-103837646D02*
X120538303Y-103790027D01*
X120538303Y-103790027D02*
X120443065Y-103742408D01*
X120443065Y-103742408D02*
X120300208Y-103742408D01*
X120300208Y-103742408D02*
X120204970Y-103790027D01*
X120204970Y-103790027D02*
X120157351Y-103885265D01*
X120157351Y-103885265D02*
X120157351Y-104409075D01*
X119728779Y-104361456D02*
X119633541Y-104409075D01*
X119633541Y-104409075D02*
X119443065Y-104409075D01*
X119443065Y-104409075D02*
X119347827Y-104361456D01*
X119347827Y-104361456D02*
X119300208Y-104266217D01*
X119300208Y-104266217D02*
X119300208Y-104218598D01*
X119300208Y-104218598D02*
X119347827Y-104123360D01*
X119347827Y-104123360D02*
X119443065Y-104075741D01*
X119443065Y-104075741D02*
X119585922Y-104075741D01*
X119585922Y-104075741D02*
X119681160Y-104028122D01*
X119681160Y-104028122D02*
X119728779Y-103932884D01*
X119728779Y-103932884D02*
X119728779Y-103885265D01*
X119728779Y-103885265D02*
X119681160Y-103790027D01*
X119681160Y-103790027D02*
X119585922Y-103742408D01*
X119585922Y-103742408D02*
X119443065Y-103742408D01*
X119443065Y-103742408D02*
X119347827Y-103790027D01*
X118252588Y-103409075D02*
X117919255Y-104409075D01*
X117919255Y-104409075D02*
X117585922Y-103409075D01*
X116824017Y-104409075D02*
X116824017Y-103885265D01*
X116824017Y-103885265D02*
X116871636Y-103790027D01*
X116871636Y-103790027D02*
X116966874Y-103742408D01*
X116966874Y-103742408D02*
X117157350Y-103742408D01*
X117157350Y-103742408D02*
X117252588Y-103790027D01*
X116824017Y-104361456D02*
X116919255Y-104409075D01*
X116919255Y-104409075D02*
X117157350Y-104409075D01*
X117157350Y-104409075D02*
X117252588Y-104361456D01*
X117252588Y-104361456D02*
X117300207Y-104266217D01*
X117300207Y-104266217D02*
X117300207Y-104170979D01*
X117300207Y-104170979D02*
X117252588Y-104075741D01*
X117252588Y-104075741D02*
X117157350Y-104028122D01*
X117157350Y-104028122D02*
X116919255Y-104028122D01*
X116919255Y-104028122D02*
X116824017Y-103980503D01*
X116204969Y-104409075D02*
X116300207Y-104361456D01*
X116300207Y-104361456D02*
X116347826Y-104266217D01*
X116347826Y-104266217D02*
X116347826Y-103409075D01*
X115443064Y-104361456D02*
X115538302Y-104409075D01*
X115538302Y-104409075D02*
X115728778Y-104409075D01*
X115728778Y-104409075D02*
X115824016Y-104361456D01*
X115824016Y-104361456D02*
X115871635Y-104266217D01*
X115871635Y-104266217D02*
X115871635Y-103885265D01*
X115871635Y-103885265D02*
X115824016Y-103790027D01*
X115824016Y-103790027D02*
X115728778Y-103742408D01*
X115728778Y-103742408D02*
X115538302Y-103742408D01*
X115538302Y-103742408D02*
X115443064Y-103790027D01*
X115443064Y-103790027D02*
X115395445Y-103885265D01*
X115395445Y-103885265D02*
X115395445Y-103980503D01*
X115395445Y-103980503D02*
X115871635Y-104075741D01*
X114966873Y-103742408D02*
X114966873Y-104409075D01*
X114966873Y-103837646D02*
X114919254Y-103790027D01*
X114919254Y-103790027D02*
X114824016Y-103742408D01*
X114824016Y-103742408D02*
X114681159Y-103742408D01*
X114681159Y-103742408D02*
X114585921Y-103790027D01*
X114585921Y-103790027D02*
X114538302Y-103885265D01*
X114538302Y-103885265D02*
X114538302Y-104409075D01*
X114109730Y-104361456D02*
X114014492Y-104409075D01*
X114014492Y-104409075D02*
X113824016Y-104409075D01*
X113824016Y-104409075D02*
X113728778Y-104361456D01*
X113728778Y-104361456D02*
X113681159Y-104266217D01*
X113681159Y-104266217D02*
X113681159Y-104218598D01*
X113681159Y-104218598D02*
X113728778Y-104123360D01*
X113728778Y-104123360D02*
X113824016Y-104075741D01*
X113824016Y-104075741D02*
X113966873Y-104075741D01*
X113966873Y-104075741D02*
X114062111Y-104028122D01*
X114062111Y-104028122D02*
X114109730Y-103932884D01*
X114109730Y-103932884D02*
X114109730Y-103885265D01*
X114109730Y-103885265D02*
X114062111Y-103790027D01*
X114062111Y-103790027D02*
X113966873Y-103742408D01*
X113966873Y-103742408D02*
X113824016Y-103742408D01*
X113824016Y-103742408D02*
X113728778Y-103790027D01*
X134204972Y-105352352D02*
X133824020Y-105352352D01*
X134062115Y-106019019D02*
X134062115Y-105161876D01*
X134062115Y-105161876D02*
X134014496Y-105066638D01*
X134014496Y-105066638D02*
X133919258Y-105019019D01*
X133919258Y-105019019D02*
X133824020Y-105019019D01*
X133347829Y-106019019D02*
X133443067Y-105971400D01*
X133443067Y-105971400D02*
X133490686Y-105923780D01*
X133490686Y-105923780D02*
X133538305Y-105828542D01*
X133538305Y-105828542D02*
X133538305Y-105542828D01*
X133538305Y-105542828D02*
X133490686Y-105447590D01*
X133490686Y-105447590D02*
X133443067Y-105399971D01*
X133443067Y-105399971D02*
X133347829Y-105352352D01*
X133347829Y-105352352D02*
X133204972Y-105352352D01*
X133204972Y-105352352D02*
X133109734Y-105399971D01*
X133109734Y-105399971D02*
X133062115Y-105447590D01*
X133062115Y-105447590D02*
X133014496Y-105542828D01*
X133014496Y-105542828D02*
X133014496Y-105828542D01*
X133014496Y-105828542D02*
X133062115Y-105923780D01*
X133062115Y-105923780D02*
X133109734Y-105971400D01*
X133109734Y-105971400D02*
X133204972Y-106019019D01*
X133204972Y-106019019D02*
X133347829Y-106019019D01*
X132585924Y-106019019D02*
X132585924Y-105352352D01*
X132585924Y-105542828D02*
X132538305Y-105447590D01*
X132538305Y-105447590D02*
X132490686Y-105399971D01*
X132490686Y-105399971D02*
X132395448Y-105352352D01*
X132395448Y-105352352D02*
X132300210Y-105352352D01*
X131204971Y-105495209D02*
X130871638Y-105495209D01*
X130728781Y-106019019D02*
X131204971Y-106019019D01*
X131204971Y-106019019D02*
X131204971Y-105019019D01*
X131204971Y-105019019D02*
X130728781Y-105019019D01*
X130157352Y-106019019D02*
X130252590Y-105971400D01*
X130252590Y-105971400D02*
X130300209Y-105876161D01*
X130300209Y-105876161D02*
X130300209Y-105019019D01*
X129395447Y-105971400D02*
X129490685Y-106019019D01*
X129490685Y-106019019D02*
X129681161Y-106019019D01*
X129681161Y-106019019D02*
X129776399Y-105971400D01*
X129776399Y-105971400D02*
X129824018Y-105876161D01*
X129824018Y-105876161D02*
X129824018Y-105495209D01*
X129824018Y-105495209D02*
X129776399Y-105399971D01*
X129776399Y-105399971D02*
X129681161Y-105352352D01*
X129681161Y-105352352D02*
X129490685Y-105352352D01*
X129490685Y-105352352D02*
X129395447Y-105399971D01*
X129395447Y-105399971D02*
X129347828Y-105495209D01*
X129347828Y-105495209D02*
X129347828Y-105590447D01*
X129347828Y-105590447D02*
X129824018Y-105685685D01*
X128919256Y-106019019D02*
X128919256Y-105019019D01*
X128824018Y-105638066D02*
X128538304Y-106019019D01*
X128538304Y-105352352D02*
X128919256Y-105733304D01*
X128252589Y-105352352D02*
X127871637Y-105352352D01*
X128109732Y-105019019D02*
X128109732Y-105876161D01*
X128109732Y-105876161D02*
X128062113Y-105971400D01*
X128062113Y-105971400D02*
X127966875Y-106019019D01*
X127966875Y-106019019D02*
X127871637Y-106019019D01*
X127395446Y-106019019D02*
X127490684Y-105971400D01*
X127490684Y-105971400D02*
X127538303Y-105923780D01*
X127538303Y-105923780D02*
X127585922Y-105828542D01*
X127585922Y-105828542D02*
X127585922Y-105542828D01*
X127585922Y-105542828D02*
X127538303Y-105447590D01*
X127538303Y-105447590D02*
X127490684Y-105399971D01*
X127490684Y-105399971D02*
X127395446Y-105352352D01*
X127395446Y-105352352D02*
X127252589Y-105352352D01*
X127252589Y-105352352D02*
X127157351Y-105399971D01*
X127157351Y-105399971D02*
X127109732Y-105447590D01*
X127109732Y-105447590D02*
X127062113Y-105542828D01*
X127062113Y-105542828D02*
X127062113Y-105828542D01*
X127062113Y-105828542D02*
X127109732Y-105923780D01*
X127109732Y-105923780D02*
X127157351Y-105971400D01*
X127157351Y-105971400D02*
X127252589Y-106019019D01*
X127252589Y-106019019D02*
X127395446Y-106019019D01*
X126633541Y-106019019D02*
X126633541Y-105352352D01*
X126633541Y-105542828D02*
X126585922Y-105447590D01*
X126585922Y-105447590D02*
X126538303Y-105399971D01*
X126538303Y-105399971D02*
X126443065Y-105352352D01*
X126443065Y-105352352D02*
X126347827Y-105352352D01*
D11*
%TO.C,REF\u002A\u002A*%
X109647406Y-115736749D02*
X109673127Y-115752447D01*
X109699778Y-115774027D01*
X109699778Y-116421484D01*
X109673127Y-116443064D01*
X109641767Y-116460539D01*
X109605966Y-116461375D01*
X109574528Y-116440882D01*
X109570652Y-116436216D01*
X109565186Y-116426749D01*
X109560979Y-116413067D01*
X109557867Y-116392548D01*
X109555687Y-116362568D01*
X109554276Y-116320504D01*
X109553471Y-116263732D01*
X109553107Y-116189630D01*
X109553022Y-116095573D01*
X109553022Y-115774027D01*
X109579673Y-115752447D01*
X109603386Y-115737677D01*
X109626400Y-115730867D01*
X109647406Y-115736749D01*
G36*
X109647406Y-115736749D02*
G01*
X109673127Y-115752447D01*
X109699778Y-115774027D01*
X109699778Y-116421484D01*
X109673127Y-116443064D01*
X109641767Y-116460539D01*
X109605966Y-116461375D01*
X109574528Y-116440882D01*
X109570652Y-116436216D01*
X109565186Y-116426749D01*
X109560979Y-116413067D01*
X109557867Y-116392548D01*
X109555687Y-116362568D01*
X109554276Y-116320504D01*
X109553471Y-116263732D01*
X109553107Y-116189630D01*
X109553022Y-116095573D01*
X109553022Y-115774027D01*
X109579673Y-115752447D01*
X109603386Y-115737677D01*
X109626400Y-115730867D01*
X109647406Y-115736749D01*
G37*
X116778137Y-115735263D02*
X116812291Y-115758576D01*
X116840000Y-115786285D01*
X116840000Y-116099337D01*
X116839959Y-116183367D01*
X116839701Y-116257589D01*
X116839030Y-116314341D01*
X116837752Y-116356312D01*
X116835673Y-116386189D01*
X116832599Y-116406661D01*
X116828334Y-116420414D01*
X116822684Y-116430137D01*
X116815455Y-116438517D01*
X116783991Y-116459981D01*
X116748826Y-116461747D01*
X116715822Y-116442067D01*
X116710516Y-116436198D01*
X116705066Y-116427114D01*
X116700900Y-116413773D01*
X116697846Y-116393557D01*
X116695732Y-116363849D01*
X116694386Y-116322032D01*
X116693638Y-116265489D01*
X116693314Y-116191602D01*
X116693245Y-116097756D01*
X116693284Y-116022094D01*
X116693539Y-115944185D01*
X116694183Y-115884175D01*
X116695387Y-115839448D01*
X116697324Y-115807385D01*
X116700164Y-115785371D01*
X116704079Y-115770787D01*
X116709242Y-115761018D01*
X116715822Y-115753445D01*
X116745006Y-115734423D01*
X116778137Y-115735263D01*
G36*
X116778137Y-115735263D02*
G01*
X116812291Y-115758576D01*
X116840000Y-115786285D01*
X116840000Y-116099337D01*
X116839959Y-116183367D01*
X116839701Y-116257589D01*
X116839030Y-116314341D01*
X116837752Y-116356312D01*
X116835673Y-116386189D01*
X116832599Y-116406661D01*
X116828334Y-116420414D01*
X116822684Y-116430137D01*
X116815455Y-116438517D01*
X116783991Y-116459981D01*
X116748826Y-116461747D01*
X116715822Y-116442067D01*
X116710516Y-116436198D01*
X116705066Y-116427114D01*
X116700900Y-116413773D01*
X116697846Y-116393557D01*
X116695732Y-116363849D01*
X116694386Y-116322032D01*
X116693638Y-116265489D01*
X116693314Y-116191602D01*
X116693245Y-116097756D01*
X116693284Y-116022094D01*
X116693539Y-115944185D01*
X116694183Y-115884175D01*
X116695387Y-115839448D01*
X116697324Y-115807385D01*
X116700164Y-115785371D01*
X116704079Y-115770787D01*
X116709242Y-115761018D01*
X116715822Y-115753445D01*
X116745006Y-115734423D01*
X116778137Y-115735263D01*
G37*
X116246562Y-110494650D02*
X116329313Y-110521853D01*
X116404406Y-110567284D01*
X116476298Y-110633102D01*
X116514846Y-110677367D01*
X116554256Y-110735761D01*
X116579446Y-110796386D01*
X116592861Y-110865665D01*
X116596948Y-110950022D01*
X116596669Y-110996107D01*
X116594460Y-111037250D01*
X116588894Y-111069382D01*
X116578586Y-111099922D01*
X116562148Y-111136289D01*
X116548200Y-111163528D01*
X116489665Y-111249229D01*
X116417619Y-111318417D01*
X116333947Y-111369541D01*
X116240531Y-111401050D01*
X116207434Y-111408025D01*
X116166960Y-111414894D01*
X116133999Y-111416719D01*
X116099698Y-111413747D01*
X116055200Y-111406226D01*
X116003934Y-111393802D01*
X115913434Y-111355912D01*
X115834345Y-111301636D01*
X115768528Y-111233570D01*
X115717840Y-111154311D01*
X115684140Y-111066454D01*
X115669286Y-110972595D01*
X115675136Y-110875330D01*
X115701399Y-110779020D01*
X115746418Y-110690294D01*
X115807373Y-110615219D01*
X115882184Y-110555441D01*
X115968768Y-110512609D01*
X116065043Y-110488371D01*
X116168928Y-110484376D01*
X116246562Y-110494650D01*
G36*
X116246562Y-110494650D02*
G01*
X116329313Y-110521853D01*
X116404406Y-110567284D01*
X116476298Y-110633102D01*
X116514846Y-110677367D01*
X116554256Y-110735761D01*
X116579446Y-110796386D01*
X116592861Y-110865665D01*
X116596948Y-110950022D01*
X116596669Y-110996107D01*
X116594460Y-111037250D01*
X116588894Y-111069382D01*
X116578586Y-111099922D01*
X116562148Y-111136289D01*
X116548200Y-111163528D01*
X116489665Y-111249229D01*
X116417619Y-111318417D01*
X116333947Y-111369541D01*
X116240531Y-111401050D01*
X116207434Y-111408025D01*
X116166960Y-111414894D01*
X116133999Y-111416719D01*
X116099698Y-111413747D01*
X116055200Y-111406226D01*
X116003934Y-111393802D01*
X115913434Y-111355912D01*
X115834345Y-111301636D01*
X115768528Y-111233570D01*
X115717840Y-111154311D01*
X115684140Y-111066454D01*
X115669286Y-110972595D01*
X115675136Y-110875330D01*
X115701399Y-110779020D01*
X115746418Y-110690294D01*
X115807373Y-110615219D01*
X115882184Y-110555441D01*
X115968768Y-110512609D01*
X116065043Y-110488371D01*
X116168928Y-110484376D01*
X116246562Y-110494650D01*
G37*
X108947767Y-115730868D02*
X109041890Y-115730958D01*
X109116405Y-115731298D01*
X109173811Y-115732039D01*
X109216611Y-115733335D01*
X109247304Y-115735337D01*
X109268391Y-115738196D01*
X109282373Y-115742066D01*
X109291750Y-115747098D01*
X109299022Y-115753445D01*
X109317828Y-115786162D01*
X109319275Y-115823739D01*
X109302917Y-115856978D01*
X109301557Y-115858431D01*
X109290354Y-115866792D01*
X109273252Y-115872347D01*
X109246082Y-115875640D01*
X109204678Y-115877218D01*
X109144873Y-115877622D01*
X109005511Y-115877622D01*
X109005511Y-116141389D01*
X109005436Y-116217217D01*
X109005028Y-116283883D01*
X109004046Y-116333667D01*
X109002250Y-116369584D01*
X108999399Y-116394650D01*
X108995253Y-116411881D01*
X108989571Y-116424292D01*
X108982114Y-116434900D01*
X108979824Y-116437706D01*
X108948646Y-116460348D01*
X108914266Y-116461912D01*
X108881334Y-116442067D01*
X108874355Y-116433991D01*
X108868883Y-116423393D01*
X108864863Y-116407549D01*
X108862072Y-116383573D01*
X108860288Y-116348574D01*
X108859289Y-116299664D01*
X108858852Y-116233954D01*
X108858756Y-116148556D01*
X108858756Y-115877622D01*
X108712820Y-115877622D01*
X108701720Y-115877621D01*
X108645202Y-115877396D01*
X108606358Y-115876257D01*
X108580965Y-115873457D01*
X108564804Y-115868250D01*
X108553652Y-115859889D01*
X108543289Y-115847626D01*
X108527441Y-115816938D01*
X108530543Y-115783158D01*
X108556187Y-115750622D01*
X108561129Y-115746905D01*
X108571338Y-115742069D01*
X108586764Y-115738306D01*
X108609886Y-115735483D01*
X108643183Y-115733470D01*
X108689137Y-115732133D01*
X108750228Y-115731342D01*
X108828935Y-115730963D01*
X108927740Y-115730867D01*
X108947767Y-115730868D01*
G36*
X108947767Y-115730868D02*
G01*
X109041890Y-115730958D01*
X109116405Y-115731298D01*
X109173811Y-115732039D01*
X109216611Y-115733335D01*
X109247304Y-115735337D01*
X109268391Y-115738196D01*
X109282373Y-115742066D01*
X109291750Y-115747098D01*
X109299022Y-115753445D01*
X109317828Y-115786162D01*
X109319275Y-115823739D01*
X109302917Y-115856978D01*
X109301557Y-115858431D01*
X109290354Y-115866792D01*
X109273252Y-115872347D01*
X109246082Y-115875640D01*
X109204678Y-115877218D01*
X109144873Y-115877622D01*
X109005511Y-115877622D01*
X109005511Y-116141389D01*
X109005436Y-116217217D01*
X109005028Y-116283883D01*
X109004046Y-116333667D01*
X109002250Y-116369584D01*
X108999399Y-116394650D01*
X108995253Y-116411881D01*
X108989571Y-116424292D01*
X108982114Y-116434900D01*
X108979824Y-116437706D01*
X108948646Y-116460348D01*
X108914266Y-116461912D01*
X108881334Y-116442067D01*
X108874355Y-116433991D01*
X108868883Y-116423393D01*
X108864863Y-116407549D01*
X108862072Y-116383573D01*
X108860288Y-116348574D01*
X108859289Y-116299664D01*
X108858852Y-116233954D01*
X108858756Y-116148556D01*
X108858756Y-115877622D01*
X108712820Y-115877622D01*
X108701720Y-115877621D01*
X108645202Y-115877396D01*
X108606358Y-115876257D01*
X108580965Y-115873457D01*
X108564804Y-115868250D01*
X108553652Y-115859889D01*
X108543289Y-115847626D01*
X108527441Y-115816938D01*
X108530543Y-115783158D01*
X108556187Y-115750622D01*
X108561129Y-115746905D01*
X108571338Y-115742069D01*
X108586764Y-115738306D01*
X108609886Y-115735483D01*
X108643183Y-115733470D01*
X108689137Y-115732133D01*
X108750228Y-115731342D01*
X108828935Y-115730963D01*
X108927740Y-115730867D01*
X108947767Y-115730868D01*
G37*
X108271734Y-115753445D02*
X108277366Y-115759635D01*
X108282456Y-115767841D01*
X108286543Y-115779617D01*
X108289721Y-115797076D01*
X108292087Y-115822330D01*
X108293738Y-115857490D01*
X108294769Y-115904669D01*
X108295277Y-115965977D01*
X108295359Y-116043527D01*
X108295109Y-116139431D01*
X108294625Y-116255800D01*
X108294557Y-116269975D01*
X108293971Y-116331737D01*
X108292648Y-116375420D01*
X108290103Y-116404801D01*
X108285848Y-116423655D01*
X108279396Y-116435759D01*
X108270262Y-116444889D01*
X108236804Y-116462306D01*
X108201856Y-116459404D01*
X108170953Y-116434900D01*
X108161944Y-116421697D01*
X108154492Y-116403161D01*
X108150124Y-116377133D01*
X108148069Y-116338587D01*
X108147556Y-116282500D01*
X108147556Y-116159845D01*
X107650845Y-116159845D01*
X107650845Y-116294671D01*
X107650772Y-116330462D01*
X107650009Y-116376792D01*
X107647833Y-116407326D01*
X107643536Y-116426357D01*
X107636412Y-116438174D01*
X107625755Y-116447071D01*
X107593504Y-116462141D01*
X107558217Y-116459473D01*
X107527486Y-116434900D01*
X107522831Y-116428645D01*
X107516895Y-116418121D01*
X107512364Y-116404191D01*
X107509048Y-116384117D01*
X107506759Y-116355160D01*
X107505308Y-116314580D01*
X107504505Y-116259640D01*
X107504162Y-116187599D01*
X107504089Y-116095720D01*
X107504089Y-115786285D01*
X107531798Y-115758576D01*
X107563177Y-115736333D01*
X107596406Y-115733644D01*
X107628267Y-115753445D01*
X107636553Y-115763215D01*
X107643965Y-115779107D01*
X107648302Y-115803075D01*
X107650338Y-115839948D01*
X107650845Y-115894556D01*
X107650845Y-116013089D01*
X108147556Y-116013089D01*
X108147556Y-115897576D01*
X108147994Y-115845878D01*
X108149958Y-115811354D01*
X108154474Y-115788778D01*
X108162567Y-115772926D01*
X108175265Y-115758576D01*
X108206643Y-115736333D01*
X108239872Y-115733644D01*
X108271734Y-115753445D01*
G36*
X108271734Y-115753445D02*
G01*
X108277366Y-115759635D01*
X108282456Y-115767841D01*
X108286543Y-115779617D01*
X108289721Y-115797076D01*
X108292087Y-115822330D01*
X108293738Y-115857490D01*
X108294769Y-115904669D01*
X108295277Y-115965977D01*
X108295359Y-116043527D01*
X108295109Y-116139431D01*
X108294625Y-116255800D01*
X108294557Y-116269975D01*
X108293971Y-116331737D01*
X108292648Y-116375420D01*
X108290103Y-116404801D01*
X108285848Y-116423655D01*
X108279396Y-116435759D01*
X108270262Y-116444889D01*
X108236804Y-116462306D01*
X108201856Y-116459404D01*
X108170953Y-116434900D01*
X108161944Y-116421697D01*
X108154492Y-116403161D01*
X108150124Y-116377133D01*
X108148069Y-116338587D01*
X108147556Y-116282500D01*
X108147556Y-116159845D01*
X107650845Y-116159845D01*
X107650845Y-116294671D01*
X107650772Y-116330462D01*
X107650009Y-116376792D01*
X107647833Y-116407326D01*
X107643536Y-116426357D01*
X107636412Y-116438174D01*
X107625755Y-116447071D01*
X107593504Y-116462141D01*
X107558217Y-116459473D01*
X107527486Y-116434900D01*
X107522831Y-116428645D01*
X107516895Y-116418121D01*
X107512364Y-116404191D01*
X107509048Y-116384117D01*
X107506759Y-116355160D01*
X107505308Y-116314580D01*
X107504505Y-116259640D01*
X107504162Y-116187599D01*
X107504089Y-116095720D01*
X107504089Y-115786285D01*
X107531798Y-115758576D01*
X107563177Y-115736333D01*
X107596406Y-115733644D01*
X107628267Y-115753445D01*
X107636553Y-115763215D01*
X107643965Y-115779107D01*
X107648302Y-115803075D01*
X107650338Y-115839948D01*
X107650845Y-115894556D01*
X107650845Y-116013089D01*
X108147556Y-116013089D01*
X108147556Y-115897576D01*
X108147994Y-115845878D01*
X108149958Y-115811354D01*
X108154474Y-115788778D01*
X108162567Y-115772926D01*
X108175265Y-115758576D01*
X108206643Y-115736333D01*
X108239872Y-115733644D01*
X108271734Y-115753445D01*
G37*
X112977133Y-116342196D02*
X112975163Y-116374975D01*
X112972235Y-116397895D01*
X112968158Y-116413697D01*
X112962743Y-116425119D01*
X112955803Y-116434900D01*
X112932406Y-116464645D01*
X112766714Y-116464051D01*
X112731918Y-116463753D01*
X112633435Y-116460322D01*
X112552473Y-116452639D01*
X112485379Y-116440082D01*
X112428496Y-116422027D01*
X112378169Y-116397852D01*
X112374810Y-116395935D01*
X112316998Y-116359217D01*
X112274644Y-116322251D01*
X112241828Y-116278766D01*
X112212628Y-116222489D01*
X112208346Y-116212873D01*
X112185769Y-116149687D01*
X112180034Y-116104133D01*
X112329279Y-116104133D01*
X112334892Y-116128861D01*
X112340618Y-116144739D01*
X112373548Y-116204647D01*
X112420886Y-116250400D01*
X112484652Y-116283536D01*
X112566861Y-116305590D01*
X112569655Y-116306092D01*
X112615940Y-116312055D01*
X112672336Y-116316283D01*
X112727274Y-116317889D01*
X112821156Y-116317889D01*
X112821156Y-115877622D01*
X112733667Y-115878070D01*
X112666747Y-115880546D01*
X112574349Y-115891798D01*
X112495034Y-115911337D01*
X112433060Y-115938311D01*
X112402120Y-115959040D01*
X112374000Y-115988806D01*
X112350660Y-116031234D01*
X112343533Y-116047200D01*
X112331709Y-116079702D01*
X112329279Y-116104133D01*
X112180034Y-116104133D01*
X112178797Y-116094309D01*
X112187399Y-116039283D01*
X112211541Y-115977151D01*
X112212337Y-115975458D01*
X112252788Y-115906036D01*
X112303473Y-115849438D01*
X112366198Y-115804870D01*
X112442774Y-115771541D01*
X112535009Y-115748661D01*
X112644712Y-115735436D01*
X112773691Y-115731075D01*
X112777263Y-115731070D01*
X112837283Y-115731210D01*
X112879214Y-115732246D01*
X112907328Y-115734840D01*
X112925897Y-115739653D01*
X112939194Y-115747344D01*
X112951491Y-115758576D01*
X112979200Y-115786285D01*
X112979200Y-116095720D01*
X112979175Y-116157326D01*
X112978950Y-116236111D01*
X112978332Y-116296821D01*
X112977775Y-116317889D01*
X112977133Y-116342196D01*
G36*
X112977133Y-116342196D02*
G01*
X112975163Y-116374975D01*
X112972235Y-116397895D01*
X112968158Y-116413697D01*
X112962743Y-116425119D01*
X112955803Y-116434900D01*
X112932406Y-116464645D01*
X112766714Y-116464051D01*
X112731918Y-116463753D01*
X112633435Y-116460322D01*
X112552473Y-116452639D01*
X112485379Y-116440082D01*
X112428496Y-116422027D01*
X112378169Y-116397852D01*
X112374810Y-116395935D01*
X112316998Y-116359217D01*
X112274644Y-116322251D01*
X112241828Y-116278766D01*
X112212628Y-116222489D01*
X112208346Y-116212873D01*
X112185769Y-116149687D01*
X112180034Y-116104133D01*
X112329279Y-116104133D01*
X112334892Y-116128861D01*
X112340618Y-116144739D01*
X112373548Y-116204647D01*
X112420886Y-116250400D01*
X112484652Y-116283536D01*
X112566861Y-116305590D01*
X112569655Y-116306092D01*
X112615940Y-116312055D01*
X112672336Y-116316283D01*
X112727274Y-116317889D01*
X112821156Y-116317889D01*
X112821156Y-115877622D01*
X112733667Y-115878070D01*
X112666747Y-115880546D01*
X112574349Y-115891798D01*
X112495034Y-115911337D01*
X112433060Y-115938311D01*
X112402120Y-115959040D01*
X112374000Y-115988806D01*
X112350660Y-116031234D01*
X112343533Y-116047200D01*
X112331709Y-116079702D01*
X112329279Y-116104133D01*
X112180034Y-116104133D01*
X112178797Y-116094309D01*
X112187399Y-116039283D01*
X112211541Y-115977151D01*
X112212337Y-115975458D01*
X112252788Y-115906036D01*
X112303473Y-115849438D01*
X112366198Y-115804870D01*
X112442774Y-115771541D01*
X112535009Y-115748661D01*
X112644712Y-115735436D01*
X112773691Y-115731075D01*
X112777263Y-115731070D01*
X112837283Y-115731210D01*
X112879214Y-115732246D01*
X112907328Y-115734840D01*
X112925897Y-115739653D01*
X112939194Y-115747344D01*
X112951491Y-115758576D01*
X112979200Y-115786285D01*
X112979200Y-116095720D01*
X112979175Y-116157326D01*
X112978950Y-116236111D01*
X112978332Y-116296821D01*
X112977775Y-116317889D01*
X112977133Y-116342196D01*
G37*
X120068817Y-115916227D02*
X120068870Y-115996841D01*
X120068622Y-116097756D01*
X120068583Y-116173417D01*
X120068328Y-116251326D01*
X120067684Y-116311336D01*
X120066480Y-116356064D01*
X120064543Y-116388126D01*
X120061703Y-116410140D01*
X120057788Y-116424724D01*
X120052626Y-116434494D01*
X120046045Y-116442067D01*
X120039077Y-116448301D01*
X120026079Y-116455601D01*
X120006931Y-116460354D01*
X119977528Y-116463092D01*
X119933762Y-116464345D01*
X119871528Y-116464645D01*
X119822582Y-116464269D01*
X119715722Y-116459841D01*
X119626494Y-116449753D01*
X119551696Y-116433165D01*
X119488125Y-116409235D01*
X119432579Y-116377121D01*
X119381854Y-116335982D01*
X119375866Y-116330130D01*
X119338999Y-116281621D01*
X119307899Y-116220813D01*
X119286417Y-116156569D01*
X119281136Y-116117826D01*
X119428353Y-116117826D01*
X119446635Y-116168761D01*
X119476305Y-116214678D01*
X119523002Y-116257087D01*
X119584392Y-116286890D01*
X119663538Y-116306026D01*
X119665028Y-116306264D01*
X119713999Y-116312056D01*
X119772693Y-116316196D01*
X119828734Y-116317804D01*
X119921867Y-116317889D01*
X119921867Y-115877622D01*
X119845667Y-115877608D01*
X119842639Y-115877617D01*
X119791519Y-115879582D01*
X119731416Y-115884307D01*
X119674708Y-115890835D01*
X119624750Y-115900131D01*
X119549998Y-115926400D01*
X119492489Y-115965699D01*
X119450988Y-116018733D01*
X119429771Y-116070000D01*
X119428353Y-116117826D01*
X119281136Y-116117826D01*
X119278400Y-116097756D01*
X119279679Y-116076539D01*
X119291991Y-116019123D01*
X119314520Y-115959213D01*
X119343750Y-115905163D01*
X119376167Y-115865332D01*
X119395708Y-115848310D01*
X119450420Y-115809122D01*
X119510723Y-115778993D01*
X119579919Y-115757032D01*
X119661311Y-115742350D01*
X119758200Y-115734059D01*
X119873889Y-115731267D01*
X119913371Y-115730866D01*
X119959082Y-115730453D01*
X119994883Y-115732257D01*
X120021974Y-115738539D01*
X120041556Y-115751559D01*
X120054830Y-115773578D01*
X120062998Y-115806855D01*
X120067260Y-115853651D01*
X120067857Y-115877622D01*
X120068817Y-115916227D01*
G36*
X120068817Y-115916227D02*
G01*
X120068870Y-115996841D01*
X120068622Y-116097756D01*
X120068583Y-116173417D01*
X120068328Y-116251326D01*
X120067684Y-116311336D01*
X120066480Y-116356064D01*
X120064543Y-116388126D01*
X120061703Y-116410140D01*
X120057788Y-116424724D01*
X120052626Y-116434494D01*
X120046045Y-116442067D01*
X120039077Y-116448301D01*
X120026079Y-116455601D01*
X120006931Y-116460354D01*
X119977528Y-116463092D01*
X119933762Y-116464345D01*
X119871528Y-116464645D01*
X119822582Y-116464269D01*
X119715722Y-116459841D01*
X119626494Y-116449753D01*
X119551696Y-116433165D01*
X119488125Y-116409235D01*
X119432579Y-116377121D01*
X119381854Y-116335982D01*
X119375866Y-116330130D01*
X119338999Y-116281621D01*
X119307899Y-116220813D01*
X119286417Y-116156569D01*
X119281136Y-116117826D01*
X119428353Y-116117826D01*
X119446635Y-116168761D01*
X119476305Y-116214678D01*
X119523002Y-116257087D01*
X119584392Y-116286890D01*
X119663538Y-116306026D01*
X119665028Y-116306264D01*
X119713999Y-116312056D01*
X119772693Y-116316196D01*
X119828734Y-116317804D01*
X119921867Y-116317889D01*
X119921867Y-115877622D01*
X119845667Y-115877608D01*
X119842639Y-115877617D01*
X119791519Y-115879582D01*
X119731416Y-115884307D01*
X119674708Y-115890835D01*
X119624750Y-115900131D01*
X119549998Y-115926400D01*
X119492489Y-115965699D01*
X119450988Y-116018733D01*
X119429771Y-116070000D01*
X119428353Y-116117826D01*
X119281136Y-116117826D01*
X119278400Y-116097756D01*
X119279679Y-116076539D01*
X119291991Y-116019123D01*
X119314520Y-115959213D01*
X119343750Y-115905163D01*
X119376167Y-115865332D01*
X119395708Y-115848310D01*
X119450420Y-115809122D01*
X119510723Y-115778993D01*
X119579919Y-115757032D01*
X119661311Y-115742350D01*
X119758200Y-115734059D01*
X119873889Y-115731267D01*
X119913371Y-115730866D01*
X119959082Y-115730453D01*
X119994883Y-115732257D01*
X120021974Y-115738539D01*
X120041556Y-115751559D01*
X120054830Y-115773578D01*
X120062998Y-115806855D01*
X120067260Y-115853651D01*
X120067857Y-115877622D01*
X120068817Y-115916227D01*
G37*
X115123893Y-115729692D02*
X115135301Y-115735829D01*
X115145850Y-115746491D01*
X115157136Y-115760611D01*
X115161589Y-115766572D01*
X115167588Y-115777068D01*
X115172167Y-115790893D01*
X115175519Y-115810798D01*
X115177833Y-115839532D01*
X115179301Y-115879845D01*
X115180113Y-115934487D01*
X115180460Y-116006207D01*
X115180534Y-116097756D01*
X115180511Y-116156286D01*
X115180292Y-116235373D01*
X115179683Y-116296316D01*
X115178492Y-116341862D01*
X115176529Y-116374763D01*
X115173603Y-116397768D01*
X115169523Y-116413626D01*
X115164097Y-116425086D01*
X115157136Y-116434900D01*
X115126708Y-116459293D01*
X115091765Y-116462172D01*
X115054784Y-116443082D01*
X115050600Y-116439607D01*
X115042424Y-116431079D01*
X115036364Y-116419528D01*
X115031981Y-116401696D01*
X115028839Y-116374324D01*
X115026502Y-116334154D01*
X115024531Y-116277928D01*
X115022489Y-116202389D01*
X115016845Y-115983258D01*
X114751556Y-116223899D01*
X114677722Y-116290675D01*
X114612542Y-116348791D01*
X114560348Y-116393749D01*
X114519273Y-116426671D01*
X114487455Y-116448679D01*
X114463026Y-116460894D01*
X114444124Y-116464439D01*
X114428883Y-116460436D01*
X114415439Y-116450007D01*
X114401927Y-116434274D01*
X114395682Y-116425791D01*
X114390050Y-116415213D01*
X114385839Y-116401055D01*
X114382887Y-116380603D01*
X114381032Y-116351142D01*
X114380113Y-116309961D01*
X114379968Y-116254344D01*
X114380435Y-116181579D01*
X114381352Y-116088951D01*
X114384667Y-115773999D01*
X114411318Y-115752433D01*
X114437383Y-115736241D01*
X114470241Y-115733470D01*
X114504772Y-115752423D01*
X114509084Y-115756008D01*
X114517216Y-115764537D01*
X114523245Y-115776129D01*
X114527606Y-115794035D01*
X114530734Y-115821506D01*
X114533063Y-115861794D01*
X114535029Y-115918151D01*
X114537067Y-115993829D01*
X114542711Y-116213678D01*
X114723334Y-116049884D01*
X114810072Y-115971251D01*
X114885843Y-115902858D01*
X114947980Y-115847508D01*
X114998078Y-115804138D01*
X115037735Y-115771681D01*
X115068548Y-115749073D01*
X115092114Y-115735248D01*
X115110030Y-115729143D01*
X115123893Y-115729692D01*
G36*
X115123893Y-115729692D02*
G01*
X115135301Y-115735829D01*
X115145850Y-115746491D01*
X115157136Y-115760611D01*
X115161589Y-115766572D01*
X115167588Y-115777068D01*
X115172167Y-115790893D01*
X115175519Y-115810798D01*
X115177833Y-115839532D01*
X115179301Y-115879845D01*
X115180113Y-115934487D01*
X115180460Y-116006207D01*
X115180534Y-116097756D01*
X115180511Y-116156286D01*
X115180292Y-116235373D01*
X115179683Y-116296316D01*
X115178492Y-116341862D01*
X115176529Y-116374763D01*
X115173603Y-116397768D01*
X115169523Y-116413626D01*
X115164097Y-116425086D01*
X115157136Y-116434900D01*
X115126708Y-116459293D01*
X115091765Y-116462172D01*
X115054784Y-116443082D01*
X115050600Y-116439607D01*
X115042424Y-116431079D01*
X115036364Y-116419528D01*
X115031981Y-116401696D01*
X115028839Y-116374324D01*
X115026502Y-116334154D01*
X115024531Y-116277928D01*
X115022489Y-116202389D01*
X115016845Y-115983258D01*
X114751556Y-116223899D01*
X114677722Y-116290675D01*
X114612542Y-116348791D01*
X114560348Y-116393749D01*
X114519273Y-116426671D01*
X114487455Y-116448679D01*
X114463026Y-116460894D01*
X114444124Y-116464439D01*
X114428883Y-116460436D01*
X114415439Y-116450007D01*
X114401927Y-116434274D01*
X114395682Y-116425791D01*
X114390050Y-116415213D01*
X114385839Y-116401055D01*
X114382887Y-116380603D01*
X114381032Y-116351142D01*
X114380113Y-116309961D01*
X114379968Y-116254344D01*
X114380435Y-116181579D01*
X114381352Y-116088951D01*
X114384667Y-115773999D01*
X114411318Y-115752433D01*
X114437383Y-115736241D01*
X114470241Y-115733470D01*
X114504772Y-115752423D01*
X114509084Y-115756008D01*
X114517216Y-115764537D01*
X114523245Y-115776129D01*
X114527606Y-115794035D01*
X114530734Y-115821506D01*
X114533063Y-115861794D01*
X114535029Y-115918151D01*
X114537067Y-115993829D01*
X114542711Y-116213678D01*
X114723334Y-116049884D01*
X114810072Y-115971251D01*
X114885843Y-115902858D01*
X114947980Y-115847508D01*
X114998078Y-115804138D01*
X115037735Y-115771681D01*
X115068548Y-115749073D01*
X115092114Y-115735248D01*
X115110030Y-115729143D01*
X115123893Y-115729692D01*
G37*
X115921150Y-115735979D02*
X116027157Y-115752294D01*
X116120969Y-115780345D01*
X116199765Y-115819252D01*
X116260719Y-115868134D01*
X116286789Y-115900995D01*
X116316297Y-115950194D01*
X116341568Y-116004052D01*
X116359218Y-116055219D01*
X116365858Y-116096344D01*
X116364298Y-116116059D01*
X116351357Y-116167392D01*
X116328194Y-116223918D01*
X116298302Y-116277835D01*
X116265173Y-116321339D01*
X116254977Y-116331687D01*
X116187892Y-116383462D01*
X116107766Y-116423354D01*
X116021556Y-116447756D01*
X115966592Y-116455868D01*
X115873139Y-116462473D01*
X115783358Y-116460386D01*
X115700869Y-116450140D01*
X115629286Y-116432270D01*
X115572228Y-116407308D01*
X115533311Y-116375788D01*
X115531936Y-116373812D01*
X115524848Y-116348586D01*
X115520609Y-116301335D01*
X115519200Y-116231871D01*
X115520060Y-116169638D01*
X115524780Y-116122256D01*
X115536470Y-116090153D01*
X115558239Y-116070600D01*
X115593198Y-116060870D01*
X115644456Y-116058233D01*
X115715123Y-116059961D01*
X115763743Y-116062973D01*
X115813939Y-116071166D01*
X115846433Y-116085219D01*
X115863892Y-116106454D01*
X115868983Y-116136194D01*
X115868877Y-116140736D01*
X115860175Y-116175530D01*
X115836165Y-116198947D01*
X115794900Y-116212147D01*
X115734431Y-116216289D01*
X115665956Y-116216289D01*
X115665956Y-116254641D01*
X115666006Y-116263776D01*
X115668227Y-116281027D01*
X115677494Y-116291321D01*
X115698875Y-116298259D01*
X115737436Y-116305441D01*
X115742910Y-116306375D01*
X115839860Y-116316278D01*
X115929852Y-116313359D01*
X116010760Y-116298629D01*
X116080459Y-116273099D01*
X116136824Y-116237778D01*
X116177729Y-116193679D01*
X116201051Y-116141812D01*
X116204663Y-116083188D01*
X116199145Y-116054294D01*
X116172461Y-115998404D01*
X116126273Y-115952745D01*
X116061291Y-115917908D01*
X115978229Y-115894490D01*
X115953555Y-115890041D01*
X115864226Y-115879542D01*
X115784419Y-115880771D01*
X115706326Y-115893706D01*
X115671183Y-115900496D01*
X115625745Y-115901513D01*
X115594430Y-115888982D01*
X115574277Y-115862195D01*
X115567893Y-115833948D01*
X115577379Y-115802724D01*
X115586708Y-115789299D01*
X115620943Y-115765767D01*
X115673565Y-115747895D01*
X115742081Y-115736399D01*
X115824000Y-115731992D01*
X115921150Y-115735979D01*
G36*
X115921150Y-115735979D02*
G01*
X116027157Y-115752294D01*
X116120969Y-115780345D01*
X116199765Y-115819252D01*
X116260719Y-115868134D01*
X116286789Y-115900995D01*
X116316297Y-115950194D01*
X116341568Y-116004052D01*
X116359218Y-116055219D01*
X116365858Y-116096344D01*
X116364298Y-116116059D01*
X116351357Y-116167392D01*
X116328194Y-116223918D01*
X116298302Y-116277835D01*
X116265173Y-116321339D01*
X116254977Y-116331687D01*
X116187892Y-116383462D01*
X116107766Y-116423354D01*
X116021556Y-116447756D01*
X115966592Y-116455868D01*
X115873139Y-116462473D01*
X115783358Y-116460386D01*
X115700869Y-116450140D01*
X115629286Y-116432270D01*
X115572228Y-116407308D01*
X115533311Y-116375788D01*
X115531936Y-116373812D01*
X115524848Y-116348586D01*
X115520609Y-116301335D01*
X115519200Y-116231871D01*
X115520060Y-116169638D01*
X115524780Y-116122256D01*
X115536470Y-116090153D01*
X115558239Y-116070600D01*
X115593198Y-116060870D01*
X115644456Y-116058233D01*
X115715123Y-116059961D01*
X115763743Y-116062973D01*
X115813939Y-116071166D01*
X115846433Y-116085219D01*
X115863892Y-116106454D01*
X115868983Y-116136194D01*
X115868877Y-116140736D01*
X115860175Y-116175530D01*
X115836165Y-116198947D01*
X115794900Y-116212147D01*
X115734431Y-116216289D01*
X115665956Y-116216289D01*
X115665956Y-116254641D01*
X115666006Y-116263776D01*
X115668227Y-116281027D01*
X115677494Y-116291321D01*
X115698875Y-116298259D01*
X115737436Y-116305441D01*
X115742910Y-116306375D01*
X115839860Y-116316278D01*
X115929852Y-116313359D01*
X116010760Y-116298629D01*
X116080459Y-116273099D01*
X116136824Y-116237778D01*
X116177729Y-116193679D01*
X116201051Y-116141812D01*
X116204663Y-116083188D01*
X116199145Y-116054294D01*
X116172461Y-115998404D01*
X116126273Y-115952745D01*
X116061291Y-115917908D01*
X115978229Y-115894490D01*
X115953555Y-115890041D01*
X115864226Y-115879542D01*
X115784419Y-115880771D01*
X115706326Y-115893706D01*
X115671183Y-115900496D01*
X115625745Y-115901513D01*
X115594430Y-115888982D01*
X115574277Y-115862195D01*
X115567893Y-115833948D01*
X115577379Y-115802724D01*
X115586708Y-115789299D01*
X115620943Y-115765767D01*
X115673565Y-115747895D01*
X115742081Y-115736399D01*
X115824000Y-115731992D01*
X115921150Y-115735979D01*
G37*
X113971803Y-115760611D02*
X113976752Y-115767295D01*
X113982596Y-115777866D01*
X113987057Y-115791953D01*
X113990321Y-115812278D01*
X113992574Y-115841565D01*
X113994002Y-115882537D01*
X113994792Y-115937917D01*
X113995129Y-116010428D01*
X113995200Y-116102794D01*
X113995171Y-116168711D01*
X113994939Y-116247028D01*
X113994319Y-116307296D01*
X113993126Y-116352193D01*
X113991179Y-116384402D01*
X113988294Y-116406600D01*
X113984288Y-116421469D01*
X113978979Y-116431689D01*
X113972183Y-116439938D01*
X113967668Y-116444595D01*
X113959438Y-116451082D01*
X113948078Y-116455994D01*
X113930810Y-116459549D01*
X113904855Y-116461967D01*
X113867436Y-116463467D01*
X113815773Y-116464267D01*
X113747089Y-116464587D01*
X113658606Y-116464645D01*
X113638931Y-116464638D01*
X113551906Y-116464372D01*
X113484254Y-116463606D01*
X113433299Y-116462192D01*
X113396367Y-116459980D01*
X113370783Y-116456822D01*
X113353871Y-116452569D01*
X113342957Y-116447071D01*
X113332464Y-116437085D01*
X113319203Y-116405968D01*
X113320386Y-116370080D01*
X113336550Y-116338533D01*
X113338739Y-116336257D01*
X113347427Y-116329989D01*
X113360769Y-116325323D01*
X113381752Y-116322027D01*
X113413363Y-116319868D01*
X113458590Y-116318614D01*
X113520420Y-116318031D01*
X113601839Y-116317889D01*
X113848445Y-116317889D01*
X113848445Y-116159845D01*
X113686006Y-116159845D01*
X113650338Y-116159764D01*
X113594568Y-116158967D01*
X113555430Y-116156962D01*
X113528976Y-116153321D01*
X113511259Y-116147612D01*
X113498329Y-116139407D01*
X113494686Y-116136223D01*
X113476278Y-116105248D01*
X113475644Y-116068912D01*
X113493183Y-116035293D01*
X113493245Y-116035224D01*
X113502916Y-116026598D01*
X113516209Y-116020542D01*
X113536917Y-116016611D01*
X113568828Y-116014356D01*
X113615734Y-116013331D01*
X113681424Y-116013089D01*
X113849571Y-116013089D01*
X113846186Y-115948178D01*
X113842800Y-115883267D01*
X113600723Y-115880214D01*
X113575707Y-115879886D01*
X113494087Y-115878406D01*
X113431768Y-115876022D01*
X113386154Y-115872027D01*
X113354652Y-115865713D01*
X113334667Y-115856374D01*
X113323604Y-115843303D01*
X113318869Y-115825792D01*
X113317867Y-115803135D01*
X113317873Y-115800770D01*
X113319027Y-115780739D01*
X113323824Y-115764946D01*
X113334632Y-115752890D01*
X113353817Y-115744067D01*
X113383745Y-115737975D01*
X113426783Y-115734111D01*
X113485299Y-115731974D01*
X113561657Y-115731060D01*
X113658226Y-115730867D01*
X113948406Y-115730867D01*
X113971803Y-115760611D01*
G36*
X113971803Y-115760611D02*
G01*
X113976752Y-115767295D01*
X113982596Y-115777866D01*
X113987057Y-115791953D01*
X113990321Y-115812278D01*
X113992574Y-115841565D01*
X113994002Y-115882537D01*
X113994792Y-115937917D01*
X113995129Y-116010428D01*
X113995200Y-116102794D01*
X113995171Y-116168711D01*
X113994939Y-116247028D01*
X113994319Y-116307296D01*
X113993126Y-116352193D01*
X113991179Y-116384402D01*
X113988294Y-116406600D01*
X113984288Y-116421469D01*
X113978979Y-116431689D01*
X113972183Y-116439938D01*
X113967668Y-116444595D01*
X113959438Y-116451082D01*
X113948078Y-116455994D01*
X113930810Y-116459549D01*
X113904855Y-116461967D01*
X113867436Y-116463467D01*
X113815773Y-116464267D01*
X113747089Y-116464587D01*
X113658606Y-116464645D01*
X113638931Y-116464638D01*
X113551906Y-116464372D01*
X113484254Y-116463606D01*
X113433299Y-116462192D01*
X113396367Y-116459980D01*
X113370783Y-116456822D01*
X113353871Y-116452569D01*
X113342957Y-116447071D01*
X113332464Y-116437085D01*
X113319203Y-116405968D01*
X113320386Y-116370080D01*
X113336550Y-116338533D01*
X113338739Y-116336257D01*
X113347427Y-116329989D01*
X113360769Y-116325323D01*
X113381752Y-116322027D01*
X113413363Y-116319868D01*
X113458590Y-116318614D01*
X113520420Y-116318031D01*
X113601839Y-116317889D01*
X113848445Y-116317889D01*
X113848445Y-116159845D01*
X113686006Y-116159845D01*
X113650338Y-116159764D01*
X113594568Y-116158967D01*
X113555430Y-116156962D01*
X113528976Y-116153321D01*
X113511259Y-116147612D01*
X113498329Y-116139407D01*
X113494686Y-116136223D01*
X113476278Y-116105248D01*
X113475644Y-116068912D01*
X113493183Y-116035293D01*
X113493245Y-116035224D01*
X113502916Y-116026598D01*
X113516209Y-116020542D01*
X113536917Y-116016611D01*
X113568828Y-116014356D01*
X113615734Y-116013331D01*
X113681424Y-116013089D01*
X113849571Y-116013089D01*
X113846186Y-115948178D01*
X113842800Y-115883267D01*
X113600723Y-115880214D01*
X113575707Y-115879886D01*
X113494087Y-115878406D01*
X113431768Y-115876022D01*
X113386154Y-115872027D01*
X113354652Y-115865713D01*
X113334667Y-115856374D01*
X113323604Y-115843303D01*
X113318869Y-115825792D01*
X113317867Y-115803135D01*
X113317873Y-115800770D01*
X113319027Y-115780739D01*
X113323824Y-115764946D01*
X113334632Y-115752890D01*
X113353817Y-115744067D01*
X113383745Y-115737975D01*
X113426783Y-115734111D01*
X113485299Y-115731974D01*
X113561657Y-115731060D01*
X113658226Y-115730867D01*
X113948406Y-115730867D01*
X113971803Y-115760611D01*
G37*
X118648734Y-115730883D02*
X118725831Y-115731075D01*
X118784777Y-115731660D01*
X118828364Y-115732851D01*
X118859383Y-115734864D01*
X118880625Y-115737912D01*
X118894882Y-115742209D01*
X118904945Y-115747972D01*
X118913606Y-115755412D01*
X118915391Y-115757093D01*
X118922635Y-115764632D01*
X118928277Y-115773650D01*
X118932517Y-115786784D01*
X118935556Y-115806672D01*
X118937594Y-115835951D01*
X118938830Y-115877258D01*
X118939465Y-115933231D01*
X118939700Y-116006507D01*
X118939734Y-116099723D01*
X118939697Y-116172513D01*
X118939448Y-116250689D01*
X118938812Y-116310903D01*
X118937615Y-116355782D01*
X118935684Y-116387952D01*
X118932846Y-116410039D01*
X118928927Y-116424670D01*
X118923755Y-116434470D01*
X118917156Y-116442067D01*
X118913822Y-116445244D01*
X118905300Y-116451354D01*
X118893298Y-116456029D01*
X118875087Y-116459459D01*
X118847940Y-116461836D01*
X118809129Y-116463352D01*
X118755924Y-116464198D01*
X118685598Y-116464565D01*
X118595422Y-116464645D01*
X118553314Y-116464633D01*
X118472167Y-116464451D01*
X118409675Y-116463898D01*
X118363109Y-116462782D01*
X118329741Y-116460913D01*
X118306844Y-116458098D01*
X118291688Y-116454146D01*
X118281546Y-116448866D01*
X118273689Y-116442067D01*
X118258963Y-116420467D01*
X118251111Y-116391267D01*
X118256610Y-116367360D01*
X118273689Y-116340467D01*
X118278668Y-116335859D01*
X118288443Y-116329572D01*
X118302559Y-116324946D01*
X118324054Y-116321730D01*
X118355968Y-116319670D01*
X118401342Y-116318512D01*
X118463213Y-116318002D01*
X118544622Y-116317889D01*
X118792978Y-116317889D01*
X118792978Y-116159845D01*
X118631801Y-116159845D01*
X118595983Y-116159699D01*
X118530359Y-116157976D01*
X118483118Y-116153541D01*
X118451383Y-116145437D01*
X118432277Y-116132706D01*
X118422923Y-116114392D01*
X118420445Y-116089538D01*
X118421242Y-116069282D01*
X118426494Y-116047456D01*
X118439288Y-116032104D01*
X118462628Y-116022109D01*
X118499517Y-116016353D01*
X118552959Y-116013719D01*
X118625958Y-116013089D01*
X118794105Y-116013089D01*
X118790719Y-115948178D01*
X118787334Y-115883267D01*
X118539617Y-115880218D01*
X118477026Y-115879339D01*
X118408565Y-115877895D01*
X118357661Y-115875964D01*
X118321408Y-115873314D01*
X118296901Y-115869710D01*
X118281235Y-115864921D01*
X118271506Y-115858713D01*
X118265491Y-115852310D01*
X118252482Y-115820628D01*
X118256043Y-115784942D01*
X118275818Y-115753884D01*
X118279069Y-115750961D01*
X118288049Y-115744610D01*
X118300153Y-115739757D01*
X118318159Y-115736203D01*
X118344847Y-115733746D01*
X118382997Y-115732185D01*
X118435386Y-115731318D01*
X118504794Y-115730946D01*
X118594001Y-115730867D01*
X118648734Y-115730883D01*
G36*
X118648734Y-115730883D02*
G01*
X118725831Y-115731075D01*
X118784777Y-115731660D01*
X118828364Y-115732851D01*
X118859383Y-115734864D01*
X118880625Y-115737912D01*
X118894882Y-115742209D01*
X118904945Y-115747972D01*
X118913606Y-115755412D01*
X118915391Y-115757093D01*
X118922635Y-115764632D01*
X118928277Y-115773650D01*
X118932517Y-115786784D01*
X118935556Y-115806672D01*
X118937594Y-115835951D01*
X118938830Y-115877258D01*
X118939465Y-115933231D01*
X118939700Y-116006507D01*
X118939734Y-116099723D01*
X118939697Y-116172513D01*
X118939448Y-116250689D01*
X118938812Y-116310903D01*
X118937615Y-116355782D01*
X118935684Y-116387952D01*
X118932846Y-116410039D01*
X118928927Y-116424670D01*
X118923755Y-116434470D01*
X118917156Y-116442067D01*
X118913822Y-116445244D01*
X118905300Y-116451354D01*
X118893298Y-116456029D01*
X118875087Y-116459459D01*
X118847940Y-116461836D01*
X118809129Y-116463352D01*
X118755924Y-116464198D01*
X118685598Y-116464565D01*
X118595422Y-116464645D01*
X118553314Y-116464633D01*
X118472167Y-116464451D01*
X118409675Y-116463898D01*
X118363109Y-116462782D01*
X118329741Y-116460913D01*
X118306844Y-116458098D01*
X118291688Y-116454146D01*
X118281546Y-116448866D01*
X118273689Y-116442067D01*
X118258963Y-116420467D01*
X118251111Y-116391267D01*
X118256610Y-116367360D01*
X118273689Y-116340467D01*
X118278668Y-116335859D01*
X118288443Y-116329572D01*
X118302559Y-116324946D01*
X118324054Y-116321730D01*
X118355968Y-116319670D01*
X118401342Y-116318512D01*
X118463213Y-116318002D01*
X118544622Y-116317889D01*
X118792978Y-116317889D01*
X118792978Y-116159845D01*
X118631801Y-116159845D01*
X118595983Y-116159699D01*
X118530359Y-116157976D01*
X118483118Y-116153541D01*
X118451383Y-116145437D01*
X118432277Y-116132706D01*
X118422923Y-116114392D01*
X118420445Y-116089538D01*
X118421242Y-116069282D01*
X118426494Y-116047456D01*
X118439288Y-116032104D01*
X118462628Y-116022109D01*
X118499517Y-116016353D01*
X118552959Y-116013719D01*
X118625958Y-116013089D01*
X118794105Y-116013089D01*
X118790719Y-115948178D01*
X118787334Y-115883267D01*
X118539617Y-115880218D01*
X118477026Y-115879339D01*
X118408565Y-115877895D01*
X118357661Y-115875964D01*
X118321408Y-115873314D01*
X118296901Y-115869710D01*
X118281235Y-115864921D01*
X118271506Y-115858713D01*
X118265491Y-115852310D01*
X118252482Y-115820628D01*
X118256043Y-115784942D01*
X118275818Y-115753884D01*
X118279069Y-115750961D01*
X118288049Y-115744610D01*
X118300153Y-115739757D01*
X118318159Y-115736203D01*
X118344847Y-115733746D01*
X118382997Y-115732185D01*
X118435386Y-115731318D01*
X118504794Y-115730946D01*
X118594001Y-115730867D01*
X118648734Y-115730883D01*
G37*
X110081702Y-115740278D02*
X110099663Y-115758789D01*
X110120263Y-115789871D01*
X110145095Y-115835556D01*
X110175750Y-115897878D01*
X110213820Y-115978871D01*
X110228454Y-116010254D01*
X110258203Y-116073438D01*
X110284297Y-116128044D01*
X110305292Y-116171090D01*
X110319739Y-116199593D01*
X110326191Y-116210570D01*
X110327550Y-116209989D01*
X110337542Y-116196042D01*
X110354833Y-116166504D01*
X110377430Y-116124887D01*
X110403338Y-116074703D01*
X110419311Y-116043214D01*
X110448261Y-115987861D01*
X110470749Y-115948844D01*
X110488965Y-115923366D01*
X110505096Y-115908631D01*
X110521330Y-115901842D01*
X110539857Y-115900200D01*
X110550360Y-115900675D01*
X110566476Y-115904882D01*
X110581790Y-115915746D01*
X110598388Y-115936019D01*
X110618357Y-115968454D01*
X110643783Y-116015804D01*
X110676752Y-116080822D01*
X110686485Y-116100077D01*
X110710943Y-116146746D01*
X110731178Y-116182909D01*
X110745311Y-116205297D01*
X110751460Y-116210645D01*
X110752827Y-116207373D01*
X110762202Y-116186464D01*
X110779062Y-116149525D01*
X110801979Y-116099674D01*
X110829520Y-116040026D01*
X110860255Y-115973698D01*
X110886970Y-115916477D01*
X110916593Y-115854488D01*
X110939664Y-115808749D01*
X110957643Y-115776708D01*
X110971990Y-115755814D01*
X110984166Y-115743518D01*
X110995632Y-115737266D01*
X111005042Y-115734374D01*
X111030147Y-115734225D01*
X111057290Y-115749568D01*
X111058590Y-115750553D01*
X111080674Y-115773188D01*
X111091723Y-115795413D01*
X111091769Y-115796053D01*
X111087228Y-115813715D01*
X111074364Y-115848281D01*
X111054605Y-115896626D01*
X111029381Y-115955625D01*
X111000119Y-116022155D01*
X110968250Y-116093091D01*
X110935201Y-116165307D01*
X110902401Y-116235680D01*
X110871280Y-116301085D01*
X110843265Y-116358397D01*
X110819786Y-116404492D01*
X110802272Y-116436246D01*
X110792151Y-116450533D01*
X110757743Y-116463902D01*
X110716046Y-116457541D01*
X110710681Y-116452844D01*
X110694852Y-116430693D01*
X110672650Y-116393932D01*
X110646233Y-116346215D01*
X110617760Y-116291193D01*
X110537986Y-116131950D01*
X110464799Y-116278542D01*
X110455103Y-116297832D01*
X110428125Y-116350180D01*
X110404096Y-116394970D01*
X110385332Y-116427954D01*
X110374146Y-116444889D01*
X110373000Y-116446132D01*
X110344879Y-116461419D01*
X110309817Y-116463102D01*
X110278776Y-116450533D01*
X110276350Y-116447684D01*
X110264090Y-116427059D01*
X110244352Y-116389508D01*
X110218448Y-116337680D01*
X110187685Y-116274223D01*
X110153375Y-116201785D01*
X110116825Y-116123016D01*
X110096585Y-116078893D01*
X110059812Y-115998165D01*
X110031355Y-115934487D01*
X110010331Y-115885552D01*
X109995854Y-115849057D01*
X109987039Y-115822695D01*
X109983004Y-115804161D01*
X109982862Y-115791152D01*
X109985730Y-115781361D01*
X110000387Y-115760478D01*
X110026990Y-115740177D01*
X110027745Y-115739835D01*
X110047335Y-115732834D01*
X110064790Y-115732304D01*
X110081702Y-115740278D01*
G36*
X110081702Y-115740278D02*
G01*
X110099663Y-115758789D01*
X110120263Y-115789871D01*
X110145095Y-115835556D01*
X110175750Y-115897878D01*
X110213820Y-115978871D01*
X110228454Y-116010254D01*
X110258203Y-116073438D01*
X110284297Y-116128044D01*
X110305292Y-116171090D01*
X110319739Y-116199593D01*
X110326191Y-116210570D01*
X110327550Y-116209989D01*
X110337542Y-116196042D01*
X110354833Y-116166504D01*
X110377430Y-116124887D01*
X110403338Y-116074703D01*
X110419311Y-116043214D01*
X110448261Y-115987861D01*
X110470749Y-115948844D01*
X110488965Y-115923366D01*
X110505096Y-115908631D01*
X110521330Y-115901842D01*
X110539857Y-115900200D01*
X110550360Y-115900675D01*
X110566476Y-115904882D01*
X110581790Y-115915746D01*
X110598388Y-115936019D01*
X110618357Y-115968454D01*
X110643783Y-116015804D01*
X110676752Y-116080822D01*
X110686485Y-116100077D01*
X110710943Y-116146746D01*
X110731178Y-116182909D01*
X110745311Y-116205297D01*
X110751460Y-116210645D01*
X110752827Y-116207373D01*
X110762202Y-116186464D01*
X110779062Y-116149525D01*
X110801979Y-116099674D01*
X110829520Y-116040026D01*
X110860255Y-115973698D01*
X110886970Y-115916477D01*
X110916593Y-115854488D01*
X110939664Y-115808749D01*
X110957643Y-115776708D01*
X110971990Y-115755814D01*
X110984166Y-115743518D01*
X110995632Y-115737266D01*
X111005042Y-115734374D01*
X111030147Y-115734225D01*
X111057290Y-115749568D01*
X111058590Y-115750553D01*
X111080674Y-115773188D01*
X111091723Y-115795413D01*
X111091769Y-115796053D01*
X111087228Y-115813715D01*
X111074364Y-115848281D01*
X111054605Y-115896626D01*
X111029381Y-115955625D01*
X111000119Y-116022155D01*
X110968250Y-116093091D01*
X110935201Y-116165307D01*
X110902401Y-116235680D01*
X110871280Y-116301085D01*
X110843265Y-116358397D01*
X110819786Y-116404492D01*
X110802272Y-116436246D01*
X110792151Y-116450533D01*
X110757743Y-116463902D01*
X110716046Y-116457541D01*
X110710681Y-116452844D01*
X110694852Y-116430693D01*
X110672650Y-116393932D01*
X110646233Y-116346215D01*
X110617760Y-116291193D01*
X110537986Y-116131950D01*
X110464799Y-116278542D01*
X110455103Y-116297832D01*
X110428125Y-116350180D01*
X110404096Y-116394970D01*
X110385332Y-116427954D01*
X110374146Y-116444889D01*
X110373000Y-116446132D01*
X110344879Y-116461419D01*
X110309817Y-116463102D01*
X110278776Y-116450533D01*
X110276350Y-116447684D01*
X110264090Y-116427059D01*
X110244352Y-116389508D01*
X110218448Y-116337680D01*
X110187685Y-116274223D01*
X110153375Y-116201785D01*
X110116825Y-116123016D01*
X110096585Y-116078893D01*
X110059812Y-115998165D01*
X110031355Y-115934487D01*
X110010331Y-115885552D01*
X109995854Y-115849057D01*
X109987039Y-115822695D01*
X109983004Y-115804161D01*
X109982862Y-115791152D01*
X109985730Y-115781361D01*
X110000387Y-115760478D01*
X110026990Y-115740177D01*
X110027745Y-115739835D01*
X110047335Y-115732834D01*
X110064790Y-115732304D01*
X110081702Y-115740278D01*
G37*
X117632853Y-115731736D02*
X117699100Y-115737166D01*
X117754400Y-115746764D01*
X117805283Y-115761625D01*
X117876595Y-115794758D01*
X117927752Y-115837440D01*
X117958575Y-115889505D01*
X117968889Y-115950783D01*
X117967952Y-115982032D01*
X117962160Y-116006829D01*
X117947353Y-116028499D01*
X117919380Y-116055849D01*
X117911402Y-116063178D01*
X117887692Y-116084081D01*
X117865298Y-116101051D01*
X117841265Y-116115005D01*
X117812637Y-116126856D01*
X117776460Y-116137520D01*
X117729780Y-116147911D01*
X117669641Y-116158946D01*
X117593090Y-116171538D01*
X117497171Y-116186604D01*
X117478808Y-116189638D01*
X117416478Y-116203258D01*
X117371260Y-116218992D01*
X117344976Y-116236063D01*
X117339447Y-116253697D01*
X117342068Y-116257968D01*
X117360000Y-116273033D01*
X117388126Y-116289667D01*
X117400926Y-116295657D01*
X117422224Y-116302850D01*
X117448610Y-116307627D01*
X117484454Y-116310446D01*
X117534128Y-116311764D01*
X117602000Y-116312037D01*
X117619785Y-116311964D01*
X117687406Y-116310853D01*
X117752345Y-116308628D01*
X117807970Y-116305562D01*
X117847651Y-116301927D01*
X117883162Y-116297859D01*
X117912415Y-116297076D01*
X117931315Y-116301676D01*
X117946429Y-116312351D01*
X117950085Y-116315944D01*
X117966427Y-116347718D01*
X117965107Y-116383372D01*
X117946150Y-116413990D01*
X117925780Y-116425596D01*
X117889796Y-116438291D01*
X117847372Y-116448341D01*
X117843922Y-116448940D01*
X117801252Y-116454156D01*
X117743866Y-116458530D01*
X117678849Y-116461618D01*
X117613289Y-116462977D01*
X117597057Y-116463018D01*
X117498744Y-116460541D01*
X117418692Y-116452535D01*
X117353513Y-116438003D01*
X117299817Y-116415949D01*
X117254216Y-116385376D01*
X117213323Y-116345286D01*
X117193202Y-116319059D01*
X117181576Y-116289512D01*
X117178667Y-116249795D01*
X117178808Y-116237826D01*
X117182681Y-116205145D01*
X117195065Y-116178619D01*
X117220230Y-116147771D01*
X117241442Y-116125631D01*
X117267838Y-116103085D01*
X117297555Y-116084717D01*
X117333785Y-116069461D01*
X117379717Y-116056249D01*
X117438544Y-116044014D01*
X117513456Y-116031689D01*
X117607645Y-116018206D01*
X117652957Y-116011196D01*
X117720911Y-115996637D01*
X117770047Y-115980137D01*
X117799614Y-115962239D01*
X117808864Y-115943485D01*
X117797048Y-115924415D01*
X117763416Y-115905571D01*
X117760370Y-115904357D01*
X117714011Y-115892279D01*
X117651361Y-115884079D01*
X117577927Y-115879919D01*
X117499217Y-115879961D01*
X117420739Y-115884369D01*
X117348000Y-115893305D01*
X117344073Y-115893954D01*
X117295257Y-115901661D01*
X117263005Y-115905273D01*
X117242008Y-115904676D01*
X117226954Y-115899754D01*
X117212534Y-115890396D01*
X117211364Y-115889525D01*
X117186847Y-115859151D01*
X117182054Y-115823650D01*
X117197860Y-115789069D01*
X117202406Y-115784613D01*
X117232020Y-115769473D01*
X117279002Y-115756350D01*
X117339306Y-115745550D01*
X117408888Y-115737381D01*
X117483703Y-115732151D01*
X117559706Y-115730167D01*
X117632853Y-115731736D01*
G36*
X117632853Y-115731736D02*
G01*
X117699100Y-115737166D01*
X117754400Y-115746764D01*
X117805283Y-115761625D01*
X117876595Y-115794758D01*
X117927752Y-115837440D01*
X117958575Y-115889505D01*
X117968889Y-115950783D01*
X117967952Y-115982032D01*
X117962160Y-116006829D01*
X117947353Y-116028499D01*
X117919380Y-116055849D01*
X117911402Y-116063178D01*
X117887692Y-116084081D01*
X117865298Y-116101051D01*
X117841265Y-116115005D01*
X117812637Y-116126856D01*
X117776460Y-116137520D01*
X117729780Y-116147911D01*
X117669641Y-116158946D01*
X117593090Y-116171538D01*
X117497171Y-116186604D01*
X117478808Y-116189638D01*
X117416478Y-116203258D01*
X117371260Y-116218992D01*
X117344976Y-116236063D01*
X117339447Y-116253697D01*
X117342068Y-116257968D01*
X117360000Y-116273033D01*
X117388126Y-116289667D01*
X117400926Y-116295657D01*
X117422224Y-116302850D01*
X117448610Y-116307627D01*
X117484454Y-116310446D01*
X117534128Y-116311764D01*
X117602000Y-116312037D01*
X117619785Y-116311964D01*
X117687406Y-116310853D01*
X117752345Y-116308628D01*
X117807970Y-116305562D01*
X117847651Y-116301927D01*
X117883162Y-116297859D01*
X117912415Y-116297076D01*
X117931315Y-116301676D01*
X117946429Y-116312351D01*
X117950085Y-116315944D01*
X117966427Y-116347718D01*
X117965107Y-116383372D01*
X117946150Y-116413990D01*
X117925780Y-116425596D01*
X117889796Y-116438291D01*
X117847372Y-116448341D01*
X117843922Y-116448940D01*
X117801252Y-116454156D01*
X117743866Y-116458530D01*
X117678849Y-116461618D01*
X117613289Y-116462977D01*
X117597057Y-116463018D01*
X117498744Y-116460541D01*
X117418692Y-116452535D01*
X117353513Y-116438003D01*
X117299817Y-116415949D01*
X117254216Y-116385376D01*
X117213323Y-116345286D01*
X117193202Y-116319059D01*
X117181576Y-116289512D01*
X117178667Y-116249795D01*
X117178808Y-116237826D01*
X117182681Y-116205145D01*
X117195065Y-116178619D01*
X117220230Y-116147771D01*
X117241442Y-116125631D01*
X117267838Y-116103085D01*
X117297555Y-116084717D01*
X117333785Y-116069461D01*
X117379717Y-116056249D01*
X117438544Y-116044014D01*
X117513456Y-116031689D01*
X117607645Y-116018206D01*
X117652957Y-116011196D01*
X117720911Y-115996637D01*
X117770047Y-115980137D01*
X117799614Y-115962239D01*
X117808864Y-115943485D01*
X117797048Y-115924415D01*
X117763416Y-115905571D01*
X117760370Y-115904357D01*
X117714011Y-115892279D01*
X117651361Y-115884079D01*
X117577927Y-115879919D01*
X117499217Y-115879961D01*
X117420739Y-115884369D01*
X117348000Y-115893305D01*
X117344073Y-115893954D01*
X117295257Y-115901661D01*
X117263005Y-115905273D01*
X117242008Y-115904676D01*
X117226954Y-115899754D01*
X117212534Y-115890396D01*
X117211364Y-115889525D01*
X117186847Y-115859151D01*
X117182054Y-115823650D01*
X117197860Y-115789069D01*
X117202406Y-115784613D01*
X117232020Y-115769473D01*
X117279002Y-115756350D01*
X117339306Y-115745550D01*
X117408888Y-115737381D01*
X117483703Y-115732151D01*
X117559706Y-115730167D01*
X117632853Y-115731736D01*
G37*
X113780711Y-111423833D02*
X113876268Y-111441323D01*
X114040558Y-111486364D01*
X114194589Y-111549456D01*
X114340509Y-111631715D01*
X114480466Y-111734257D01*
X114616608Y-111858199D01*
X114660473Y-111903461D01*
X114772758Y-112035665D01*
X114865972Y-112173632D01*
X114942719Y-112321550D01*
X115005603Y-112483603D01*
X115009420Y-112495191D01*
X115059507Y-112681192D01*
X115092899Y-112877321D01*
X115109584Y-113079368D01*
X115109551Y-113283125D01*
X115092791Y-113484381D01*
X115059292Y-113678928D01*
X115009044Y-113862556D01*
X114965190Y-113979853D01*
X114887348Y-114142751D01*
X114793828Y-114296666D01*
X114686822Y-114438471D01*
X114568519Y-114565039D01*
X114441111Y-114673241D01*
X114363606Y-114725920D01*
X114236725Y-114795550D01*
X114099243Y-114854268D01*
X113957716Y-114899387D01*
X113818702Y-114928222D01*
X113804597Y-114929906D01*
X113761153Y-114933234D01*
X113703723Y-114936075D01*
X113638122Y-114938173D01*
X113570167Y-114939268D01*
X113443378Y-114936940D01*
X113295673Y-114923936D01*
X113157779Y-114898933D01*
X113024014Y-114861118D01*
X113000562Y-114852689D01*
X112952612Y-114833208D01*
X112896140Y-114808273D01*
X112834379Y-114779522D01*
X112770563Y-114748590D01*
X112707926Y-114717115D01*
X112649703Y-114686734D01*
X112599127Y-114659083D01*
X112559433Y-114635799D01*
X112533854Y-114618518D01*
X112525625Y-114608879D01*
X112527076Y-114605784D01*
X112538250Y-114585879D01*
X112559134Y-114550220D01*
X112588265Y-114501259D01*
X112624181Y-114441446D01*
X112665420Y-114373233D01*
X112710517Y-114299071D01*
X112891785Y-114001808D01*
X112938315Y-114046339D01*
X113029723Y-114124665D01*
X113143334Y-114199239D01*
X113261122Y-114253274D01*
X113381559Y-114286090D01*
X113503117Y-114297011D01*
X113544585Y-114295668D01*
X113662080Y-114277412D01*
X113772089Y-114238417D01*
X113873430Y-114179470D01*
X113964921Y-114101357D01*
X114045380Y-114004864D01*
X114113627Y-113890778D01*
X114129908Y-113856524D01*
X114175982Y-113733040D01*
X114211106Y-113594718D01*
X114235197Y-113445361D01*
X114248173Y-113288773D01*
X114249949Y-113128756D01*
X114240443Y-112969114D01*
X114219572Y-112813650D01*
X114187252Y-112666166D01*
X114143399Y-112530467D01*
X114105982Y-112443876D01*
X114041185Y-112330488D01*
X113965772Y-112236870D01*
X113879418Y-112162759D01*
X113781795Y-112107894D01*
X113672577Y-112072012D01*
X113551439Y-112054851D01*
X113482038Y-112053680D01*
X113359168Y-112067941D01*
X113243664Y-112103041D01*
X113136953Y-112158482D01*
X113040464Y-112233764D01*
X113024720Y-112248240D01*
X112994150Y-112274762D01*
X112971809Y-112291938D01*
X112961691Y-112296587D01*
X112959706Y-112294397D01*
X112945241Y-112275521D01*
X112921400Y-112242197D01*
X112890029Y-112197180D01*
X112852974Y-112143225D01*
X112812083Y-112083085D01*
X112769202Y-112019518D01*
X112726178Y-111955276D01*
X112684857Y-111893115D01*
X112647086Y-111835791D01*
X112614712Y-111786057D01*
X112589582Y-111746668D01*
X112573542Y-111720380D01*
X112568439Y-111709947D01*
X112573050Y-111705741D01*
X112592267Y-111700733D01*
X112601838Y-111698186D01*
X112629809Y-111687049D01*
X112671448Y-111668602D01*
X112722995Y-111644525D01*
X112780690Y-111616499D01*
X112791957Y-111610954D01*
X112969687Y-111531689D01*
X113139490Y-111472185D01*
X113303430Y-111432045D01*
X113463571Y-111410871D01*
X113621977Y-111408266D01*
X113780711Y-111423833D01*
G36*
X113780711Y-111423833D02*
G01*
X113876268Y-111441323D01*
X114040558Y-111486364D01*
X114194589Y-111549456D01*
X114340509Y-111631715D01*
X114480466Y-111734257D01*
X114616608Y-111858199D01*
X114660473Y-111903461D01*
X114772758Y-112035665D01*
X114865972Y-112173632D01*
X114942719Y-112321550D01*
X115005603Y-112483603D01*
X115009420Y-112495191D01*
X115059507Y-112681192D01*
X115092899Y-112877321D01*
X115109584Y-113079368D01*
X115109551Y-113283125D01*
X115092791Y-113484381D01*
X115059292Y-113678928D01*
X115009044Y-113862556D01*
X114965190Y-113979853D01*
X114887348Y-114142751D01*
X114793828Y-114296666D01*
X114686822Y-114438471D01*
X114568519Y-114565039D01*
X114441111Y-114673241D01*
X114363606Y-114725920D01*
X114236725Y-114795550D01*
X114099243Y-114854268D01*
X113957716Y-114899387D01*
X113818702Y-114928222D01*
X113804597Y-114929906D01*
X113761153Y-114933234D01*
X113703723Y-114936075D01*
X113638122Y-114938173D01*
X113570167Y-114939268D01*
X113443378Y-114936940D01*
X113295673Y-114923936D01*
X113157779Y-114898933D01*
X113024014Y-114861118D01*
X113000562Y-114852689D01*
X112952612Y-114833208D01*
X112896140Y-114808273D01*
X112834379Y-114779522D01*
X112770563Y-114748590D01*
X112707926Y-114717115D01*
X112649703Y-114686734D01*
X112599127Y-114659083D01*
X112559433Y-114635799D01*
X112533854Y-114618518D01*
X112525625Y-114608879D01*
X112527076Y-114605784D01*
X112538250Y-114585879D01*
X112559134Y-114550220D01*
X112588265Y-114501259D01*
X112624181Y-114441446D01*
X112665420Y-114373233D01*
X112710517Y-114299071D01*
X112891785Y-114001808D01*
X112938315Y-114046339D01*
X113029723Y-114124665D01*
X113143334Y-114199239D01*
X113261122Y-114253274D01*
X113381559Y-114286090D01*
X113503117Y-114297011D01*
X113544585Y-114295668D01*
X113662080Y-114277412D01*
X113772089Y-114238417D01*
X113873430Y-114179470D01*
X113964921Y-114101357D01*
X114045380Y-114004864D01*
X114113627Y-113890778D01*
X114129908Y-113856524D01*
X114175982Y-113733040D01*
X114211106Y-113594718D01*
X114235197Y-113445361D01*
X114248173Y-113288773D01*
X114249949Y-113128756D01*
X114240443Y-112969114D01*
X114219572Y-112813650D01*
X114187252Y-112666166D01*
X114143399Y-112530467D01*
X114105982Y-112443876D01*
X114041185Y-112330488D01*
X113965772Y-112236870D01*
X113879418Y-112162759D01*
X113781795Y-112107894D01*
X113672577Y-112072012D01*
X113551439Y-112054851D01*
X113482038Y-112053680D01*
X113359168Y-112067941D01*
X113243664Y-112103041D01*
X113136953Y-112158482D01*
X113040464Y-112233764D01*
X113024720Y-112248240D01*
X112994150Y-112274762D01*
X112971809Y-112291938D01*
X112961691Y-112296587D01*
X112959706Y-112294397D01*
X112945241Y-112275521D01*
X112921400Y-112242197D01*
X112890029Y-112197180D01*
X112852974Y-112143225D01*
X112812083Y-112083085D01*
X112769202Y-112019518D01*
X112726178Y-111955276D01*
X112684857Y-111893115D01*
X112647086Y-111835791D01*
X112614712Y-111786057D01*
X112589582Y-111746668D01*
X112573542Y-111720380D01*
X112568439Y-111709947D01*
X112573050Y-111705741D01*
X112592267Y-111700733D01*
X112601838Y-111698186D01*
X112629809Y-111687049D01*
X112671448Y-111668602D01*
X112722995Y-111644525D01*
X112780690Y-111616499D01*
X112791957Y-111610954D01*
X112969687Y-111531689D01*
X113139490Y-111472185D01*
X113303430Y-111432045D01*
X113463571Y-111410871D01*
X113621977Y-111408266D01*
X113780711Y-111423833D01*
G37*
X109977994Y-113704511D02*
X109977268Y-113781958D01*
X109968689Y-113933394D01*
X109949833Y-114070083D01*
X109919837Y-114196076D01*
X109877836Y-114315425D01*
X109822969Y-114432181D01*
X109756167Y-114542979D01*
X109665363Y-114656539D01*
X109561708Y-114752011D01*
X109445887Y-114828873D01*
X109318586Y-114886597D01*
X109180489Y-114924658D01*
X109142793Y-114930466D01*
X109063752Y-114936196D01*
X108975629Y-114936383D01*
X108886236Y-114931339D01*
X108803384Y-114921378D01*
X108734887Y-114906812D01*
X108704035Y-114897164D01*
X108626730Y-114866923D01*
X108549679Y-114829417D01*
X108480200Y-114788414D01*
X108425615Y-114747679D01*
X108402916Y-114728305D01*
X108380201Y-114710462D01*
X108368779Y-114703578D01*
X108367537Y-114705224D01*
X108364728Y-114723005D01*
X108362776Y-114756170D01*
X108362045Y-114799533D01*
X108362045Y-114895489D01*
X107503896Y-114895489D01*
X107538161Y-114834774D01*
X107543355Y-114825668D01*
X107551715Y-114811049D01*
X107559288Y-114796973D01*
X107566112Y-114782340D01*
X107572227Y-114766049D01*
X107577673Y-114746998D01*
X107582487Y-114724086D01*
X107586708Y-114696213D01*
X107590377Y-114662278D01*
X107593531Y-114621179D01*
X107596211Y-114571815D01*
X107598454Y-114513086D01*
X107600299Y-114443890D01*
X107601787Y-114363126D01*
X107602955Y-114269694D01*
X107603844Y-114162492D01*
X107604491Y-114040420D01*
X107604936Y-113902376D01*
X107605218Y-113747259D01*
X107605375Y-113573968D01*
X107605448Y-113381403D01*
X107605474Y-113168462D01*
X107605485Y-113032330D01*
X108407200Y-113032330D01*
X108407200Y-114182521D01*
X108477756Y-114228889D01*
X108518417Y-114252591D01*
X108572546Y-114278439D01*
X108621689Y-114296629D01*
X108685165Y-114312351D01*
X108781331Y-114323341D01*
X108865900Y-114315165D01*
X108939219Y-114287605D01*
X109001637Y-114240442D01*
X109053502Y-114173458D01*
X109095160Y-114086433D01*
X109126962Y-113979150D01*
X109129545Y-113966809D01*
X109138000Y-113905572D01*
X109143663Y-113828492D01*
X109146576Y-113740802D01*
X109146783Y-113647734D01*
X109144330Y-113554520D01*
X109139261Y-113466394D01*
X109131619Y-113388588D01*
X109121448Y-113326333D01*
X109120167Y-113320466D01*
X109091126Y-113209921D01*
X109056610Y-113119375D01*
X109015456Y-113046753D01*
X108966499Y-112989981D01*
X108908574Y-112946984D01*
X108876620Y-112931415D01*
X108803784Y-112912522D01*
X108722443Y-112909265D01*
X108637319Y-112921189D01*
X108553133Y-112947840D01*
X108474608Y-112988762D01*
X108407200Y-113032330D01*
X107605485Y-113032330D01*
X107605493Y-112934045D01*
X107605689Y-111249178D01*
X108511017Y-111249178D01*
X108486585Y-111285867D01*
X108480318Y-111295447D01*
X108454208Y-111341781D01*
X108436469Y-111388902D01*
X108424908Y-111444051D01*
X108417331Y-111514467D01*
X108416839Y-111521450D01*
X108415062Y-111559441D01*
X108413444Y-111613376D01*
X108411999Y-111680503D01*
X108410740Y-111758071D01*
X108409680Y-111843328D01*
X108408829Y-111933524D01*
X108408203Y-112025907D01*
X108407812Y-112117725D01*
X108407670Y-112206227D01*
X108407790Y-112288662D01*
X108408183Y-112362279D01*
X108408862Y-112424326D01*
X108409841Y-112472051D01*
X108411132Y-112502704D01*
X108412747Y-112513533D01*
X108420957Y-112509133D01*
X108442647Y-112494162D01*
X108472014Y-112472248D01*
X108520879Y-112438036D01*
X108609125Y-112391514D01*
X108707916Y-112357846D01*
X108820510Y-112336031D01*
X108950164Y-112325065D01*
X109042670Y-112324019D01*
X109164011Y-112333814D01*
X109274099Y-112357974D01*
X109377389Y-112397585D01*
X109478338Y-112453732D01*
X109523503Y-112484683D01*
X109628911Y-112575915D01*
X109720538Y-112684906D01*
X109798332Y-112811526D01*
X109862241Y-112955645D01*
X109912214Y-113117132D01*
X109948198Y-113295859D01*
X109970143Y-113491695D01*
X109975900Y-113647734D01*
X109977994Y-113704511D01*
G36*
X109977994Y-113704511D02*
G01*
X109977268Y-113781958D01*
X109968689Y-113933394D01*
X109949833Y-114070083D01*
X109919837Y-114196076D01*
X109877836Y-114315425D01*
X109822969Y-114432181D01*
X109756167Y-114542979D01*
X109665363Y-114656539D01*
X109561708Y-114752011D01*
X109445887Y-114828873D01*
X109318586Y-114886597D01*
X109180489Y-114924658D01*
X109142793Y-114930466D01*
X109063752Y-114936196D01*
X108975629Y-114936383D01*
X108886236Y-114931339D01*
X108803384Y-114921378D01*
X108734887Y-114906812D01*
X108704035Y-114897164D01*
X108626730Y-114866923D01*
X108549679Y-114829417D01*
X108480200Y-114788414D01*
X108425615Y-114747679D01*
X108402916Y-114728305D01*
X108380201Y-114710462D01*
X108368779Y-114703578D01*
X108367537Y-114705224D01*
X108364728Y-114723005D01*
X108362776Y-114756170D01*
X108362045Y-114799533D01*
X108362045Y-114895489D01*
X107503896Y-114895489D01*
X107538161Y-114834774D01*
X107543355Y-114825668D01*
X107551715Y-114811049D01*
X107559288Y-114796973D01*
X107566112Y-114782340D01*
X107572227Y-114766049D01*
X107577673Y-114746998D01*
X107582487Y-114724086D01*
X107586708Y-114696213D01*
X107590377Y-114662278D01*
X107593531Y-114621179D01*
X107596211Y-114571815D01*
X107598454Y-114513086D01*
X107600299Y-114443890D01*
X107601787Y-114363126D01*
X107602955Y-114269694D01*
X107603844Y-114162492D01*
X107604491Y-114040420D01*
X107604936Y-113902376D01*
X107605218Y-113747259D01*
X107605375Y-113573968D01*
X107605448Y-113381403D01*
X107605474Y-113168462D01*
X107605485Y-113032330D01*
X108407200Y-113032330D01*
X108407200Y-114182521D01*
X108477756Y-114228889D01*
X108518417Y-114252591D01*
X108572546Y-114278439D01*
X108621689Y-114296629D01*
X108685165Y-114312351D01*
X108781331Y-114323341D01*
X108865900Y-114315165D01*
X108939219Y-114287605D01*
X109001637Y-114240442D01*
X109053502Y-114173458D01*
X109095160Y-114086433D01*
X109126962Y-113979150D01*
X109129545Y-113966809D01*
X109138000Y-113905572D01*
X109143663Y-113828492D01*
X109146576Y-113740802D01*
X109146783Y-113647734D01*
X109144330Y-113554520D01*
X109139261Y-113466394D01*
X109131619Y-113388588D01*
X109121448Y-113326333D01*
X109120167Y-113320466D01*
X109091126Y-113209921D01*
X109056610Y-113119375D01*
X109015456Y-113046753D01*
X108966499Y-112989981D01*
X108908574Y-112946984D01*
X108876620Y-112931415D01*
X108803784Y-112912522D01*
X108722443Y-112909265D01*
X108637319Y-112921189D01*
X108553133Y-112947840D01*
X108474608Y-112988762D01*
X108407200Y-113032330D01*
X107605485Y-113032330D01*
X107605493Y-112934045D01*
X107605689Y-111249178D01*
X108511017Y-111249178D01*
X108486585Y-111285867D01*
X108480318Y-111295447D01*
X108454208Y-111341781D01*
X108436469Y-111388902D01*
X108424908Y-111444051D01*
X108417331Y-111514467D01*
X108416839Y-111521450D01*
X108415062Y-111559441D01*
X108413444Y-111613376D01*
X108411999Y-111680503D01*
X108410740Y-111758071D01*
X108409680Y-111843328D01*
X108408829Y-111933524D01*
X108408203Y-112025907D01*
X108407812Y-112117725D01*
X108407670Y-112206227D01*
X108407790Y-112288662D01*
X108408183Y-112362279D01*
X108408862Y-112424326D01*
X108409841Y-112472051D01*
X108411132Y-112502704D01*
X108412747Y-112513533D01*
X108420957Y-112509133D01*
X108442647Y-112494162D01*
X108472014Y-112472248D01*
X108520879Y-112438036D01*
X108609125Y-112391514D01*
X108707916Y-112357846D01*
X108820510Y-112336031D01*
X108950164Y-112325065D01*
X109042670Y-112324019D01*
X109164011Y-112333814D01*
X109274099Y-112357974D01*
X109377389Y-112397585D01*
X109478338Y-112453732D01*
X109523503Y-112484683D01*
X109628911Y-112575915D01*
X109720538Y-112684906D01*
X109798332Y-112811526D01*
X109862241Y-112955645D01*
X109912214Y-113117132D01*
X109948198Y-113295859D01*
X109970143Y-113491695D01*
X109975900Y-113647734D01*
X109977994Y-113704511D01*
G37*
X112519755Y-114105267D02*
X112519261Y-114139163D01*
X112515632Y-114214002D01*
X112508022Y-114276201D01*
X112495688Y-114332784D01*
X112451313Y-114458876D01*
X112388400Y-114573479D01*
X112308238Y-114674368D01*
X112211740Y-114760724D01*
X112099822Y-114831732D01*
X111973397Y-114886576D01*
X111833378Y-114924438D01*
X111797149Y-114930151D01*
X111718155Y-114936113D01*
X111629841Y-114936446D01*
X111540075Y-114931459D01*
X111456722Y-114921466D01*
X111387651Y-114906778D01*
X111301187Y-114876549D01*
X111191286Y-114821857D01*
X111093956Y-114754343D01*
X111031867Y-114703356D01*
X111028605Y-114799422D01*
X111025343Y-114895489D01*
X110602450Y-114895489D01*
X110591543Y-114895486D01*
X110497056Y-114895180D01*
X110410331Y-114894416D01*
X110333837Y-114893251D01*
X110270043Y-114891742D01*
X110221418Y-114889947D01*
X110190433Y-114887921D01*
X110179556Y-114885722D01*
X110179578Y-114885263D01*
X110186614Y-114869710D01*
X110202434Y-114846871D01*
X110206734Y-114841438D01*
X110217777Y-114827406D01*
X110227311Y-114813986D01*
X110235461Y-114799522D01*
X110242352Y-114782356D01*
X110248111Y-114760834D01*
X110252862Y-114733298D01*
X110256731Y-114698092D01*
X110259844Y-114653560D01*
X110262325Y-114598046D01*
X110264300Y-114529893D01*
X110265894Y-114447445D01*
X110267234Y-114349046D01*
X110268444Y-114233039D01*
X110269649Y-114097768D01*
X110270595Y-113986386D01*
X111071378Y-113986386D01*
X111071378Y-114182262D01*
X111116048Y-114238773D01*
X111128785Y-114254012D01*
X111175604Y-114296644D01*
X111236255Y-114332472D01*
X111246897Y-114337650D01*
X111285676Y-114354545D01*
X111320692Y-114364709D01*
X111360722Y-114370125D01*
X111414541Y-114372778D01*
X111432648Y-114373183D01*
X111508011Y-114370340D01*
X111568743Y-114358420D01*
X111620452Y-114335837D01*
X111668746Y-114301011D01*
X111673803Y-114296598D01*
X111722272Y-114240960D01*
X111750459Y-114177133D01*
X111759752Y-114102082D01*
X111752520Y-114030493D01*
X111727796Y-113967445D01*
X111683249Y-113909558D01*
X111628319Y-113862608D01*
X111555894Y-113822761D01*
X111469340Y-113795063D01*
X111366670Y-113778896D01*
X111245894Y-113773642D01*
X111237007Y-113773657D01*
X111181660Y-113774455D01*
X111134736Y-113776288D01*
X111100953Y-113778911D01*
X111085028Y-113782074D01*
X111080943Y-113788541D01*
X111076572Y-113810675D01*
X111073604Y-113849788D01*
X111071914Y-113907739D01*
X111071378Y-113986386D01*
X110270595Y-113986386D01*
X110270975Y-113941578D01*
X110272228Y-113798812D01*
X110273651Y-113653742D01*
X110275176Y-113527827D01*
X110276933Y-113419236D01*
X110279051Y-113326134D01*
X110281660Y-113246691D01*
X110284890Y-113179073D01*
X110288869Y-113121449D01*
X110293728Y-113071985D01*
X110299597Y-113028850D01*
X110306604Y-112990210D01*
X110314880Y-112954234D01*
X110324554Y-112919089D01*
X110335756Y-112882942D01*
X110348616Y-112843961D01*
X110364090Y-112800891D01*
X110406994Y-112708671D01*
X110460735Y-112628899D01*
X110529576Y-112554765D01*
X110607185Y-112491205D01*
X110711761Y-112429525D01*
X110831244Y-112382002D01*
X110966508Y-112348367D01*
X111118426Y-112328352D01*
X111287872Y-112321689D01*
X111345890Y-112322087D01*
X111411398Y-112324135D01*
X111472693Y-112328504D01*
X111534097Y-112335835D01*
X111599932Y-112346769D01*
X111674520Y-112361947D01*
X111762184Y-112382009D01*
X111867245Y-112407597D01*
X111895806Y-112414620D01*
X111971054Y-112432576D01*
X112041388Y-112448620D01*
X112102567Y-112461828D01*
X112150354Y-112471274D01*
X112180511Y-112476031D01*
X112208783Y-112479710D01*
X112235060Y-112484987D01*
X112245059Y-112489742D01*
X112241952Y-112498581D01*
X112231194Y-112525872D01*
X112213864Y-112568706D01*
X112191126Y-112624225D01*
X112164147Y-112689572D01*
X112134090Y-112761889D01*
X112127493Y-112777679D01*
X112088907Y-112868284D01*
X112057768Y-112938017D01*
X112033917Y-112987205D01*
X112017198Y-113016174D01*
X112007454Y-113025252D01*
X111999766Y-113023205D01*
X111973415Y-113013560D01*
X111934982Y-112997990D01*
X111889822Y-112978615D01*
X111795293Y-112940614D01*
X111658480Y-112899580D01*
X111517289Y-112874412D01*
X111479314Y-112870411D01*
X111376059Y-112868247D01*
X111288952Y-112881422D01*
X111217129Y-112910556D01*
X111159731Y-112956266D01*
X111115896Y-113019172D01*
X111084762Y-113099892D01*
X111065470Y-113199045D01*
X111058050Y-113258024D01*
X111219936Y-113251245D01*
X111346495Y-113249613D01*
X111497951Y-113255994D01*
X111646396Y-113270577D01*
X111782578Y-113292682D01*
X111847245Y-113307621D01*
X111979490Y-113350541D01*
X112101762Y-113407140D01*
X112211685Y-113475817D01*
X112306883Y-113554970D01*
X112384980Y-113642996D01*
X112443599Y-113738293D01*
X112467595Y-113790664D01*
X112493232Y-113861390D01*
X112509478Y-113932612D01*
X112517822Y-114011512D01*
X112519690Y-114102082D01*
X112519755Y-114105267D01*
G36*
X112519755Y-114105267D02*
G01*
X112519261Y-114139163D01*
X112515632Y-114214002D01*
X112508022Y-114276201D01*
X112495688Y-114332784D01*
X112451313Y-114458876D01*
X112388400Y-114573479D01*
X112308238Y-114674368D01*
X112211740Y-114760724D01*
X112099822Y-114831732D01*
X111973397Y-114886576D01*
X111833378Y-114924438D01*
X111797149Y-114930151D01*
X111718155Y-114936113D01*
X111629841Y-114936446D01*
X111540075Y-114931459D01*
X111456722Y-114921466D01*
X111387651Y-114906778D01*
X111301187Y-114876549D01*
X111191286Y-114821857D01*
X111093956Y-114754343D01*
X111031867Y-114703356D01*
X111028605Y-114799422D01*
X111025343Y-114895489D01*
X110602450Y-114895489D01*
X110591543Y-114895486D01*
X110497056Y-114895180D01*
X110410331Y-114894416D01*
X110333837Y-114893251D01*
X110270043Y-114891742D01*
X110221418Y-114889947D01*
X110190433Y-114887921D01*
X110179556Y-114885722D01*
X110179578Y-114885263D01*
X110186614Y-114869710D01*
X110202434Y-114846871D01*
X110206734Y-114841438D01*
X110217777Y-114827406D01*
X110227311Y-114813986D01*
X110235461Y-114799522D01*
X110242352Y-114782356D01*
X110248111Y-114760834D01*
X110252862Y-114733298D01*
X110256731Y-114698092D01*
X110259844Y-114653560D01*
X110262325Y-114598046D01*
X110264300Y-114529893D01*
X110265894Y-114447445D01*
X110267234Y-114349046D01*
X110268444Y-114233039D01*
X110269649Y-114097768D01*
X110270595Y-113986386D01*
X111071378Y-113986386D01*
X111071378Y-114182262D01*
X111116048Y-114238773D01*
X111128785Y-114254012D01*
X111175604Y-114296644D01*
X111236255Y-114332472D01*
X111246897Y-114337650D01*
X111285676Y-114354545D01*
X111320692Y-114364709D01*
X111360722Y-114370125D01*
X111414541Y-114372778D01*
X111432648Y-114373183D01*
X111508011Y-114370340D01*
X111568743Y-114358420D01*
X111620452Y-114335837D01*
X111668746Y-114301011D01*
X111673803Y-114296598D01*
X111722272Y-114240960D01*
X111750459Y-114177133D01*
X111759752Y-114102082D01*
X111752520Y-114030493D01*
X111727796Y-113967445D01*
X111683249Y-113909558D01*
X111628319Y-113862608D01*
X111555894Y-113822761D01*
X111469340Y-113795063D01*
X111366670Y-113778896D01*
X111245894Y-113773642D01*
X111237007Y-113773657D01*
X111181660Y-113774455D01*
X111134736Y-113776288D01*
X111100953Y-113778911D01*
X111085028Y-113782074D01*
X111080943Y-113788541D01*
X111076572Y-113810675D01*
X111073604Y-113849788D01*
X111071914Y-113907739D01*
X111071378Y-113986386D01*
X110270595Y-113986386D01*
X110270975Y-113941578D01*
X110272228Y-113798812D01*
X110273651Y-113653742D01*
X110275176Y-113527827D01*
X110276933Y-113419236D01*
X110279051Y-113326134D01*
X110281660Y-113246691D01*
X110284890Y-113179073D01*
X110288869Y-113121449D01*
X110293728Y-113071985D01*
X110299597Y-113028850D01*
X110306604Y-112990210D01*
X110314880Y-112954234D01*
X110324554Y-112919089D01*
X110335756Y-112882942D01*
X110348616Y-112843961D01*
X110364090Y-112800891D01*
X110406994Y-112708671D01*
X110460735Y-112628899D01*
X110529576Y-112554765D01*
X110607185Y-112491205D01*
X110711761Y-112429525D01*
X110831244Y-112382002D01*
X110966508Y-112348367D01*
X111118426Y-112328352D01*
X111287872Y-112321689D01*
X111345890Y-112322087D01*
X111411398Y-112324135D01*
X111472693Y-112328504D01*
X111534097Y-112335835D01*
X111599932Y-112346769D01*
X111674520Y-112361947D01*
X111762184Y-112382009D01*
X111867245Y-112407597D01*
X111895806Y-112414620D01*
X111971054Y-112432576D01*
X112041388Y-112448620D01*
X112102567Y-112461828D01*
X112150354Y-112471274D01*
X112180511Y-112476031D01*
X112208783Y-112479710D01*
X112235060Y-112484987D01*
X112245059Y-112489742D01*
X112241952Y-112498581D01*
X112231194Y-112525872D01*
X112213864Y-112568706D01*
X112191126Y-112624225D01*
X112164147Y-112689572D01*
X112134090Y-112761889D01*
X112127493Y-112777679D01*
X112088907Y-112868284D01*
X112057768Y-112938017D01*
X112033917Y-112987205D01*
X112017198Y-113016174D01*
X112007454Y-113025252D01*
X111999766Y-113023205D01*
X111973415Y-113013560D01*
X111934982Y-112997990D01*
X111889822Y-112978615D01*
X111795293Y-112940614D01*
X111658480Y-112899580D01*
X111517289Y-112874412D01*
X111479314Y-112870411D01*
X111376059Y-112868247D01*
X111288952Y-112881422D01*
X111217129Y-112910556D01*
X111159731Y-112956266D01*
X111115896Y-113019172D01*
X111084762Y-113099892D01*
X111065470Y-113199045D01*
X111058050Y-113258024D01*
X111219936Y-113251245D01*
X111346495Y-113249613D01*
X111497951Y-113255994D01*
X111646396Y-113270577D01*
X111782578Y-113292682D01*
X111847245Y-113307621D01*
X111979490Y-113350541D01*
X112101762Y-113407140D01*
X112211685Y-113475817D01*
X112306883Y-113554970D01*
X112384980Y-113642996D01*
X112443599Y-113738293D01*
X112467595Y-113790664D01*
X112493232Y-113861390D01*
X112509478Y-113932612D01*
X112517822Y-114011512D01*
X112519690Y-114102082D01*
X112519755Y-114105267D01*
G37*
X120067614Y-111573592D02*
X120068059Y-111704811D01*
X120068362Y-111852016D01*
X120068548Y-112016149D01*
X120068642Y-112198152D01*
X120068671Y-112398965D01*
X120068661Y-112619532D01*
X120068636Y-112860792D01*
X120068622Y-113123689D01*
X120068622Y-113165840D01*
X120068646Y-113426468D01*
X120068685Y-113665596D01*
X120068708Y-113884160D01*
X120068687Y-114083095D01*
X120068593Y-114263335D01*
X120068395Y-114425815D01*
X120068063Y-114571470D01*
X120067569Y-114701234D01*
X120066883Y-114816043D01*
X120065976Y-114916830D01*
X120064817Y-115004530D01*
X120063378Y-115080079D01*
X120061629Y-115144411D01*
X120059540Y-115198461D01*
X120057083Y-115243163D01*
X120054227Y-115279452D01*
X120050943Y-115308263D01*
X120047202Y-115330531D01*
X120042974Y-115347190D01*
X120038229Y-115359175D01*
X120032939Y-115367421D01*
X120027073Y-115372862D01*
X120020602Y-115376434D01*
X120013497Y-115379070D01*
X120005728Y-115381706D01*
X119997266Y-115385277D01*
X119992908Y-115386945D01*
X119984395Y-115388911D01*
X119971694Y-115390711D01*
X119953885Y-115392355D01*
X119930049Y-115393847D01*
X119899266Y-115395197D01*
X119860617Y-115396411D01*
X119813182Y-115397497D01*
X119756043Y-115398461D01*
X119688279Y-115399311D01*
X119608971Y-115400053D01*
X119517199Y-115400697D01*
X119412044Y-115401247D01*
X119292587Y-115401713D01*
X119157908Y-115402100D01*
X119007088Y-115402416D01*
X118839206Y-115402669D01*
X118653345Y-115402866D01*
X118448583Y-115403013D01*
X118224002Y-115403118D01*
X117978682Y-115403189D01*
X117711704Y-115403232D01*
X117673321Y-115403237D01*
X117407922Y-115403280D01*
X117164050Y-115403325D01*
X116940783Y-115403348D01*
X116737196Y-115403324D01*
X116552367Y-115403230D01*
X116385373Y-115403043D01*
X116235290Y-115402739D01*
X116101196Y-115402294D01*
X115982166Y-115401685D01*
X115877279Y-115400889D01*
X115785610Y-115399880D01*
X115706237Y-115398637D01*
X115638237Y-115397135D01*
X115580686Y-115395351D01*
X115532662Y-115393261D01*
X115493240Y-115390842D01*
X115461499Y-115388070D01*
X115436514Y-115384921D01*
X115417364Y-115381372D01*
X115403123Y-115377398D01*
X115392871Y-115372978D01*
X115385682Y-115368086D01*
X115380635Y-115362700D01*
X115376805Y-115356796D01*
X115373271Y-115350349D01*
X115369108Y-115343337D01*
X115368025Y-115341487D01*
X115365813Y-115335980D01*
X115363786Y-115327668D01*
X115361938Y-115315609D01*
X115360261Y-115298863D01*
X115358745Y-115276487D01*
X115357383Y-115247540D01*
X115356167Y-115211080D01*
X115355089Y-115166167D01*
X115354140Y-115111857D01*
X115353312Y-115047210D01*
X115352597Y-114971284D01*
X115351987Y-114883138D01*
X115351942Y-114874293D01*
X115643378Y-114874293D01*
X115647260Y-114875565D01*
X115670520Y-114877591D01*
X115712874Y-114879426D01*
X115772132Y-114881027D01*
X115846107Y-114882349D01*
X115932610Y-114883348D01*
X116029452Y-114883980D01*
X116134445Y-114884200D01*
X116832651Y-114884200D01*
X117987090Y-114884200D01*
X117986456Y-114808000D01*
X117987574Y-114765960D01*
X117993304Y-114730134D01*
X118005890Y-114692572D01*
X118027568Y-114644377D01*
X118030789Y-114637697D01*
X118056188Y-114588159D01*
X118082996Y-114540169D01*
X118105917Y-114503266D01*
X118110485Y-114496634D01*
X118132516Y-114465393D01*
X118164693Y-114420454D01*
X118205457Y-114363947D01*
X118253245Y-114298004D01*
X118306498Y-114224757D01*
X118363655Y-114146336D01*
X118423155Y-114064872D01*
X118483437Y-113982498D01*
X118542940Y-113901344D01*
X118600105Y-113823542D01*
X118653370Y-113751223D01*
X118701174Y-113686518D01*
X118741957Y-113631559D01*
X118774158Y-113588476D01*
X118796216Y-113559402D01*
X118806571Y-113546467D01*
X118811044Y-113542151D01*
X118815236Y-113540112D01*
X118818643Y-113542726D01*
X118821325Y-113551786D01*
X118823341Y-113569085D01*
X118824748Y-113596414D01*
X118825605Y-113635565D01*
X118825970Y-113688333D01*
X118825903Y-113756507D01*
X118825460Y-113841882D01*
X118824702Y-113946249D01*
X118823685Y-114071400D01*
X118823308Y-114116100D01*
X118822169Y-114237195D01*
X118820972Y-114338488D01*
X118819636Y-114422062D01*
X118818077Y-114490004D01*
X118816215Y-114544399D01*
X118813966Y-114587332D01*
X118811248Y-114620889D01*
X118807979Y-114647155D01*
X118804078Y-114668216D01*
X118799461Y-114686157D01*
X118791192Y-114712570D01*
X118767583Y-114774572D01*
X118741685Y-114827373D01*
X118716535Y-114864445D01*
X118715339Y-114865875D01*
X118713168Y-114870224D01*
X118715328Y-114873826D01*
X118723644Y-114876751D01*
X118739940Y-114879069D01*
X118766041Y-114880851D01*
X118803771Y-114882167D01*
X118854956Y-114883086D01*
X118921420Y-114883678D01*
X119004987Y-114884015D01*
X119107483Y-114884165D01*
X119230732Y-114884200D01*
X119762296Y-114884200D01*
X119723523Y-114826583D01*
X119717432Y-114817693D01*
X119706976Y-114802869D01*
X119697579Y-114789222D01*
X119689183Y-114775565D01*
X119681733Y-114760711D01*
X119675173Y-114743470D01*
X119669446Y-114722655D01*
X119664495Y-114697080D01*
X119660266Y-114665555D01*
X119656701Y-114626893D01*
X119653744Y-114579907D01*
X119651340Y-114523408D01*
X119649431Y-114456209D01*
X119647962Y-114377122D01*
X119646876Y-114284960D01*
X119646118Y-114178534D01*
X119645630Y-114056657D01*
X119645358Y-113918141D01*
X119645243Y-113761799D01*
X119645231Y-113586442D01*
X119645265Y-113390882D01*
X119645289Y-113173933D01*
X119645280Y-113051313D01*
X119645243Y-112846247D01*
X119645227Y-112661916D01*
X119645288Y-112497134D01*
X119645484Y-112350716D01*
X119645870Y-112221474D01*
X119646505Y-112108222D01*
X119647444Y-112009775D01*
X119648745Y-111924944D01*
X119650464Y-111852544D01*
X119652659Y-111791389D01*
X119655385Y-111740292D01*
X119658701Y-111698067D01*
X119662662Y-111663527D01*
X119667325Y-111635486D01*
X119672747Y-111612758D01*
X119678986Y-111594156D01*
X119686097Y-111578493D01*
X119694138Y-111564584D01*
X119703166Y-111551241D01*
X119713236Y-111537279D01*
X119724407Y-111521511D01*
X119764197Y-111463667D01*
X118704314Y-111463667D01*
X118742311Y-111526766D01*
X118756993Y-111551805D01*
X118771531Y-111579386D01*
X118783627Y-111607500D01*
X118793532Y-111638351D01*
X118801494Y-111674144D01*
X118807761Y-111717083D01*
X118812582Y-111769374D01*
X118816206Y-111833219D01*
X118818881Y-111910825D01*
X118820857Y-112004394D01*
X118822382Y-112116133D01*
X118823704Y-112248245D01*
X118824613Y-112368234D01*
X118825020Y-112484863D01*
X118824767Y-112580331D01*
X118823857Y-112654356D01*
X118822293Y-112706655D01*
X118820079Y-112736949D01*
X118817220Y-112744956D01*
X118814161Y-112741658D01*
X118796006Y-112720208D01*
X118766275Y-112683689D01*
X118726639Y-112634242D01*
X118678771Y-112574007D01*
X118624343Y-112505127D01*
X118565027Y-112429743D01*
X118502495Y-112349996D01*
X118438421Y-112268028D01*
X118374475Y-112185980D01*
X118312331Y-112105994D01*
X118253661Y-112030211D01*
X118200137Y-111960773D01*
X118153430Y-111899821D01*
X118115214Y-111849496D01*
X118087161Y-111811940D01*
X118070943Y-111789295D01*
X118025635Y-111717012D01*
X117985661Y-111637263D01*
X117964130Y-111568988D01*
X117960827Y-111511644D01*
X117966116Y-111463667D01*
X116834356Y-111463917D01*
X116873867Y-111494522D01*
X116883248Y-111501889D01*
X116946183Y-111556238D01*
X117014997Y-111624059D01*
X117091596Y-111707316D01*
X117177888Y-111807978D01*
X117195052Y-111828647D01*
X117235833Y-111878209D01*
X117285588Y-111939126D01*
X117342955Y-112009698D01*
X117406569Y-112088224D01*
X117475069Y-112173004D01*
X117547090Y-112262337D01*
X117621270Y-112354522D01*
X117636517Y-112373502D01*
X117696246Y-112447860D01*
X117770653Y-112540648D01*
X117843131Y-112631188D01*
X117912314Y-112717778D01*
X117976841Y-112798718D01*
X118035347Y-112872306D01*
X118086470Y-112936844D01*
X118128847Y-112990629D01*
X118161115Y-113031962D01*
X118181910Y-113059142D01*
X118189869Y-113070468D01*
X118188111Y-113074571D01*
X118175230Y-113095134D01*
X118150885Y-113131361D01*
X118116247Y-113181624D01*
X118072486Y-113244292D01*
X118020775Y-113317736D01*
X117962284Y-113400327D01*
X117898184Y-113490436D01*
X117829646Y-113586431D01*
X117757843Y-113686685D01*
X117683944Y-113789568D01*
X117609121Y-113893450D01*
X117534545Y-113996701D01*
X117461387Y-114097692D01*
X117390819Y-114194794D01*
X117324011Y-114286377D01*
X117262135Y-114370811D01*
X117206361Y-114446467D01*
X117157862Y-114511716D01*
X117117807Y-114564928D01*
X117087369Y-114604473D01*
X117066944Y-114629826D01*
X117020899Y-114684095D01*
X116970612Y-114740575D01*
X116923815Y-114790469D01*
X116832651Y-114884200D01*
X116134445Y-114884200D01*
X116203356Y-114884149D01*
X116301607Y-114883891D01*
X116391030Y-114883437D01*
X116469333Y-114882810D01*
X116534223Y-114882035D01*
X116583411Y-114881135D01*
X116614604Y-114880134D01*
X116625511Y-114879057D01*
X116624322Y-114875837D01*
X116614176Y-114858252D01*
X116597040Y-114831958D01*
X116588540Y-114819491D01*
X116579329Y-114805422D01*
X116571233Y-114791151D01*
X116564185Y-114775279D01*
X116558117Y-114756409D01*
X116552961Y-114733141D01*
X116548651Y-114704078D01*
X116545119Y-114667821D01*
X116542297Y-114622970D01*
X116540118Y-114568128D01*
X116538514Y-114501897D01*
X116537419Y-114422877D01*
X116536765Y-114329671D01*
X116536484Y-114220879D01*
X116536509Y-114095103D01*
X116536772Y-113950945D01*
X116537206Y-113787007D01*
X116537745Y-113601889D01*
X116538279Y-113423032D01*
X116538805Y-113264174D01*
X116539350Y-113125116D01*
X116539945Y-113004465D01*
X116540619Y-112900828D01*
X116541403Y-112812811D01*
X116542326Y-112739023D01*
X116543419Y-112678069D01*
X116544712Y-112628557D01*
X116546235Y-112589093D01*
X116548019Y-112558284D01*
X116550092Y-112534738D01*
X116552486Y-112517060D01*
X116555230Y-112503859D01*
X116558356Y-112493740D01*
X116561892Y-112485311D01*
X116565791Y-112477175D01*
X116585438Y-112440344D01*
X116604225Y-112410191D01*
X116605272Y-112408708D01*
X116619602Y-112386459D01*
X116625511Y-112373502D01*
X116624504Y-112373049D01*
X116607305Y-112371603D01*
X116570656Y-112370280D01*
X116516962Y-112369116D01*
X116448630Y-112368147D01*
X116368064Y-112367411D01*
X116277670Y-112366942D01*
X116179853Y-112366778D01*
X115734195Y-112366778D01*
X115731120Y-113543645D01*
X115728045Y-114720511D01*
X115701407Y-114779422D01*
X115689485Y-114803983D01*
X115672246Y-114834234D01*
X115659074Y-114851360D01*
X115651076Y-114859391D01*
X115643378Y-114874293D01*
X115351942Y-114874293D01*
X115351474Y-114781829D01*
X115351050Y-114666417D01*
X115350706Y-114535960D01*
X115350434Y-114389516D01*
X115350227Y-114226144D01*
X115350076Y-114044901D01*
X115349972Y-113844848D01*
X115349908Y-113625041D01*
X115349876Y-113384539D01*
X115349867Y-113122402D01*
X115349867Y-110930831D01*
X115388249Y-110892449D01*
X115415355Y-110868711D01*
X115442253Y-110856911D01*
X115478560Y-110854067D01*
X115530489Y-110854067D01*
X115530489Y-110942006D01*
X115532427Y-110991902D01*
X115551199Y-111102323D01*
X115588217Y-111203787D01*
X115641369Y-111294952D01*
X115708546Y-111374473D01*
X115787638Y-111441005D01*
X115876534Y-111493206D01*
X115973125Y-111529730D01*
X116075300Y-111549234D01*
X116180950Y-111550373D01*
X116287964Y-111531805D01*
X116394232Y-111492184D01*
X116491219Y-111434316D01*
X116576293Y-111359484D01*
X116645015Y-111271415D01*
X116695918Y-111172416D01*
X116727535Y-111064793D01*
X116738400Y-110950854D01*
X116738400Y-110854067D01*
X118358753Y-110854067D01*
X118569897Y-110854080D01*
X118774020Y-110854130D01*
X118957686Y-110854230D01*
X119121991Y-110854392D01*
X119268029Y-110854629D01*
X119396894Y-110854953D01*
X119509683Y-110855375D01*
X119607488Y-110855909D01*
X119691404Y-110856567D01*
X119762527Y-110857361D01*
X119821950Y-110858304D01*
X119870768Y-110859408D01*
X119910077Y-110860684D01*
X119940969Y-110862147D01*
X119964541Y-110863807D01*
X119981886Y-110865678D01*
X119994099Y-110867772D01*
X120002275Y-110870100D01*
X120007508Y-110872676D01*
X120013504Y-110876245D01*
X120020279Y-110879778D01*
X120026478Y-110883288D01*
X120032126Y-110887718D01*
X120037247Y-110894008D01*
X120041869Y-110903101D01*
X120046015Y-110915939D01*
X120049713Y-110933462D01*
X120052987Y-110956613D01*
X120055863Y-110986334D01*
X120058367Y-111023565D01*
X120060524Y-111069249D01*
X120062360Y-111124327D01*
X120063900Y-111189741D01*
X120065170Y-111266433D01*
X120066195Y-111355344D01*
X120067001Y-111457417D01*
X120067034Y-111463667D01*
X120067614Y-111573592D01*
G36*
X120067614Y-111573592D02*
G01*
X120068059Y-111704811D01*
X120068362Y-111852016D01*
X120068548Y-112016149D01*
X120068642Y-112198152D01*
X120068671Y-112398965D01*
X120068661Y-112619532D01*
X120068636Y-112860792D01*
X120068622Y-113123689D01*
X120068622Y-113165840D01*
X120068646Y-113426468D01*
X120068685Y-113665596D01*
X120068708Y-113884160D01*
X120068687Y-114083095D01*
X120068593Y-114263335D01*
X120068395Y-114425815D01*
X120068063Y-114571470D01*
X120067569Y-114701234D01*
X120066883Y-114816043D01*
X120065976Y-114916830D01*
X120064817Y-115004530D01*
X120063378Y-115080079D01*
X120061629Y-115144411D01*
X120059540Y-115198461D01*
X120057083Y-115243163D01*
X120054227Y-115279452D01*
X120050943Y-115308263D01*
X120047202Y-115330531D01*
X120042974Y-115347190D01*
X120038229Y-115359175D01*
X120032939Y-115367421D01*
X120027073Y-115372862D01*
X120020602Y-115376434D01*
X120013497Y-115379070D01*
X120005728Y-115381706D01*
X119997266Y-115385277D01*
X119992908Y-115386945D01*
X119984395Y-115388911D01*
X119971694Y-115390711D01*
X119953885Y-115392355D01*
X119930049Y-115393847D01*
X119899266Y-115395197D01*
X119860617Y-115396411D01*
X119813182Y-115397497D01*
X119756043Y-115398461D01*
X119688279Y-115399311D01*
X119608971Y-115400053D01*
X119517199Y-115400697D01*
X119412044Y-115401247D01*
X119292587Y-115401713D01*
X119157908Y-115402100D01*
X119007088Y-115402416D01*
X118839206Y-115402669D01*
X118653345Y-115402866D01*
X118448583Y-115403013D01*
X118224002Y-115403118D01*
X117978682Y-115403189D01*
X117711704Y-115403232D01*
X117673321Y-115403237D01*
X117407922Y-115403280D01*
X117164050Y-115403325D01*
X116940783Y-115403348D01*
X116737196Y-115403324D01*
X116552367Y-115403230D01*
X116385373Y-115403043D01*
X116235290Y-115402739D01*
X116101196Y-115402294D01*
X115982166Y-115401685D01*
X115877279Y-115400889D01*
X115785610Y-115399880D01*
X115706237Y-115398637D01*
X115638237Y-115397135D01*
X115580686Y-115395351D01*
X115532662Y-115393261D01*
X115493240Y-115390842D01*
X115461499Y-115388070D01*
X115436514Y-115384921D01*
X115417364Y-115381372D01*
X115403123Y-115377398D01*
X115392871Y-115372978D01*
X115385682Y-115368086D01*
X115380635Y-115362700D01*
X115376805Y-115356796D01*
X115373271Y-115350349D01*
X115369108Y-115343337D01*
X115368025Y-115341487D01*
X115365813Y-115335980D01*
X115363786Y-115327668D01*
X115361938Y-115315609D01*
X115360261Y-115298863D01*
X115358745Y-115276487D01*
X115357383Y-115247540D01*
X115356167Y-115211080D01*
X115355089Y-115166167D01*
X115354140Y-115111857D01*
X115353312Y-115047210D01*
X115352597Y-114971284D01*
X115351987Y-114883138D01*
X115351942Y-114874293D01*
X115643378Y-114874293D01*
X115647260Y-114875565D01*
X115670520Y-114877591D01*
X115712874Y-114879426D01*
X115772132Y-114881027D01*
X115846107Y-114882349D01*
X115932610Y-114883348D01*
X116029452Y-114883980D01*
X116134445Y-114884200D01*
X116832651Y-114884200D01*
X117987090Y-114884200D01*
X117986456Y-114808000D01*
X117987574Y-114765960D01*
X117993304Y-114730134D01*
X118005890Y-114692572D01*
X118027568Y-114644377D01*
X118030789Y-114637697D01*
X118056188Y-114588159D01*
X118082996Y-114540169D01*
X118105917Y-114503266D01*
X118110485Y-114496634D01*
X118132516Y-114465393D01*
X118164693Y-114420454D01*
X118205457Y-114363947D01*
X118253245Y-114298004D01*
X118306498Y-114224757D01*
X118363655Y-114146336D01*
X118423155Y-114064872D01*
X118483437Y-113982498D01*
X118542940Y-113901344D01*
X118600105Y-113823542D01*
X118653370Y-113751223D01*
X118701174Y-113686518D01*
X118741957Y-113631559D01*
X118774158Y-113588476D01*
X118796216Y-113559402D01*
X118806571Y-113546467D01*
X118811044Y-113542151D01*
X118815236Y-113540112D01*
X118818643Y-113542726D01*
X118821325Y-113551786D01*
X118823341Y-113569085D01*
X118824748Y-113596414D01*
X118825605Y-113635565D01*
X118825970Y-113688333D01*
X118825903Y-113756507D01*
X118825460Y-113841882D01*
X118824702Y-113946249D01*
X118823685Y-114071400D01*
X118823308Y-114116100D01*
X118822169Y-114237195D01*
X118820972Y-114338488D01*
X118819636Y-114422062D01*
X118818077Y-114490004D01*
X118816215Y-114544399D01*
X118813966Y-114587332D01*
X118811248Y-114620889D01*
X118807979Y-114647155D01*
X118804078Y-114668216D01*
X118799461Y-114686157D01*
X118791192Y-114712570D01*
X118767583Y-114774572D01*
X118741685Y-114827373D01*
X118716535Y-114864445D01*
X118715339Y-114865875D01*
X118713168Y-114870224D01*
X118715328Y-114873826D01*
X118723644Y-114876751D01*
X118739940Y-114879069D01*
X118766041Y-114880851D01*
X118803771Y-114882167D01*
X118854956Y-114883086D01*
X118921420Y-114883678D01*
X119004987Y-114884015D01*
X119107483Y-114884165D01*
X119230732Y-114884200D01*
X119762296Y-114884200D01*
X119723523Y-114826583D01*
X119717432Y-114817693D01*
X119706976Y-114802869D01*
X119697579Y-114789222D01*
X119689183Y-114775565D01*
X119681733Y-114760711D01*
X119675173Y-114743470D01*
X119669446Y-114722655D01*
X119664495Y-114697080D01*
X119660266Y-114665555D01*
X119656701Y-114626893D01*
X119653744Y-114579907D01*
X119651340Y-114523408D01*
X119649431Y-114456209D01*
X119647962Y-114377122D01*
X119646876Y-114284960D01*
X119646118Y-114178534D01*
X119645630Y-114056657D01*
X119645358Y-113918141D01*
X119645243Y-113761799D01*
X119645231Y-113586442D01*
X119645265Y-113390882D01*
X119645289Y-113173933D01*
X119645280Y-113051313D01*
X119645243Y-112846247D01*
X119645227Y-112661916D01*
X119645288Y-112497134D01*
X119645484Y-112350716D01*
X119645870Y-112221474D01*
X119646505Y-112108222D01*
X119647444Y-112009775D01*
X119648745Y-111924944D01*
X119650464Y-111852544D01*
X119652659Y-111791389D01*
X119655385Y-111740292D01*
X119658701Y-111698067D01*
X119662662Y-111663527D01*
X119667325Y-111635486D01*
X119672747Y-111612758D01*
X119678986Y-111594156D01*
X119686097Y-111578493D01*
X119694138Y-111564584D01*
X119703166Y-111551241D01*
X119713236Y-111537279D01*
X119724407Y-111521511D01*
X119764197Y-111463667D01*
X118704314Y-111463667D01*
X118742311Y-111526766D01*
X118756993Y-111551805D01*
X118771531Y-111579386D01*
X118783627Y-111607500D01*
X118793532Y-111638351D01*
X118801494Y-111674144D01*
X118807761Y-111717083D01*
X118812582Y-111769374D01*
X118816206Y-111833219D01*
X118818881Y-111910825D01*
X118820857Y-112004394D01*
X118822382Y-112116133D01*
X118823704Y-112248245D01*
X118824613Y-112368234D01*
X118825020Y-112484863D01*
X118824767Y-112580331D01*
X118823857Y-112654356D01*
X118822293Y-112706655D01*
X118820079Y-112736949D01*
X118817220Y-112744956D01*
X118814161Y-112741658D01*
X118796006Y-112720208D01*
X118766275Y-112683689D01*
X118726639Y-112634242D01*
X118678771Y-112574007D01*
X118624343Y-112505127D01*
X118565027Y-112429743D01*
X118502495Y-112349996D01*
X118438421Y-112268028D01*
X118374475Y-112185980D01*
X118312331Y-112105994D01*
X118253661Y-112030211D01*
X118200137Y-111960773D01*
X118153430Y-111899821D01*
X118115214Y-111849496D01*
X118087161Y-111811940D01*
X118070943Y-111789295D01*
X118025635Y-111717012D01*
X117985661Y-111637263D01*
X117964130Y-111568988D01*
X117960827Y-111511644D01*
X117966116Y-111463667D01*
X116834356Y-111463917D01*
X116873867Y-111494522D01*
X116883248Y-111501889D01*
X116946183Y-111556238D01*
X117014997Y-111624059D01*
X117091596Y-111707316D01*
X117177888Y-111807978D01*
X117195052Y-111828647D01*
X117235833Y-111878209D01*
X117285588Y-111939126D01*
X117342955Y-112009698D01*
X117406569Y-112088224D01*
X117475069Y-112173004D01*
X117547090Y-112262337D01*
X117621270Y-112354522D01*
X117636517Y-112373502D01*
X117696246Y-112447860D01*
X117770653Y-112540648D01*
X117843131Y-112631188D01*
X117912314Y-112717778D01*
X117976841Y-112798718D01*
X118035347Y-112872306D01*
X118086470Y-112936844D01*
X118128847Y-112990629D01*
X118161115Y-113031962D01*
X118181910Y-113059142D01*
X118189869Y-113070468D01*
X118188111Y-113074571D01*
X118175230Y-113095134D01*
X118150885Y-113131361D01*
X118116247Y-113181624D01*
X118072486Y-113244292D01*
X118020775Y-113317736D01*
X117962284Y-113400327D01*
X117898184Y-113490436D01*
X117829646Y-113586431D01*
X117757843Y-113686685D01*
X117683944Y-113789568D01*
X117609121Y-113893450D01*
X117534545Y-113996701D01*
X117461387Y-114097692D01*
X117390819Y-114194794D01*
X117324011Y-114286377D01*
X117262135Y-114370811D01*
X117206361Y-114446467D01*
X117157862Y-114511716D01*
X117117807Y-114564928D01*
X117087369Y-114604473D01*
X117066944Y-114629826D01*
X117020899Y-114684095D01*
X116970612Y-114740575D01*
X116923815Y-114790469D01*
X116832651Y-114884200D01*
X116134445Y-114884200D01*
X116203356Y-114884149D01*
X116301607Y-114883891D01*
X116391030Y-114883437D01*
X116469333Y-114882810D01*
X116534223Y-114882035D01*
X116583411Y-114881135D01*
X116614604Y-114880134D01*
X116625511Y-114879057D01*
X116624322Y-114875837D01*
X116614176Y-114858252D01*
X116597040Y-114831958D01*
X116588540Y-114819491D01*
X116579329Y-114805422D01*
X116571233Y-114791151D01*
X116564185Y-114775279D01*
X116558117Y-114756409D01*
X116552961Y-114733141D01*
X116548651Y-114704078D01*
X116545119Y-114667821D01*
X116542297Y-114622970D01*
X116540118Y-114568128D01*
X116538514Y-114501897D01*
X116537419Y-114422877D01*
X116536765Y-114329671D01*
X116536484Y-114220879D01*
X116536509Y-114095103D01*
X116536772Y-113950945D01*
X116537206Y-113787007D01*
X116537745Y-113601889D01*
X116538279Y-113423032D01*
X116538805Y-113264174D01*
X116539350Y-113125116D01*
X116539945Y-113004465D01*
X116540619Y-112900828D01*
X116541403Y-112812811D01*
X116542326Y-112739023D01*
X116543419Y-112678069D01*
X116544712Y-112628557D01*
X116546235Y-112589093D01*
X116548019Y-112558284D01*
X116550092Y-112534738D01*
X116552486Y-112517060D01*
X116555230Y-112503859D01*
X116558356Y-112493740D01*
X116561892Y-112485311D01*
X116565791Y-112477175D01*
X116585438Y-112440344D01*
X116604225Y-112410191D01*
X116605272Y-112408708D01*
X116619602Y-112386459D01*
X116625511Y-112373502D01*
X116624504Y-112373049D01*
X116607305Y-112371603D01*
X116570656Y-112370280D01*
X116516962Y-112369116D01*
X116448630Y-112368147D01*
X116368064Y-112367411D01*
X116277670Y-112366942D01*
X116179853Y-112366778D01*
X115734195Y-112366778D01*
X115731120Y-113543645D01*
X115728045Y-114720511D01*
X115701407Y-114779422D01*
X115689485Y-114803983D01*
X115672246Y-114834234D01*
X115659074Y-114851360D01*
X115651076Y-114859391D01*
X115643378Y-114874293D01*
X115351942Y-114874293D01*
X115351474Y-114781829D01*
X115351050Y-114666417D01*
X115350706Y-114535960D01*
X115350434Y-114389516D01*
X115350227Y-114226144D01*
X115350076Y-114044901D01*
X115349972Y-113844848D01*
X115349908Y-113625041D01*
X115349876Y-113384539D01*
X115349867Y-113122402D01*
X115349867Y-110930831D01*
X115388249Y-110892449D01*
X115415355Y-110868711D01*
X115442253Y-110856911D01*
X115478560Y-110854067D01*
X115530489Y-110854067D01*
X115530489Y-110942006D01*
X115532427Y-110991902D01*
X115551199Y-111102323D01*
X115588217Y-111203787D01*
X115641369Y-111294952D01*
X115708546Y-111374473D01*
X115787638Y-111441005D01*
X115876534Y-111493206D01*
X115973125Y-111529730D01*
X116075300Y-111549234D01*
X116180950Y-111550373D01*
X116287964Y-111531805D01*
X116394232Y-111492184D01*
X116491219Y-111434316D01*
X116576293Y-111359484D01*
X116645015Y-111271415D01*
X116695918Y-111172416D01*
X116727535Y-111064793D01*
X116738400Y-110950854D01*
X116738400Y-110854067D01*
X118358753Y-110854067D01*
X118569897Y-110854080D01*
X118774020Y-110854130D01*
X118957686Y-110854230D01*
X119121991Y-110854392D01*
X119268029Y-110854629D01*
X119396894Y-110854953D01*
X119509683Y-110855375D01*
X119607488Y-110855909D01*
X119691404Y-110856567D01*
X119762527Y-110857361D01*
X119821950Y-110858304D01*
X119870768Y-110859408D01*
X119910077Y-110860684D01*
X119940969Y-110862147D01*
X119964541Y-110863807D01*
X119981886Y-110865678D01*
X119994099Y-110867772D01*
X120002275Y-110870100D01*
X120007508Y-110872676D01*
X120013504Y-110876245D01*
X120020279Y-110879778D01*
X120026478Y-110883288D01*
X120032126Y-110887718D01*
X120037247Y-110894008D01*
X120041869Y-110903101D01*
X120046015Y-110915939D01*
X120049713Y-110933462D01*
X120052987Y-110956613D01*
X120055863Y-110986334D01*
X120058367Y-111023565D01*
X120060524Y-111069249D01*
X120062360Y-111124327D01*
X120063900Y-111189741D01*
X120065170Y-111266433D01*
X120066195Y-111355344D01*
X120067001Y-111457417D01*
X120067034Y-111463667D01*
X120067614Y-111573592D01*
G37*
%TD*%
M02*
