%TF.GenerationSoftware,KiCad,Pcbnew,9.0.1*%
%TF.CreationDate,2025-08-14T16:00:01+05:30*%
%TF.ProjectId,TinySolarSupply,54696e79-536f-46c6-9172-537570706c79,rev?*%
%TF.SameCoordinates,Original*%
%TF.FileFunction,AssemblyDrawing,Top*%
%FSLAX46Y46*%
G04 Gerber Fmt 4.6, Leading zero omitted, Abs format (unit mm)*
G04 Created by KiCad (PCBNEW 9.0.1) date 2025-08-14 16:00:01*
%MOMM*%
%LPD*%
G01*
G04 APERTURE LIST*
%ADD10C,0.150000*%
%ADD11C,0.080000*%
%ADD12C,0.075000*%
%ADD13C,0.090000*%
%ADD14C,0.120000*%
%ADD15C,0.050000*%
%ADD16C,0.100000*%
%ADD17C,0.025400*%
G04 APERTURE END LIST*
D10*
X106780219Y-114702885D02*
X106780219Y-115274313D01*
X106780219Y-114988599D02*
X105780219Y-114988599D01*
X105780219Y-114988599D02*
X105923076Y-115083837D01*
X105923076Y-115083837D02*
X106018314Y-115179075D01*
X106018314Y-115179075D02*
X106065933Y-115274313D01*
X105780219Y-114083837D02*
X105780219Y-113988599D01*
X105780219Y-113988599D02*
X105827838Y-113893361D01*
X105827838Y-113893361D02*
X105875457Y-113845742D01*
X105875457Y-113845742D02*
X105970695Y-113798123D01*
X105970695Y-113798123D02*
X106161171Y-113750504D01*
X106161171Y-113750504D02*
X106399266Y-113750504D01*
X106399266Y-113750504D02*
X106589742Y-113798123D01*
X106589742Y-113798123D02*
X106684980Y-113845742D01*
X106684980Y-113845742D02*
X106732600Y-113893361D01*
X106732600Y-113893361D02*
X106780219Y-113988599D01*
X106780219Y-113988599D02*
X106780219Y-114083837D01*
X106780219Y-114083837D02*
X106732600Y-114179075D01*
X106732600Y-114179075D02*
X106684980Y-114226694D01*
X106684980Y-114226694D02*
X106589742Y-114274313D01*
X106589742Y-114274313D02*
X106399266Y-114321932D01*
X106399266Y-114321932D02*
X106161171Y-114321932D01*
X106161171Y-114321932D02*
X105970695Y-114274313D01*
X105970695Y-114274313D02*
X105875457Y-114226694D01*
X105875457Y-114226694D02*
X105827838Y-114179075D01*
X105827838Y-114179075D02*
X105780219Y-114083837D01*
X106780219Y-113321932D02*
X105780219Y-113321932D01*
X106780219Y-112750504D02*
X106208790Y-113179075D01*
X105780219Y-112750504D02*
X106351647Y-113321932D01*
X105780219Y-111369551D02*
X105780219Y-111179075D01*
X105780219Y-111179075D02*
X105827838Y-111083837D01*
X105827838Y-111083837D02*
X105923076Y-110988599D01*
X105923076Y-110988599D02*
X106113552Y-110940980D01*
X106113552Y-110940980D02*
X106446885Y-110940980D01*
X106446885Y-110940980D02*
X106637361Y-110988599D01*
X106637361Y-110988599D02*
X106732600Y-111083837D01*
X106732600Y-111083837D02*
X106780219Y-111179075D01*
X106780219Y-111179075D02*
X106780219Y-111369551D01*
X106780219Y-111369551D02*
X106732600Y-111464789D01*
X106732600Y-111464789D02*
X106637361Y-111560027D01*
X106637361Y-111560027D02*
X106446885Y-111607646D01*
X106446885Y-111607646D02*
X106113552Y-111607646D01*
X106113552Y-111607646D02*
X105923076Y-111560027D01*
X105923076Y-111560027D02*
X105827838Y-111464789D01*
X105827838Y-111464789D02*
X105780219Y-111369551D01*
X106780219Y-110512408D02*
X105780219Y-110512408D01*
X106780219Y-110083837D02*
X106256409Y-110083837D01*
X106256409Y-110083837D02*
X106161171Y-110131456D01*
X106161171Y-110131456D02*
X106113552Y-110226694D01*
X106113552Y-110226694D02*
X106113552Y-110369551D01*
X106113552Y-110369551D02*
X106161171Y-110464789D01*
X106161171Y-110464789D02*
X106208790Y-110512408D01*
X106780219Y-109607646D02*
X106113552Y-109607646D01*
X106208790Y-109607646D02*
X106161171Y-109560027D01*
X106161171Y-109560027D02*
X106113552Y-109464789D01*
X106113552Y-109464789D02*
X106113552Y-109321932D01*
X106113552Y-109321932D02*
X106161171Y-109226694D01*
X106161171Y-109226694D02*
X106256409Y-109179075D01*
X106256409Y-109179075D02*
X106780219Y-109179075D01*
X106256409Y-109179075D02*
X106161171Y-109131456D01*
X106161171Y-109131456D02*
X106113552Y-109036218D01*
X106113552Y-109036218D02*
X106113552Y-108893361D01*
X106113552Y-108893361D02*
X106161171Y-108798122D01*
X106161171Y-108798122D02*
X106256409Y-108750503D01*
X106256409Y-108750503D02*
X106780219Y-108750503D01*
D11*
X108202549Y-112071933D02*
X107964454Y-112238599D01*
X108202549Y-112357647D02*
X107702549Y-112357647D01*
X107702549Y-112357647D02*
X107702549Y-112167171D01*
X107702549Y-112167171D02*
X107726359Y-112119552D01*
X107726359Y-112119552D02*
X107750168Y-112095742D01*
X107750168Y-112095742D02*
X107797787Y-112071933D01*
X107797787Y-112071933D02*
X107869216Y-112071933D01*
X107869216Y-112071933D02*
X107916835Y-112095742D01*
X107916835Y-112095742D02*
X107940644Y-112119552D01*
X107940644Y-112119552D02*
X107964454Y-112167171D01*
X107964454Y-112167171D02*
X107964454Y-112357647D01*
X107702549Y-111905266D02*
X107702549Y-111595742D01*
X107702549Y-111595742D02*
X107893025Y-111762409D01*
X107893025Y-111762409D02*
X107893025Y-111690980D01*
X107893025Y-111690980D02*
X107916835Y-111643361D01*
X107916835Y-111643361D02*
X107940644Y-111619552D01*
X107940644Y-111619552D02*
X107988263Y-111595742D01*
X107988263Y-111595742D02*
X108107311Y-111595742D01*
X108107311Y-111595742D02*
X108154930Y-111619552D01*
X108154930Y-111619552D02*
X108178740Y-111643361D01*
X108178740Y-111643361D02*
X108202549Y-111690980D01*
X108202549Y-111690980D02*
X108202549Y-111833837D01*
X108202549Y-111833837D02*
X108178740Y-111881456D01*
X108178740Y-111881456D02*
X108154930Y-111905266D01*
D10*
X116700514Y-100332100D02*
X116843371Y-100379719D01*
X116843371Y-100379719D02*
X117081466Y-100379719D01*
X117081466Y-100379719D02*
X117176704Y-100332100D01*
X117176704Y-100332100D02*
X117224323Y-100284480D01*
X117224323Y-100284480D02*
X117271942Y-100189242D01*
X117271942Y-100189242D02*
X117271942Y-100094004D01*
X117271942Y-100094004D02*
X117224323Y-99998766D01*
X117224323Y-99998766D02*
X117176704Y-99951147D01*
X117176704Y-99951147D02*
X117081466Y-99903528D01*
X117081466Y-99903528D02*
X116890990Y-99855909D01*
X116890990Y-99855909D02*
X116795752Y-99808290D01*
X116795752Y-99808290D02*
X116748133Y-99760671D01*
X116748133Y-99760671D02*
X116700514Y-99665433D01*
X116700514Y-99665433D02*
X116700514Y-99570195D01*
X116700514Y-99570195D02*
X116748133Y-99474957D01*
X116748133Y-99474957D02*
X116795752Y-99427338D01*
X116795752Y-99427338D02*
X116890990Y-99379719D01*
X116890990Y-99379719D02*
X117129085Y-99379719D01*
X117129085Y-99379719D02*
X117271942Y-99427338D01*
X117652895Y-100332100D02*
X117795752Y-100379719D01*
X117795752Y-100379719D02*
X118033847Y-100379719D01*
X118033847Y-100379719D02*
X118129085Y-100332100D01*
X118129085Y-100332100D02*
X118176704Y-100284480D01*
X118176704Y-100284480D02*
X118224323Y-100189242D01*
X118224323Y-100189242D02*
X118224323Y-100094004D01*
X118224323Y-100094004D02*
X118176704Y-99998766D01*
X118176704Y-99998766D02*
X118129085Y-99951147D01*
X118129085Y-99951147D02*
X118033847Y-99903528D01*
X118033847Y-99903528D02*
X117843371Y-99855909D01*
X117843371Y-99855909D02*
X117748133Y-99808290D01*
X117748133Y-99808290D02*
X117700514Y-99760671D01*
X117700514Y-99760671D02*
X117652895Y-99665433D01*
X117652895Y-99665433D02*
X117652895Y-99570195D01*
X117652895Y-99570195D02*
X117700514Y-99474957D01*
X117700514Y-99474957D02*
X117748133Y-99427338D01*
X117748133Y-99427338D02*
X117843371Y-99379719D01*
X117843371Y-99379719D02*
X118081466Y-99379719D01*
X118081466Y-99379719D02*
X118224323Y-99427338D01*
X119176704Y-100379719D02*
X118605276Y-100379719D01*
X118890990Y-100379719D02*
X118890990Y-99379719D01*
X118890990Y-99379719D02*
X118795752Y-99522576D01*
X118795752Y-99522576D02*
X118700514Y-99617814D01*
X118700514Y-99617814D02*
X118605276Y-99665433D01*
X120033847Y-99713052D02*
X120033847Y-100379719D01*
X119795752Y-99332100D02*
X119557657Y-100046385D01*
X119557657Y-100046385D02*
X120176704Y-100046385D01*
D12*
X117452288Y-102717964D02*
X117452288Y-101967964D01*
X117452288Y-101967964D02*
X117630859Y-101967964D01*
X117630859Y-101967964D02*
X117738002Y-102003678D01*
X117738002Y-102003678D02*
X117809431Y-102075107D01*
X117809431Y-102075107D02*
X117845145Y-102146535D01*
X117845145Y-102146535D02*
X117880859Y-102289392D01*
X117880859Y-102289392D02*
X117880859Y-102396535D01*
X117880859Y-102396535D02*
X117845145Y-102539392D01*
X117845145Y-102539392D02*
X117809431Y-102610821D01*
X117809431Y-102610821D02*
X117738002Y-102682250D01*
X117738002Y-102682250D02*
X117630859Y-102717964D01*
X117630859Y-102717964D02*
X117452288Y-102717964D01*
X118595145Y-102717964D02*
X118166574Y-102717964D01*
X118380859Y-102717964D02*
X118380859Y-101967964D01*
X118380859Y-101967964D02*
X118309431Y-102075107D01*
X118309431Y-102075107D02*
X118238002Y-102146535D01*
X118238002Y-102146535D02*
X118166574Y-102182250D01*
D10*
X94747056Y-108349619D02*
X94747056Y-107349619D01*
X94747056Y-107730571D02*
X94842294Y-107682952D01*
X94842294Y-107682952D02*
X95032770Y-107682952D01*
X95032770Y-107682952D02*
X95128008Y-107730571D01*
X95128008Y-107730571D02*
X95175627Y-107778190D01*
X95175627Y-107778190D02*
X95223246Y-107873428D01*
X95223246Y-107873428D02*
X95223246Y-108159142D01*
X95223246Y-108159142D02*
X95175627Y-108254380D01*
X95175627Y-108254380D02*
X95128008Y-108302000D01*
X95128008Y-108302000D02*
X95032770Y-108349619D01*
X95032770Y-108349619D02*
X94842294Y-108349619D01*
X94842294Y-108349619D02*
X94747056Y-108302000D01*
X96080389Y-108349619D02*
X96080389Y-107825809D01*
X96080389Y-107825809D02*
X96032770Y-107730571D01*
X96032770Y-107730571D02*
X95937532Y-107682952D01*
X95937532Y-107682952D02*
X95747056Y-107682952D01*
X95747056Y-107682952D02*
X95651818Y-107730571D01*
X96080389Y-108302000D02*
X95985151Y-108349619D01*
X95985151Y-108349619D02*
X95747056Y-108349619D01*
X95747056Y-108349619D02*
X95651818Y-108302000D01*
X95651818Y-108302000D02*
X95604199Y-108206761D01*
X95604199Y-108206761D02*
X95604199Y-108111523D01*
X95604199Y-108111523D02*
X95651818Y-108016285D01*
X95651818Y-108016285D02*
X95747056Y-107968666D01*
X95747056Y-107968666D02*
X95985151Y-107968666D01*
X95985151Y-107968666D02*
X96080389Y-107921047D01*
X96413723Y-107682952D02*
X96794675Y-107682952D01*
X96556580Y-107349619D02*
X96556580Y-108206761D01*
X96556580Y-108206761D02*
X96604199Y-108302000D01*
X96604199Y-108302000D02*
X96699437Y-108349619D01*
X96699437Y-108349619D02*
X96794675Y-108349619D01*
X96985152Y-107682952D02*
X97366104Y-107682952D01*
X97128009Y-107349619D02*
X97128009Y-108206761D01*
X97128009Y-108206761D02*
X97175628Y-108302000D01*
X97175628Y-108302000D02*
X97270866Y-108349619D01*
X97270866Y-108349619D02*
X97366104Y-108349619D01*
X98080390Y-108302000D02*
X97985152Y-108349619D01*
X97985152Y-108349619D02*
X97794676Y-108349619D01*
X97794676Y-108349619D02*
X97699438Y-108302000D01*
X97699438Y-108302000D02*
X97651819Y-108206761D01*
X97651819Y-108206761D02*
X97651819Y-107825809D01*
X97651819Y-107825809D02*
X97699438Y-107730571D01*
X97699438Y-107730571D02*
X97794676Y-107682952D01*
X97794676Y-107682952D02*
X97985152Y-107682952D01*
X97985152Y-107682952D02*
X98080390Y-107730571D01*
X98080390Y-107730571D02*
X98128009Y-107825809D01*
X98128009Y-107825809D02*
X98128009Y-107921047D01*
X98128009Y-107921047D02*
X97651819Y-108016285D01*
X98556581Y-108349619D02*
X98556581Y-107682952D01*
X98556581Y-107873428D02*
X98604200Y-107778190D01*
X98604200Y-107778190D02*
X98651819Y-107730571D01*
X98651819Y-107730571D02*
X98747057Y-107682952D01*
X98747057Y-107682952D02*
X98842295Y-107682952D01*
X99080391Y-107682952D02*
X99318486Y-108349619D01*
X99556581Y-107682952D02*
X99318486Y-108349619D01*
X99318486Y-108349619D02*
X99223248Y-108587714D01*
X99223248Y-108587714D02*
X99175629Y-108635333D01*
X99175629Y-108635333D02*
X99080391Y-108682952D01*
X98174019Y-111768133D02*
X98888304Y-111768133D01*
X98888304Y-111768133D02*
X99031161Y-111815752D01*
X99031161Y-111815752D02*
X99126400Y-111910990D01*
X99126400Y-111910990D02*
X99174019Y-112053847D01*
X99174019Y-112053847D02*
X99174019Y-112149085D01*
X98269257Y-111339561D02*
X98221638Y-111291942D01*
X98221638Y-111291942D02*
X98174019Y-111196704D01*
X98174019Y-111196704D02*
X98174019Y-110958609D01*
X98174019Y-110958609D02*
X98221638Y-110863371D01*
X98221638Y-110863371D02*
X98269257Y-110815752D01*
X98269257Y-110815752D02*
X98364495Y-110768133D01*
X98364495Y-110768133D02*
X98459733Y-110768133D01*
X98459733Y-110768133D02*
X98602590Y-110815752D01*
X98602590Y-110815752D02*
X99174019Y-111387180D01*
X99174019Y-111387180D02*
X99174019Y-110768133D01*
X112519581Y-108017504D02*
X112995771Y-108017504D01*
X112424343Y-108303219D02*
X112757676Y-107303219D01*
X112757676Y-107303219D02*
X113091009Y-108303219D01*
X113424343Y-108303219D02*
X113424343Y-107303219D01*
X113424343Y-107303219D02*
X113805295Y-107303219D01*
X113805295Y-107303219D02*
X113900533Y-107350838D01*
X113900533Y-107350838D02*
X113948152Y-107398457D01*
X113948152Y-107398457D02*
X113995771Y-107493695D01*
X113995771Y-107493695D02*
X113995771Y-107636552D01*
X113995771Y-107636552D02*
X113948152Y-107731790D01*
X113948152Y-107731790D02*
X113900533Y-107779409D01*
X113900533Y-107779409D02*
X113805295Y-107827028D01*
X113805295Y-107827028D02*
X113424343Y-107827028D01*
X114329105Y-107303219D02*
X114948152Y-107303219D01*
X114948152Y-107303219D02*
X114614819Y-107684171D01*
X114614819Y-107684171D02*
X114757676Y-107684171D01*
X114757676Y-107684171D02*
X114852914Y-107731790D01*
X114852914Y-107731790D02*
X114900533Y-107779409D01*
X114900533Y-107779409D02*
X114948152Y-107874647D01*
X114948152Y-107874647D02*
X114948152Y-108112742D01*
X114948152Y-108112742D02*
X114900533Y-108207980D01*
X114900533Y-108207980D02*
X114852914Y-108255600D01*
X114852914Y-108255600D02*
X114757676Y-108303219D01*
X114757676Y-108303219D02*
X114471962Y-108303219D01*
X114471962Y-108303219D02*
X114376724Y-108255600D01*
X114376724Y-108255600D02*
X114329105Y-108207980D01*
X115567200Y-107303219D02*
X115662438Y-107303219D01*
X115662438Y-107303219D02*
X115757676Y-107350838D01*
X115757676Y-107350838D02*
X115805295Y-107398457D01*
X115805295Y-107398457D02*
X115852914Y-107493695D01*
X115852914Y-107493695D02*
X115900533Y-107684171D01*
X115900533Y-107684171D02*
X115900533Y-107922266D01*
X115900533Y-107922266D02*
X115852914Y-108112742D01*
X115852914Y-108112742D02*
X115805295Y-108207980D01*
X115805295Y-108207980D02*
X115757676Y-108255600D01*
X115757676Y-108255600D02*
X115662438Y-108303219D01*
X115662438Y-108303219D02*
X115567200Y-108303219D01*
X115567200Y-108303219D02*
X115471962Y-108255600D01*
X115471962Y-108255600D02*
X115424343Y-108207980D01*
X115424343Y-108207980D02*
X115376724Y-108112742D01*
X115376724Y-108112742D02*
X115329105Y-107922266D01*
X115329105Y-107922266D02*
X115329105Y-107684171D01*
X115329105Y-107684171D02*
X115376724Y-107493695D01*
X115376724Y-107493695D02*
X115424343Y-107398457D01*
X115424343Y-107398457D02*
X115471962Y-107350838D01*
X115471962Y-107350838D02*
X115567200Y-107303219D01*
X116852914Y-108303219D02*
X116281486Y-108303219D01*
X116567200Y-108303219D02*
X116567200Y-107303219D01*
X116567200Y-107303219D02*
X116471962Y-107446076D01*
X116471962Y-107446076D02*
X116376724Y-107541314D01*
X116376724Y-107541314D02*
X116281486Y-107588933D01*
X117757676Y-107303219D02*
X117281486Y-107303219D01*
X117281486Y-107303219D02*
X117233867Y-107779409D01*
X117233867Y-107779409D02*
X117281486Y-107731790D01*
X117281486Y-107731790D02*
X117376724Y-107684171D01*
X117376724Y-107684171D02*
X117614819Y-107684171D01*
X117614819Y-107684171D02*
X117710057Y-107731790D01*
X117710057Y-107731790D02*
X117757676Y-107779409D01*
X117757676Y-107779409D02*
X117805295Y-107874647D01*
X117805295Y-107874647D02*
X117805295Y-108112742D01*
X117805295Y-108112742D02*
X117757676Y-108207980D01*
X117757676Y-108207980D02*
X117710057Y-108255600D01*
X117710057Y-108255600D02*
X117614819Y-108303219D01*
X117614819Y-108303219D02*
X117376724Y-108303219D01*
X117376724Y-108303219D02*
X117281486Y-108255600D01*
X117281486Y-108255600D02*
X117233867Y-108207980D01*
X118186248Y-108017504D02*
X118662438Y-108017504D01*
X118091010Y-108303219D02*
X118424343Y-107303219D01*
X118424343Y-107303219D02*
X118757676Y-108303219D01*
X119091010Y-108303219D02*
X119091010Y-107303219D01*
X119662438Y-108303219D02*
X119233867Y-107731790D01*
X119662438Y-107303219D02*
X119091010Y-107874647D01*
X119948153Y-107303219D02*
X120519581Y-107303219D01*
X120233867Y-108303219D02*
X120233867Y-107303219D01*
X121424343Y-108303219D02*
X121091010Y-107827028D01*
X120852915Y-108303219D02*
X120852915Y-107303219D01*
X120852915Y-107303219D02*
X121233867Y-107303219D01*
X121233867Y-107303219D02*
X121329105Y-107350838D01*
X121329105Y-107350838D02*
X121376724Y-107398457D01*
X121376724Y-107398457D02*
X121424343Y-107493695D01*
X121424343Y-107493695D02*
X121424343Y-107636552D01*
X121424343Y-107636552D02*
X121376724Y-107731790D01*
X121376724Y-107731790D02*
X121329105Y-107779409D01*
X121329105Y-107779409D02*
X121233867Y-107827028D01*
X121233867Y-107827028D02*
X120852915Y-107827028D01*
X121852915Y-107922266D02*
X122614820Y-107922266D01*
X123614819Y-107350838D02*
X123519581Y-107303219D01*
X123519581Y-107303219D02*
X123376724Y-107303219D01*
X123376724Y-107303219D02*
X123233867Y-107350838D01*
X123233867Y-107350838D02*
X123138629Y-107446076D01*
X123138629Y-107446076D02*
X123091010Y-107541314D01*
X123091010Y-107541314D02*
X123043391Y-107731790D01*
X123043391Y-107731790D02*
X123043391Y-107874647D01*
X123043391Y-107874647D02*
X123091010Y-108065123D01*
X123091010Y-108065123D02*
X123138629Y-108160361D01*
X123138629Y-108160361D02*
X123233867Y-108255600D01*
X123233867Y-108255600D02*
X123376724Y-108303219D01*
X123376724Y-108303219D02*
X123471962Y-108303219D01*
X123471962Y-108303219D02*
X123614819Y-108255600D01*
X123614819Y-108255600D02*
X123662438Y-108207980D01*
X123662438Y-108207980D02*
X123662438Y-107874647D01*
X123662438Y-107874647D02*
X123471962Y-107874647D01*
X124614819Y-108303219D02*
X124043391Y-108303219D01*
X124329105Y-108303219D02*
X124329105Y-107303219D01*
X124329105Y-107303219D02*
X124233867Y-107446076D01*
X124233867Y-107446076D02*
X124138629Y-107541314D01*
X124138629Y-107541314D02*
X124043391Y-107588933D01*
X117805295Y-107303219D02*
X117805295Y-108112742D01*
X117805295Y-108112742D02*
X117852914Y-108207980D01*
X117852914Y-108207980D02*
X117900533Y-108255600D01*
X117900533Y-108255600D02*
X117995771Y-108303219D01*
X117995771Y-108303219D02*
X118186247Y-108303219D01*
X118186247Y-108303219D02*
X118281485Y-108255600D01*
X118281485Y-108255600D02*
X118329104Y-108207980D01*
X118329104Y-108207980D02*
X118376723Y-108112742D01*
X118376723Y-108112742D02*
X118376723Y-107303219D01*
X119376723Y-108303219D02*
X118805295Y-108303219D01*
X119091009Y-108303219D02*
X119091009Y-107303219D01*
X119091009Y-107303219D02*
X118995771Y-107446076D01*
X118995771Y-107446076D02*
X118900533Y-107541314D01*
X118900533Y-107541314D02*
X118805295Y-107588933D01*
X118173500Y-105931619D02*
X118173500Y-106169714D01*
X117935405Y-106074476D02*
X118173500Y-106169714D01*
X118173500Y-106169714D02*
X118411595Y-106074476D01*
X118030643Y-106360190D02*
X118173500Y-106169714D01*
X118173500Y-106169714D02*
X118316357Y-106360190D01*
X118173500Y-105931619D02*
X118173500Y-106169714D01*
X117935405Y-106074476D02*
X118173500Y-106169714D01*
X118173500Y-106169714D02*
X118411595Y-106074476D01*
X118030643Y-106360190D02*
X118173500Y-106169714D01*
X118173500Y-106169714D02*
X118316357Y-106360190D01*
X138928600Y-110431819D02*
X139119076Y-110431819D01*
X139119076Y-110431819D02*
X139214314Y-110479438D01*
X139214314Y-110479438D02*
X139309552Y-110574676D01*
X139309552Y-110574676D02*
X139357171Y-110765152D01*
X139357171Y-110765152D02*
X139357171Y-111098485D01*
X139357171Y-111098485D02*
X139309552Y-111288961D01*
X139309552Y-111288961D02*
X139214314Y-111384200D01*
X139214314Y-111384200D02*
X139119076Y-111431819D01*
X139119076Y-111431819D02*
X138928600Y-111431819D01*
X138928600Y-111431819D02*
X138833362Y-111384200D01*
X138833362Y-111384200D02*
X138738124Y-111288961D01*
X138738124Y-111288961D02*
X138690505Y-111098485D01*
X138690505Y-111098485D02*
X138690505Y-110765152D01*
X138690505Y-110765152D02*
X138738124Y-110574676D01*
X138738124Y-110574676D02*
X138833362Y-110479438D01*
X138833362Y-110479438D02*
X138928600Y-110431819D01*
X139785743Y-110431819D02*
X139785743Y-111241342D01*
X139785743Y-111241342D02*
X139833362Y-111336580D01*
X139833362Y-111336580D02*
X139880981Y-111384200D01*
X139880981Y-111384200D02*
X139976219Y-111431819D01*
X139976219Y-111431819D02*
X140166695Y-111431819D01*
X140166695Y-111431819D02*
X140261933Y-111384200D01*
X140261933Y-111384200D02*
X140309552Y-111336580D01*
X140309552Y-111336580D02*
X140357171Y-111241342D01*
X140357171Y-111241342D02*
X140357171Y-110431819D01*
X140690505Y-110431819D02*
X141261933Y-110431819D01*
X140976219Y-111431819D02*
X140976219Y-110431819D01*
X137768419Y-107770333D02*
X138482704Y-107770333D01*
X138482704Y-107770333D02*
X138625561Y-107817952D01*
X138625561Y-107817952D02*
X138720800Y-107913190D01*
X138720800Y-107913190D02*
X138768419Y-108056047D01*
X138768419Y-108056047D02*
X138768419Y-108151285D01*
X138768419Y-106770333D02*
X138768419Y-107341761D01*
X138768419Y-107056047D02*
X137768419Y-107056047D01*
X137768419Y-107056047D02*
X137911276Y-107151285D01*
X137911276Y-107151285D02*
X138006514Y-107246523D01*
X138006514Y-107246523D02*
X138054133Y-107341761D01*
X106554876Y-117544619D02*
X105983448Y-117544619D01*
X106269162Y-117544619D02*
X106269162Y-116544619D01*
X106269162Y-116544619D02*
X106173924Y-116687476D01*
X106173924Y-116687476D02*
X106078686Y-116782714D01*
X106078686Y-116782714D02*
X105983448Y-116830333D01*
X106983448Y-117544619D02*
X106983448Y-116544619D01*
X106983448Y-116544619D02*
X107316781Y-117258904D01*
X107316781Y-117258904D02*
X107650114Y-116544619D01*
X107650114Y-116544619D02*
X107650114Y-117544619D01*
X109078686Y-116544619D02*
X109269162Y-116544619D01*
X109269162Y-116544619D02*
X109364400Y-116592238D01*
X109364400Y-116592238D02*
X109459638Y-116687476D01*
X109459638Y-116687476D02*
X109507257Y-116877952D01*
X109507257Y-116877952D02*
X109507257Y-117211285D01*
X109507257Y-117211285D02*
X109459638Y-117401761D01*
X109459638Y-117401761D02*
X109364400Y-117497000D01*
X109364400Y-117497000D02*
X109269162Y-117544619D01*
X109269162Y-117544619D02*
X109078686Y-117544619D01*
X109078686Y-117544619D02*
X108983448Y-117497000D01*
X108983448Y-117497000D02*
X108888210Y-117401761D01*
X108888210Y-117401761D02*
X108840591Y-117211285D01*
X108840591Y-117211285D02*
X108840591Y-116877952D01*
X108840591Y-116877952D02*
X108888210Y-116687476D01*
X108888210Y-116687476D02*
X108983448Y-116592238D01*
X108983448Y-116592238D02*
X109078686Y-116544619D01*
X109935829Y-117544619D02*
X109935829Y-116544619D01*
X110364400Y-117544619D02*
X110364400Y-117020809D01*
X110364400Y-117020809D02*
X110316781Y-116925571D01*
X110316781Y-116925571D02*
X110221543Y-116877952D01*
X110221543Y-116877952D02*
X110078686Y-116877952D01*
X110078686Y-116877952D02*
X109983448Y-116925571D01*
X109983448Y-116925571D02*
X109935829Y-116973190D01*
X110840591Y-117544619D02*
X110840591Y-116877952D01*
X110840591Y-116973190D02*
X110888210Y-116925571D01*
X110888210Y-116925571D02*
X110983448Y-116877952D01*
X110983448Y-116877952D02*
X111126305Y-116877952D01*
X111126305Y-116877952D02*
X111221543Y-116925571D01*
X111221543Y-116925571D02*
X111269162Y-117020809D01*
X111269162Y-117020809D02*
X111269162Y-117544619D01*
X111269162Y-117020809D02*
X111316781Y-116925571D01*
X111316781Y-116925571D02*
X111412019Y-116877952D01*
X111412019Y-116877952D02*
X111554876Y-116877952D01*
X111554876Y-116877952D02*
X111650115Y-116925571D01*
X111650115Y-116925571D02*
X111697734Y-117020809D01*
X111697734Y-117020809D02*
X111697734Y-117544619D01*
D11*
X108781066Y-115666949D02*
X108614400Y-115428854D01*
X108495352Y-115666949D02*
X108495352Y-115166949D01*
X108495352Y-115166949D02*
X108685828Y-115166949D01*
X108685828Y-115166949D02*
X108733447Y-115190759D01*
X108733447Y-115190759D02*
X108757257Y-115214568D01*
X108757257Y-115214568D02*
X108781066Y-115262187D01*
X108781066Y-115262187D02*
X108781066Y-115333616D01*
X108781066Y-115333616D02*
X108757257Y-115381235D01*
X108757257Y-115381235D02*
X108733447Y-115405044D01*
X108733447Y-115405044D02*
X108685828Y-115428854D01*
X108685828Y-115428854D02*
X108495352Y-115428854D01*
X109209638Y-115333616D02*
X109209638Y-115666949D01*
X109090590Y-115143140D02*
X108971543Y-115500282D01*
X108971543Y-115500282D02*
X109281066Y-115500282D01*
D10*
X108970114Y-100332100D02*
X109112971Y-100379719D01*
X109112971Y-100379719D02*
X109351066Y-100379719D01*
X109351066Y-100379719D02*
X109446304Y-100332100D01*
X109446304Y-100332100D02*
X109493923Y-100284480D01*
X109493923Y-100284480D02*
X109541542Y-100189242D01*
X109541542Y-100189242D02*
X109541542Y-100094004D01*
X109541542Y-100094004D02*
X109493923Y-99998766D01*
X109493923Y-99998766D02*
X109446304Y-99951147D01*
X109446304Y-99951147D02*
X109351066Y-99903528D01*
X109351066Y-99903528D02*
X109160590Y-99855909D01*
X109160590Y-99855909D02*
X109065352Y-99808290D01*
X109065352Y-99808290D02*
X109017733Y-99760671D01*
X109017733Y-99760671D02*
X108970114Y-99665433D01*
X108970114Y-99665433D02*
X108970114Y-99570195D01*
X108970114Y-99570195D02*
X109017733Y-99474957D01*
X109017733Y-99474957D02*
X109065352Y-99427338D01*
X109065352Y-99427338D02*
X109160590Y-99379719D01*
X109160590Y-99379719D02*
X109398685Y-99379719D01*
X109398685Y-99379719D02*
X109541542Y-99427338D01*
X109922495Y-100332100D02*
X110065352Y-100379719D01*
X110065352Y-100379719D02*
X110303447Y-100379719D01*
X110303447Y-100379719D02*
X110398685Y-100332100D01*
X110398685Y-100332100D02*
X110446304Y-100284480D01*
X110446304Y-100284480D02*
X110493923Y-100189242D01*
X110493923Y-100189242D02*
X110493923Y-100094004D01*
X110493923Y-100094004D02*
X110446304Y-99998766D01*
X110446304Y-99998766D02*
X110398685Y-99951147D01*
X110398685Y-99951147D02*
X110303447Y-99903528D01*
X110303447Y-99903528D02*
X110112971Y-99855909D01*
X110112971Y-99855909D02*
X110017733Y-99808290D01*
X110017733Y-99808290D02*
X109970114Y-99760671D01*
X109970114Y-99760671D02*
X109922495Y-99665433D01*
X109922495Y-99665433D02*
X109922495Y-99570195D01*
X109922495Y-99570195D02*
X109970114Y-99474957D01*
X109970114Y-99474957D02*
X110017733Y-99427338D01*
X110017733Y-99427338D02*
X110112971Y-99379719D01*
X110112971Y-99379719D02*
X110351066Y-99379719D01*
X110351066Y-99379719D02*
X110493923Y-99427338D01*
X111446304Y-100379719D02*
X110874876Y-100379719D01*
X111160590Y-100379719D02*
X111160590Y-99379719D01*
X111160590Y-99379719D02*
X111065352Y-99522576D01*
X111065352Y-99522576D02*
X110970114Y-99617814D01*
X110970114Y-99617814D02*
X110874876Y-99665433D01*
X112303447Y-99713052D02*
X112303447Y-100379719D01*
X112065352Y-99332100D02*
X111827257Y-100046385D01*
X111827257Y-100046385D02*
X112446304Y-100046385D01*
D12*
X109721888Y-102717964D02*
X109721888Y-101967964D01*
X109721888Y-101967964D02*
X109900459Y-101967964D01*
X109900459Y-101967964D02*
X110007602Y-102003678D01*
X110007602Y-102003678D02*
X110079031Y-102075107D01*
X110079031Y-102075107D02*
X110114745Y-102146535D01*
X110114745Y-102146535D02*
X110150459Y-102289392D01*
X110150459Y-102289392D02*
X110150459Y-102396535D01*
X110150459Y-102396535D02*
X110114745Y-102539392D01*
X110114745Y-102539392D02*
X110079031Y-102610821D01*
X110079031Y-102610821D02*
X110007602Y-102682250D01*
X110007602Y-102682250D02*
X109900459Y-102717964D01*
X109900459Y-102717964D02*
X109721888Y-102717964D01*
X110436174Y-102039392D02*
X110471888Y-102003678D01*
X110471888Y-102003678D02*
X110543317Y-101967964D01*
X110543317Y-101967964D02*
X110721888Y-101967964D01*
X110721888Y-101967964D02*
X110793317Y-102003678D01*
X110793317Y-102003678D02*
X110829031Y-102039392D01*
X110829031Y-102039392D02*
X110864745Y-102110821D01*
X110864745Y-102110821D02*
X110864745Y-102182250D01*
X110864745Y-102182250D02*
X110829031Y-102289392D01*
X110829031Y-102289392D02*
X110400459Y-102717964D01*
X110400459Y-102717964D02*
X110864745Y-102717964D01*
D10*
X118121466Y-117349219D02*
X117550038Y-117349219D01*
X117835752Y-117349219D02*
X117835752Y-116349219D01*
X117835752Y-116349219D02*
X117740514Y-116492076D01*
X117740514Y-116492076D02*
X117645276Y-116587314D01*
X117645276Y-116587314D02*
X117550038Y-116634933D01*
X118740514Y-116349219D02*
X118835752Y-116349219D01*
X118835752Y-116349219D02*
X118930990Y-116396838D01*
X118930990Y-116396838D02*
X118978609Y-116444457D01*
X118978609Y-116444457D02*
X119026228Y-116539695D01*
X119026228Y-116539695D02*
X119073847Y-116730171D01*
X119073847Y-116730171D02*
X119073847Y-116968266D01*
X119073847Y-116968266D02*
X119026228Y-117158742D01*
X119026228Y-117158742D02*
X118978609Y-117253980D01*
X118978609Y-117253980D02*
X118930990Y-117301600D01*
X118930990Y-117301600D02*
X118835752Y-117349219D01*
X118835752Y-117349219D02*
X118740514Y-117349219D01*
X118740514Y-117349219D02*
X118645276Y-117301600D01*
X118645276Y-117301600D02*
X118597657Y-117253980D01*
X118597657Y-117253980D02*
X118550038Y-117158742D01*
X118550038Y-117158742D02*
X118502419Y-116968266D01*
X118502419Y-116968266D02*
X118502419Y-116730171D01*
X118502419Y-116730171D02*
X118550038Y-116539695D01*
X118550038Y-116539695D02*
X118597657Y-116444457D01*
X118597657Y-116444457D02*
X118645276Y-116396838D01*
X118645276Y-116396838D02*
X118740514Y-116349219D01*
X119502419Y-116682552D02*
X119502419Y-117682552D01*
X119502419Y-116730171D02*
X119597657Y-116682552D01*
X119597657Y-116682552D02*
X119788133Y-116682552D01*
X119788133Y-116682552D02*
X119883371Y-116730171D01*
X119883371Y-116730171D02*
X119930990Y-116777790D01*
X119930990Y-116777790D02*
X119978609Y-116873028D01*
X119978609Y-116873028D02*
X119978609Y-117158742D01*
X119978609Y-117158742D02*
X119930990Y-117253980D01*
X119930990Y-117253980D02*
X119883371Y-117301600D01*
X119883371Y-117301600D02*
X119788133Y-117349219D01*
X119788133Y-117349219D02*
X119597657Y-117349219D01*
X119597657Y-117349219D02*
X119502419Y-117301600D01*
X120740514Y-116825409D02*
X120407181Y-116825409D01*
X120407181Y-117349219D02*
X120407181Y-116349219D01*
X120407181Y-116349219D02*
X120883371Y-116349219D01*
X122502419Y-116349219D02*
X122026229Y-116349219D01*
X122026229Y-116349219D02*
X121978610Y-116825409D01*
X121978610Y-116825409D02*
X122026229Y-116777790D01*
X122026229Y-116777790D02*
X122121467Y-116730171D01*
X122121467Y-116730171D02*
X122359562Y-116730171D01*
X122359562Y-116730171D02*
X122454800Y-116777790D01*
X122454800Y-116777790D02*
X122502419Y-116825409D01*
X122502419Y-116825409D02*
X122550038Y-116920647D01*
X122550038Y-116920647D02*
X122550038Y-117158742D01*
X122550038Y-117158742D02*
X122502419Y-117253980D01*
X122502419Y-117253980D02*
X122454800Y-117301600D01*
X122454800Y-117301600D02*
X122359562Y-117349219D01*
X122359562Y-117349219D02*
X122121467Y-117349219D01*
X122121467Y-117349219D02*
X122026229Y-117301600D01*
X122026229Y-117301600D02*
X121978610Y-117253980D01*
X123169086Y-116349219D02*
X123264324Y-116349219D01*
X123264324Y-116349219D02*
X123359562Y-116396838D01*
X123359562Y-116396838D02*
X123407181Y-116444457D01*
X123407181Y-116444457D02*
X123454800Y-116539695D01*
X123454800Y-116539695D02*
X123502419Y-116730171D01*
X123502419Y-116730171D02*
X123502419Y-116968266D01*
X123502419Y-116968266D02*
X123454800Y-117158742D01*
X123454800Y-117158742D02*
X123407181Y-117253980D01*
X123407181Y-117253980D02*
X123359562Y-117301600D01*
X123359562Y-117301600D02*
X123264324Y-117349219D01*
X123264324Y-117349219D02*
X123169086Y-117349219D01*
X123169086Y-117349219D02*
X123073848Y-117301600D01*
X123073848Y-117301600D02*
X123026229Y-117253980D01*
X123026229Y-117253980D02*
X122978610Y-117158742D01*
X122978610Y-117158742D02*
X122930991Y-116968266D01*
X122930991Y-116968266D02*
X122930991Y-116730171D01*
X122930991Y-116730171D02*
X122978610Y-116539695D01*
X122978610Y-116539695D02*
X123026229Y-116444457D01*
X123026229Y-116444457D02*
X123073848Y-116396838D01*
X123073848Y-116396838D02*
X123169086Y-116349219D01*
X123788134Y-116349219D02*
X124121467Y-117349219D01*
X124121467Y-117349219D02*
X124454800Y-116349219D01*
D11*
X120871466Y-115393930D02*
X120847657Y-115417740D01*
X120847657Y-115417740D02*
X120776228Y-115441549D01*
X120776228Y-115441549D02*
X120728609Y-115441549D01*
X120728609Y-115441549D02*
X120657181Y-115417740D01*
X120657181Y-115417740D02*
X120609562Y-115370120D01*
X120609562Y-115370120D02*
X120585752Y-115322501D01*
X120585752Y-115322501D02*
X120561943Y-115227263D01*
X120561943Y-115227263D02*
X120561943Y-115155835D01*
X120561943Y-115155835D02*
X120585752Y-115060597D01*
X120585752Y-115060597D02*
X120609562Y-115012978D01*
X120609562Y-115012978D02*
X120657181Y-114965359D01*
X120657181Y-114965359D02*
X120728609Y-114941549D01*
X120728609Y-114941549D02*
X120776228Y-114941549D01*
X120776228Y-114941549D02*
X120847657Y-114965359D01*
X120847657Y-114965359D02*
X120871466Y-114989168D01*
X121038133Y-114941549D02*
X121347657Y-114941549D01*
X121347657Y-114941549D02*
X121180990Y-115132025D01*
X121180990Y-115132025D02*
X121252419Y-115132025D01*
X121252419Y-115132025D02*
X121300038Y-115155835D01*
X121300038Y-115155835D02*
X121323847Y-115179644D01*
X121323847Y-115179644D02*
X121347657Y-115227263D01*
X121347657Y-115227263D02*
X121347657Y-115346311D01*
X121347657Y-115346311D02*
X121323847Y-115393930D01*
X121323847Y-115393930D02*
X121300038Y-115417740D01*
X121300038Y-115417740D02*
X121252419Y-115441549D01*
X121252419Y-115441549D02*
X121109562Y-115441549D01*
X121109562Y-115441549D02*
X121061943Y-115417740D01*
X121061943Y-115417740D02*
X121038133Y-115393930D01*
D10*
X114976685Y-113626819D02*
X114786209Y-113626819D01*
X114786209Y-113626819D02*
X114690971Y-113674438D01*
X114690971Y-113674438D02*
X114643352Y-113722057D01*
X114643352Y-113722057D02*
X114548114Y-113864914D01*
X114548114Y-113864914D02*
X114500495Y-114055390D01*
X114500495Y-114055390D02*
X114500495Y-114436342D01*
X114500495Y-114436342D02*
X114548114Y-114531580D01*
X114548114Y-114531580D02*
X114595733Y-114579200D01*
X114595733Y-114579200D02*
X114690971Y-114626819D01*
X114690971Y-114626819D02*
X114881447Y-114626819D01*
X114881447Y-114626819D02*
X114976685Y-114579200D01*
X114976685Y-114579200D02*
X115024304Y-114531580D01*
X115024304Y-114531580D02*
X115071923Y-114436342D01*
X115071923Y-114436342D02*
X115071923Y-114198247D01*
X115071923Y-114198247D02*
X115024304Y-114103009D01*
X115024304Y-114103009D02*
X114976685Y-114055390D01*
X114976685Y-114055390D02*
X114881447Y-114007771D01*
X114881447Y-114007771D02*
X114690971Y-114007771D01*
X114690971Y-114007771D02*
X114595733Y-114055390D01*
X114595733Y-114055390D02*
X114548114Y-114103009D01*
X114548114Y-114103009D02*
X114500495Y-114198247D01*
X115690971Y-113626819D02*
X115786209Y-113626819D01*
X115786209Y-113626819D02*
X115881447Y-113674438D01*
X115881447Y-113674438D02*
X115929066Y-113722057D01*
X115929066Y-113722057D02*
X115976685Y-113817295D01*
X115976685Y-113817295D02*
X116024304Y-114007771D01*
X116024304Y-114007771D02*
X116024304Y-114245866D01*
X116024304Y-114245866D02*
X115976685Y-114436342D01*
X115976685Y-114436342D02*
X115929066Y-114531580D01*
X115929066Y-114531580D02*
X115881447Y-114579200D01*
X115881447Y-114579200D02*
X115786209Y-114626819D01*
X115786209Y-114626819D02*
X115690971Y-114626819D01*
X115690971Y-114626819D02*
X115595733Y-114579200D01*
X115595733Y-114579200D02*
X115548114Y-114531580D01*
X115548114Y-114531580D02*
X115500495Y-114436342D01*
X115500495Y-114436342D02*
X115452876Y-114245866D01*
X115452876Y-114245866D02*
X115452876Y-114007771D01*
X115452876Y-114007771D02*
X115500495Y-113817295D01*
X115500495Y-113817295D02*
X115548114Y-113722057D01*
X115548114Y-113722057D02*
X115595733Y-113674438D01*
X115595733Y-113674438D02*
X115690971Y-113626819D01*
X116881447Y-113960152D02*
X116881447Y-114626819D01*
X116643352Y-113579200D02*
X116405257Y-114293485D01*
X116405257Y-114293485D02*
X117024304Y-114293485D01*
X117405257Y-114626819D02*
X117405257Y-113626819D01*
X117976685Y-114626819D02*
X117548114Y-114055390D01*
X117976685Y-113626819D02*
X117405257Y-114198247D01*
X119357638Y-113626819D02*
X119548114Y-113626819D01*
X119548114Y-113626819D02*
X119643352Y-113674438D01*
X119643352Y-113674438D02*
X119738590Y-113769676D01*
X119738590Y-113769676D02*
X119786209Y-113960152D01*
X119786209Y-113960152D02*
X119786209Y-114293485D01*
X119786209Y-114293485D02*
X119738590Y-114483961D01*
X119738590Y-114483961D02*
X119643352Y-114579200D01*
X119643352Y-114579200D02*
X119548114Y-114626819D01*
X119548114Y-114626819D02*
X119357638Y-114626819D01*
X119357638Y-114626819D02*
X119262400Y-114579200D01*
X119262400Y-114579200D02*
X119167162Y-114483961D01*
X119167162Y-114483961D02*
X119119543Y-114293485D01*
X119119543Y-114293485D02*
X119119543Y-113960152D01*
X119119543Y-113960152D02*
X119167162Y-113769676D01*
X119167162Y-113769676D02*
X119262400Y-113674438D01*
X119262400Y-113674438D02*
X119357638Y-113626819D01*
X120214781Y-114626819D02*
X120214781Y-113626819D01*
X120643352Y-114626819D02*
X120643352Y-114103009D01*
X120643352Y-114103009D02*
X120595733Y-114007771D01*
X120595733Y-114007771D02*
X120500495Y-113960152D01*
X120500495Y-113960152D02*
X120357638Y-113960152D01*
X120357638Y-113960152D02*
X120262400Y-114007771D01*
X120262400Y-114007771D02*
X120214781Y-114055390D01*
X121119543Y-114626819D02*
X121119543Y-113960152D01*
X121119543Y-114055390D02*
X121167162Y-114007771D01*
X121167162Y-114007771D02*
X121262400Y-113960152D01*
X121262400Y-113960152D02*
X121405257Y-113960152D01*
X121405257Y-113960152D02*
X121500495Y-114007771D01*
X121500495Y-114007771D02*
X121548114Y-114103009D01*
X121548114Y-114103009D02*
X121548114Y-114626819D01*
X121548114Y-114103009D02*
X121595733Y-114007771D01*
X121595733Y-114007771D02*
X121690971Y-113960152D01*
X121690971Y-113960152D02*
X121833828Y-113960152D01*
X121833828Y-113960152D02*
X121929067Y-114007771D01*
X121929067Y-114007771D02*
X121976686Y-114103009D01*
X121976686Y-114103009D02*
X121976686Y-114626819D01*
D11*
X118179066Y-112749149D02*
X118012400Y-112511054D01*
X117893352Y-112749149D02*
X117893352Y-112249149D01*
X117893352Y-112249149D02*
X118083828Y-112249149D01*
X118083828Y-112249149D02*
X118131447Y-112272959D01*
X118131447Y-112272959D02*
X118155257Y-112296768D01*
X118155257Y-112296768D02*
X118179066Y-112344387D01*
X118179066Y-112344387D02*
X118179066Y-112415816D01*
X118179066Y-112415816D02*
X118155257Y-112463435D01*
X118155257Y-112463435D02*
X118131447Y-112487244D01*
X118131447Y-112487244D02*
X118083828Y-112511054D01*
X118083828Y-112511054D02*
X117893352Y-112511054D01*
X118369543Y-112296768D02*
X118393352Y-112272959D01*
X118393352Y-112272959D02*
X118440971Y-112249149D01*
X118440971Y-112249149D02*
X118560019Y-112249149D01*
X118560019Y-112249149D02*
X118607638Y-112272959D01*
X118607638Y-112272959D02*
X118631447Y-112296768D01*
X118631447Y-112296768D02*
X118655257Y-112344387D01*
X118655257Y-112344387D02*
X118655257Y-112392006D01*
X118655257Y-112392006D02*
X118631447Y-112463435D01*
X118631447Y-112463435D02*
X118345733Y-112749149D01*
X118345733Y-112749149D02*
X118655257Y-112749149D01*
D10*
X127973895Y-96364019D02*
X127973895Y-96840209D01*
X127688180Y-96268781D02*
X128688180Y-96602114D01*
X128688180Y-96602114D02*
X127688180Y-96935447D01*
X127735800Y-97221162D02*
X127688180Y-97364019D01*
X127688180Y-97364019D02*
X127688180Y-97602114D01*
X127688180Y-97602114D02*
X127735800Y-97697352D01*
X127735800Y-97697352D02*
X127783419Y-97744971D01*
X127783419Y-97744971D02*
X127878657Y-97792590D01*
X127878657Y-97792590D02*
X127973895Y-97792590D01*
X127973895Y-97792590D02*
X128069133Y-97744971D01*
X128069133Y-97744971D02*
X128116752Y-97697352D01*
X128116752Y-97697352D02*
X128164371Y-97602114D01*
X128164371Y-97602114D02*
X128211990Y-97411638D01*
X128211990Y-97411638D02*
X128259609Y-97316400D01*
X128259609Y-97316400D02*
X128307228Y-97268781D01*
X128307228Y-97268781D02*
X128402466Y-97221162D01*
X128402466Y-97221162D02*
X128497704Y-97221162D01*
X128497704Y-97221162D02*
X128592942Y-97268781D01*
X128592942Y-97268781D02*
X128640561Y-97316400D01*
X128640561Y-97316400D02*
X128688180Y-97411638D01*
X128688180Y-97411638D02*
X128688180Y-97649733D01*
X128688180Y-97649733D02*
X128640561Y-97792590D01*
X127688180Y-98221162D02*
X128688180Y-98221162D01*
X128688180Y-98221162D02*
X128688180Y-98602114D01*
X128688180Y-98602114D02*
X128640561Y-98697352D01*
X128640561Y-98697352D02*
X128592942Y-98744971D01*
X128592942Y-98744971D02*
X128497704Y-98792590D01*
X128497704Y-98792590D02*
X128354847Y-98792590D01*
X128354847Y-98792590D02*
X128259609Y-98744971D01*
X128259609Y-98744971D02*
X128211990Y-98697352D01*
X128211990Y-98697352D02*
X128164371Y-98602114D01*
X128164371Y-98602114D02*
X128164371Y-98221162D01*
X127688180Y-99221162D02*
X128688180Y-99221162D01*
X128069133Y-99697352D02*
X128069133Y-100459257D01*
X128688180Y-101125923D02*
X128688180Y-101221161D01*
X128688180Y-101221161D02*
X128640561Y-101316399D01*
X128640561Y-101316399D02*
X128592942Y-101364018D01*
X128592942Y-101364018D02*
X128497704Y-101411637D01*
X128497704Y-101411637D02*
X128307228Y-101459256D01*
X128307228Y-101459256D02*
X128069133Y-101459256D01*
X128069133Y-101459256D02*
X127878657Y-101411637D01*
X127878657Y-101411637D02*
X127783419Y-101364018D01*
X127783419Y-101364018D02*
X127735800Y-101316399D01*
X127735800Y-101316399D02*
X127688180Y-101221161D01*
X127688180Y-101221161D02*
X127688180Y-101125923D01*
X127688180Y-101125923D02*
X127735800Y-101030685D01*
X127735800Y-101030685D02*
X127783419Y-100983066D01*
X127783419Y-100983066D02*
X127878657Y-100935447D01*
X127878657Y-100935447D02*
X128069133Y-100887828D01*
X128069133Y-100887828D02*
X128307228Y-100887828D01*
X128307228Y-100887828D02*
X128497704Y-100935447D01*
X128497704Y-100935447D02*
X128592942Y-100983066D01*
X128592942Y-100983066D02*
X128640561Y-101030685D01*
X128640561Y-101030685D02*
X128688180Y-101125923D01*
X128688180Y-102316399D02*
X128688180Y-102125923D01*
X128688180Y-102125923D02*
X128640561Y-102030685D01*
X128640561Y-102030685D02*
X128592942Y-101983066D01*
X128592942Y-101983066D02*
X128450085Y-101887828D01*
X128450085Y-101887828D02*
X128259609Y-101840209D01*
X128259609Y-101840209D02*
X127878657Y-101840209D01*
X127878657Y-101840209D02*
X127783419Y-101887828D01*
X127783419Y-101887828D02*
X127735800Y-101935447D01*
X127735800Y-101935447D02*
X127688180Y-102030685D01*
X127688180Y-102030685D02*
X127688180Y-102221161D01*
X127688180Y-102221161D02*
X127735800Y-102316399D01*
X127735800Y-102316399D02*
X127783419Y-102364018D01*
X127783419Y-102364018D02*
X127878657Y-102411637D01*
X127878657Y-102411637D02*
X128116752Y-102411637D01*
X128116752Y-102411637D02*
X128211990Y-102364018D01*
X128211990Y-102364018D02*
X128259609Y-102316399D01*
X128259609Y-102316399D02*
X128307228Y-102221161D01*
X128307228Y-102221161D02*
X128307228Y-102030685D01*
X128307228Y-102030685D02*
X128259609Y-101935447D01*
X128259609Y-101935447D02*
X128211990Y-101887828D01*
X128211990Y-101887828D02*
X128116752Y-101840209D01*
X128688180Y-102744971D02*
X128688180Y-103364018D01*
X128688180Y-103364018D02*
X128307228Y-103030685D01*
X128307228Y-103030685D02*
X128307228Y-103173542D01*
X128307228Y-103173542D02*
X128259609Y-103268780D01*
X128259609Y-103268780D02*
X128211990Y-103316399D01*
X128211990Y-103316399D02*
X128116752Y-103364018D01*
X128116752Y-103364018D02*
X127878657Y-103364018D01*
X127878657Y-103364018D02*
X127783419Y-103316399D01*
X127783419Y-103316399D02*
X127735800Y-103268780D01*
X127735800Y-103268780D02*
X127688180Y-103173542D01*
X127688180Y-103173542D02*
X127688180Y-102887828D01*
X127688180Y-102887828D02*
X127735800Y-102792590D01*
X127735800Y-102792590D02*
X127783419Y-102744971D01*
X128688180Y-103983066D02*
X128688180Y-104078304D01*
X128688180Y-104078304D02*
X128640561Y-104173542D01*
X128640561Y-104173542D02*
X128592942Y-104221161D01*
X128592942Y-104221161D02*
X128497704Y-104268780D01*
X128497704Y-104268780D02*
X128307228Y-104316399D01*
X128307228Y-104316399D02*
X128069133Y-104316399D01*
X128069133Y-104316399D02*
X127878657Y-104268780D01*
X127878657Y-104268780D02*
X127783419Y-104221161D01*
X127783419Y-104221161D02*
X127735800Y-104173542D01*
X127735800Y-104173542D02*
X127688180Y-104078304D01*
X127688180Y-104078304D02*
X127688180Y-103983066D01*
X127688180Y-103983066D02*
X127735800Y-103887828D01*
X127735800Y-103887828D02*
X127783419Y-103840209D01*
X127783419Y-103840209D02*
X127878657Y-103792590D01*
X127878657Y-103792590D02*
X128069133Y-103744971D01*
X128069133Y-103744971D02*
X128307228Y-103744971D01*
X128307228Y-103744971D02*
X128497704Y-103792590D01*
X128497704Y-103792590D02*
X128592942Y-103840209D01*
X128592942Y-103840209D02*
X128640561Y-103887828D01*
X128640561Y-103887828D02*
X128688180Y-103983066D01*
X127688180Y-105221161D02*
X127688180Y-104744971D01*
X127688180Y-104744971D02*
X128688180Y-104744971D01*
X127688180Y-106125923D02*
X128164371Y-105792590D01*
X127688180Y-105554495D02*
X128688180Y-105554495D01*
X128688180Y-105554495D02*
X128688180Y-105935447D01*
X128688180Y-105935447D02*
X128640561Y-106030685D01*
X128640561Y-106030685D02*
X128592942Y-106078304D01*
X128592942Y-106078304D02*
X128497704Y-106125923D01*
X128497704Y-106125923D02*
X128354847Y-106125923D01*
X128354847Y-106125923D02*
X128259609Y-106078304D01*
X128259609Y-106078304D02*
X128211990Y-106030685D01*
X128211990Y-106030685D02*
X128164371Y-105935447D01*
X128164371Y-105935447D02*
X128164371Y-105554495D01*
X128069133Y-106554495D02*
X128069133Y-107316400D01*
X127688180Y-108316399D02*
X127688180Y-107744971D01*
X127688180Y-108030685D02*
X128688180Y-108030685D01*
X128688180Y-108030685D02*
X128545323Y-107935447D01*
X128545323Y-107935447D02*
X128450085Y-107840209D01*
X128450085Y-107840209D02*
X128402466Y-107744971D01*
X128688180Y-108935447D02*
X128688180Y-109030685D01*
X128688180Y-109030685D02*
X128640561Y-109125923D01*
X128640561Y-109125923D02*
X128592942Y-109173542D01*
X128592942Y-109173542D02*
X128497704Y-109221161D01*
X128497704Y-109221161D02*
X128307228Y-109268780D01*
X128307228Y-109268780D02*
X128069133Y-109268780D01*
X128069133Y-109268780D02*
X127878657Y-109221161D01*
X127878657Y-109221161D02*
X127783419Y-109173542D01*
X127783419Y-109173542D02*
X127735800Y-109125923D01*
X127735800Y-109125923D02*
X127688180Y-109030685D01*
X127688180Y-109030685D02*
X127688180Y-108935447D01*
X127688180Y-108935447D02*
X127735800Y-108840209D01*
X127735800Y-108840209D02*
X127783419Y-108792590D01*
X127783419Y-108792590D02*
X127878657Y-108744971D01*
X127878657Y-108744971D02*
X128069133Y-108697352D01*
X128069133Y-108697352D02*
X128307228Y-108697352D01*
X128307228Y-108697352D02*
X128497704Y-108744971D01*
X128497704Y-108744971D02*
X128592942Y-108792590D01*
X128592942Y-108792590D02*
X128640561Y-108840209D01*
X128640561Y-108840209D02*
X128688180Y-108935447D01*
X128688180Y-109887828D02*
X128688180Y-109983066D01*
X128688180Y-109983066D02*
X128640561Y-110078304D01*
X128640561Y-110078304D02*
X128592942Y-110125923D01*
X128592942Y-110125923D02*
X128497704Y-110173542D01*
X128497704Y-110173542D02*
X128307228Y-110221161D01*
X128307228Y-110221161D02*
X128069133Y-110221161D01*
X128069133Y-110221161D02*
X127878657Y-110173542D01*
X127878657Y-110173542D02*
X127783419Y-110125923D01*
X127783419Y-110125923D02*
X127735800Y-110078304D01*
X127735800Y-110078304D02*
X127688180Y-109983066D01*
X127688180Y-109983066D02*
X127688180Y-109887828D01*
X127688180Y-109887828D02*
X127735800Y-109792590D01*
X127735800Y-109792590D02*
X127783419Y-109744971D01*
X127783419Y-109744971D02*
X127878657Y-109697352D01*
X127878657Y-109697352D02*
X128069133Y-109649733D01*
X128069133Y-109649733D02*
X128307228Y-109649733D01*
X128307228Y-109649733D02*
X128497704Y-109697352D01*
X128497704Y-109697352D02*
X128592942Y-109744971D01*
X128592942Y-109744971D02*
X128640561Y-109792590D01*
X128640561Y-109792590D02*
X128688180Y-109887828D01*
X127688180Y-110649733D02*
X128688180Y-110649733D01*
X128688180Y-110649733D02*
X127973895Y-110983066D01*
X127973895Y-110983066D02*
X128688180Y-111316399D01*
X128688180Y-111316399D02*
X127688180Y-111316399D01*
X128069133Y-111792590D02*
X128069133Y-112554495D01*
X128688180Y-112887828D02*
X128688180Y-113459256D01*
X127688180Y-113173542D02*
X128688180Y-113173542D01*
X127688180Y-114316399D02*
X127688180Y-113744971D01*
X127688180Y-114030685D02*
X128688180Y-114030685D01*
X128688180Y-114030685D02*
X128545323Y-113935447D01*
X128545323Y-113935447D02*
X128450085Y-113840209D01*
X128450085Y-113840209D02*
X128402466Y-113744971D01*
X128688180Y-115221161D02*
X128688180Y-114744971D01*
X128688180Y-114744971D02*
X128211990Y-114697352D01*
X128211990Y-114697352D02*
X128259609Y-114744971D01*
X128259609Y-114744971D02*
X128307228Y-114840209D01*
X128307228Y-114840209D02*
X128307228Y-115078304D01*
X128307228Y-115078304D02*
X128259609Y-115173542D01*
X128259609Y-115173542D02*
X128211990Y-115221161D01*
X128211990Y-115221161D02*
X128116752Y-115268780D01*
X128116752Y-115268780D02*
X127878657Y-115268780D01*
X127878657Y-115268780D02*
X127783419Y-115221161D01*
X127783419Y-115221161D02*
X127735800Y-115173542D01*
X127735800Y-115173542D02*
X127688180Y-115078304D01*
X127688180Y-115078304D02*
X127688180Y-114840209D01*
X127688180Y-114840209D02*
X127735800Y-114744971D01*
X127735800Y-114744971D02*
X127783419Y-114697352D01*
X127688180Y-105649733D02*
X127688180Y-105173543D01*
X127688180Y-105173543D02*
X128688180Y-105173543D01*
X127688180Y-106506876D02*
X127688180Y-105935448D01*
X127688180Y-106221162D02*
X128688180Y-106221162D01*
X128688180Y-106221162D02*
X128545323Y-106125924D01*
X128545323Y-106125924D02*
X128450085Y-106030686D01*
X128450085Y-106030686D02*
X128402466Y-105935448D01*
X95439123Y-101342400D02*
X95534361Y-101390019D01*
X95534361Y-101390019D02*
X95724837Y-101390019D01*
X95724837Y-101390019D02*
X95820075Y-101342400D01*
X95820075Y-101342400D02*
X95867694Y-101247161D01*
X95867694Y-101247161D02*
X95867694Y-101199542D01*
X95867694Y-101199542D02*
X95820075Y-101104304D01*
X95820075Y-101104304D02*
X95724837Y-101056685D01*
X95724837Y-101056685D02*
X95581980Y-101056685D01*
X95581980Y-101056685D02*
X95486742Y-101009066D01*
X95486742Y-101009066D02*
X95439123Y-100913828D01*
X95439123Y-100913828D02*
X95439123Y-100866209D01*
X95439123Y-100866209D02*
X95486742Y-100770971D01*
X95486742Y-100770971D02*
X95581980Y-100723352D01*
X95581980Y-100723352D02*
X95724837Y-100723352D01*
X95724837Y-100723352D02*
X95820075Y-100770971D01*
X96439123Y-101390019D02*
X96343885Y-101342400D01*
X96343885Y-101342400D02*
X96296266Y-101294780D01*
X96296266Y-101294780D02*
X96248647Y-101199542D01*
X96248647Y-101199542D02*
X96248647Y-100913828D01*
X96248647Y-100913828D02*
X96296266Y-100818590D01*
X96296266Y-100818590D02*
X96343885Y-100770971D01*
X96343885Y-100770971D02*
X96439123Y-100723352D01*
X96439123Y-100723352D02*
X96581980Y-100723352D01*
X96581980Y-100723352D02*
X96677218Y-100770971D01*
X96677218Y-100770971D02*
X96724837Y-100818590D01*
X96724837Y-100818590D02*
X96772456Y-100913828D01*
X96772456Y-100913828D02*
X96772456Y-101199542D01*
X96772456Y-101199542D02*
X96724837Y-101294780D01*
X96724837Y-101294780D02*
X96677218Y-101342400D01*
X96677218Y-101342400D02*
X96581980Y-101390019D01*
X96581980Y-101390019D02*
X96439123Y-101390019D01*
X97343885Y-101390019D02*
X97248647Y-101342400D01*
X97248647Y-101342400D02*
X97201028Y-101247161D01*
X97201028Y-101247161D02*
X97201028Y-100390019D01*
X98153409Y-101390019D02*
X98153409Y-100866209D01*
X98153409Y-100866209D02*
X98105790Y-100770971D01*
X98105790Y-100770971D02*
X98010552Y-100723352D01*
X98010552Y-100723352D02*
X97820076Y-100723352D01*
X97820076Y-100723352D02*
X97724838Y-100770971D01*
X98153409Y-101342400D02*
X98058171Y-101390019D01*
X98058171Y-101390019D02*
X97820076Y-101390019D01*
X97820076Y-101390019D02*
X97724838Y-101342400D01*
X97724838Y-101342400D02*
X97677219Y-101247161D01*
X97677219Y-101247161D02*
X97677219Y-101151923D01*
X97677219Y-101151923D02*
X97724838Y-101056685D01*
X97724838Y-101056685D02*
X97820076Y-101009066D01*
X97820076Y-101009066D02*
X98058171Y-101009066D01*
X98058171Y-101009066D02*
X98153409Y-100961447D01*
X98629600Y-101390019D02*
X98629600Y-100723352D01*
X98629600Y-100913828D02*
X98677219Y-100818590D01*
X98677219Y-100818590D02*
X98724838Y-100770971D01*
X98724838Y-100770971D02*
X98820076Y-100723352D01*
X98820076Y-100723352D02*
X98915314Y-100723352D01*
X98199419Y-104808533D02*
X98913704Y-104808533D01*
X98913704Y-104808533D02*
X99056561Y-104856152D01*
X99056561Y-104856152D02*
X99151800Y-104951390D01*
X99151800Y-104951390D02*
X99199419Y-105094247D01*
X99199419Y-105094247D02*
X99199419Y-105189485D01*
X98532752Y-103903771D02*
X99199419Y-103903771D01*
X98151800Y-104141866D02*
X98866085Y-104379961D01*
X98866085Y-104379961D02*
X98866085Y-103760914D01*
X106992690Y-109897519D02*
X107183166Y-109897519D01*
X107183166Y-109897519D02*
X107278404Y-109945138D01*
X107278404Y-109945138D02*
X107373642Y-110040376D01*
X107373642Y-110040376D02*
X107421261Y-110230852D01*
X107421261Y-110230852D02*
X107421261Y-110564185D01*
X107421261Y-110564185D02*
X107373642Y-110754661D01*
X107373642Y-110754661D02*
X107278404Y-110849900D01*
X107278404Y-110849900D02*
X107183166Y-110897519D01*
X107183166Y-110897519D02*
X106992690Y-110897519D01*
X106992690Y-110897519D02*
X106897452Y-110849900D01*
X106897452Y-110849900D02*
X106802214Y-110754661D01*
X106802214Y-110754661D02*
X106754595Y-110564185D01*
X106754595Y-110564185D02*
X106754595Y-110230852D01*
X106754595Y-110230852D02*
X106802214Y-110040376D01*
X106802214Y-110040376D02*
X106897452Y-109945138D01*
X106897452Y-109945138D02*
X106992690Y-109897519D01*
X107849833Y-110897519D02*
X107849833Y-109897519D01*
X107849833Y-109897519D02*
X108421261Y-110897519D01*
X108421261Y-110897519D02*
X108421261Y-109897519D01*
X109611737Y-109849900D02*
X108754595Y-111135614D01*
X110135547Y-109897519D02*
X110326023Y-109897519D01*
X110326023Y-109897519D02*
X110421261Y-109945138D01*
X110421261Y-109945138D02*
X110516499Y-110040376D01*
X110516499Y-110040376D02*
X110564118Y-110230852D01*
X110564118Y-110230852D02*
X110564118Y-110564185D01*
X110564118Y-110564185D02*
X110516499Y-110754661D01*
X110516499Y-110754661D02*
X110421261Y-110849900D01*
X110421261Y-110849900D02*
X110326023Y-110897519D01*
X110326023Y-110897519D02*
X110135547Y-110897519D01*
X110135547Y-110897519D02*
X110040309Y-110849900D01*
X110040309Y-110849900D02*
X109945071Y-110754661D01*
X109945071Y-110754661D02*
X109897452Y-110564185D01*
X109897452Y-110564185D02*
X109897452Y-110230852D01*
X109897452Y-110230852D02*
X109945071Y-110040376D01*
X109945071Y-110040376D02*
X110040309Y-109945138D01*
X110040309Y-109945138D02*
X110135547Y-109897519D01*
X111326023Y-110373709D02*
X110992690Y-110373709D01*
X110992690Y-110897519D02*
X110992690Y-109897519D01*
X110992690Y-109897519D02*
X111468880Y-109897519D01*
X112183166Y-110373709D02*
X111849833Y-110373709D01*
X111849833Y-110897519D02*
X111849833Y-109897519D01*
X111849833Y-109897519D02*
X112326023Y-109897519D01*
D13*
X110757214Y-105798091D02*
X110700071Y-105769520D01*
X110700071Y-105769520D02*
X110671500Y-105740948D01*
X110671500Y-105740948D02*
X110642928Y-105683805D01*
X110642928Y-105683805D02*
X110642928Y-105512377D01*
X110642928Y-105512377D02*
X110671500Y-105455234D01*
X110671500Y-105455234D02*
X110700071Y-105426662D01*
X110700071Y-105426662D02*
X110757214Y-105398091D01*
X110757214Y-105398091D02*
X110842928Y-105398091D01*
X110842928Y-105398091D02*
X110900071Y-105426662D01*
X110900071Y-105426662D02*
X110928643Y-105455234D01*
X110928643Y-105455234D02*
X110957214Y-105512377D01*
X110957214Y-105512377D02*
X110957214Y-105683805D01*
X110957214Y-105683805D02*
X110928643Y-105740948D01*
X110928643Y-105740948D02*
X110900071Y-105769520D01*
X110900071Y-105769520D02*
X110842928Y-105798091D01*
X110842928Y-105798091D02*
X110757214Y-105798091D01*
X111214357Y-105398091D02*
X111214357Y-105798091D01*
X111214357Y-105455234D02*
X111242928Y-105426662D01*
X111242928Y-105426662D02*
X111300071Y-105398091D01*
X111300071Y-105398091D02*
X111385785Y-105398091D01*
X111385785Y-105398091D02*
X111442928Y-105426662D01*
X111442928Y-105426662D02*
X111471500Y-105483805D01*
X111471500Y-105483805D02*
X111471500Y-105798091D01*
X112649391Y-107222700D02*
X113077962Y-107222700D01*
X113077962Y-107222700D02*
X113163677Y-107251271D01*
X113163677Y-107251271D02*
X113220820Y-107308414D01*
X113220820Y-107308414D02*
X113249391Y-107394128D01*
X113249391Y-107394128D02*
X113249391Y-107451271D01*
X112649391Y-106994128D02*
X112649391Y-106622700D01*
X112649391Y-106622700D02*
X112877962Y-106822700D01*
X112877962Y-106822700D02*
X112877962Y-106736985D01*
X112877962Y-106736985D02*
X112906534Y-106679843D01*
X112906534Y-106679843D02*
X112935105Y-106651271D01*
X112935105Y-106651271D02*
X112992248Y-106622700D01*
X112992248Y-106622700D02*
X113135105Y-106622700D01*
X113135105Y-106622700D02*
X113192248Y-106651271D01*
X113192248Y-106651271D02*
X113220820Y-106679843D01*
X113220820Y-106679843D02*
X113249391Y-106736985D01*
X113249391Y-106736985D02*
X113249391Y-106908414D01*
X113249391Y-106908414D02*
X113220820Y-106965557D01*
X113220820Y-106965557D02*
X113192248Y-106994128D01*
D10*
X120651876Y-114601419D02*
X120080448Y-114601419D01*
X120366162Y-114601419D02*
X120366162Y-113601419D01*
X120366162Y-113601419D02*
X120270924Y-113744276D01*
X120270924Y-113744276D02*
X120175686Y-113839514D01*
X120175686Y-113839514D02*
X120080448Y-113887133D01*
X121080448Y-114601419D02*
X121080448Y-113601419D01*
X121080448Y-113601419D02*
X121413781Y-114315704D01*
X121413781Y-114315704D02*
X121747114Y-113601419D01*
X121747114Y-113601419D02*
X121747114Y-114601419D01*
X123175686Y-113601419D02*
X123366162Y-113601419D01*
X123366162Y-113601419D02*
X123461400Y-113649038D01*
X123461400Y-113649038D02*
X123556638Y-113744276D01*
X123556638Y-113744276D02*
X123604257Y-113934752D01*
X123604257Y-113934752D02*
X123604257Y-114268085D01*
X123604257Y-114268085D02*
X123556638Y-114458561D01*
X123556638Y-114458561D02*
X123461400Y-114553800D01*
X123461400Y-114553800D02*
X123366162Y-114601419D01*
X123366162Y-114601419D02*
X123175686Y-114601419D01*
X123175686Y-114601419D02*
X123080448Y-114553800D01*
X123080448Y-114553800D02*
X122985210Y-114458561D01*
X122985210Y-114458561D02*
X122937591Y-114268085D01*
X122937591Y-114268085D02*
X122937591Y-113934752D01*
X122937591Y-113934752D02*
X122985210Y-113744276D01*
X122985210Y-113744276D02*
X123080448Y-113649038D01*
X123080448Y-113649038D02*
X123175686Y-113601419D01*
X124032829Y-114601419D02*
X124032829Y-113601419D01*
X124461400Y-114601419D02*
X124461400Y-114077609D01*
X124461400Y-114077609D02*
X124413781Y-113982371D01*
X124413781Y-113982371D02*
X124318543Y-113934752D01*
X124318543Y-113934752D02*
X124175686Y-113934752D01*
X124175686Y-113934752D02*
X124080448Y-113982371D01*
X124080448Y-113982371D02*
X124032829Y-114029990D01*
X124937591Y-114601419D02*
X124937591Y-113934752D01*
X124937591Y-114029990D02*
X124985210Y-113982371D01*
X124985210Y-113982371D02*
X125080448Y-113934752D01*
X125080448Y-113934752D02*
X125223305Y-113934752D01*
X125223305Y-113934752D02*
X125318543Y-113982371D01*
X125318543Y-113982371D02*
X125366162Y-114077609D01*
X125366162Y-114077609D02*
X125366162Y-114601419D01*
X125366162Y-114077609D02*
X125413781Y-113982371D01*
X125413781Y-113982371D02*
X125509019Y-113934752D01*
X125509019Y-113934752D02*
X125651876Y-113934752D01*
X125651876Y-113934752D02*
X125747115Y-113982371D01*
X125747115Y-113982371D02*
X125794734Y-114077609D01*
X125794734Y-114077609D02*
X125794734Y-114601419D01*
D11*
X122878066Y-112723749D02*
X122711400Y-112485654D01*
X122592352Y-112723749D02*
X122592352Y-112223749D01*
X122592352Y-112223749D02*
X122782828Y-112223749D01*
X122782828Y-112223749D02*
X122830447Y-112247559D01*
X122830447Y-112247559D02*
X122854257Y-112271368D01*
X122854257Y-112271368D02*
X122878066Y-112318987D01*
X122878066Y-112318987D02*
X122878066Y-112390416D01*
X122878066Y-112390416D02*
X122854257Y-112438035D01*
X122854257Y-112438035D02*
X122830447Y-112461844D01*
X122830447Y-112461844D02*
X122782828Y-112485654D01*
X122782828Y-112485654D02*
X122592352Y-112485654D01*
X123354257Y-112723749D02*
X123068543Y-112723749D01*
X123211400Y-112723749D02*
X123211400Y-112223749D01*
X123211400Y-112223749D02*
X123163781Y-112295178D01*
X123163781Y-112295178D02*
X123116162Y-112342797D01*
X123116162Y-112342797D02*
X123068543Y-112366606D01*
D10*
X123477733Y-116580952D02*
X123477733Y-117247619D01*
X123239638Y-116200000D02*
X123001543Y-116914285D01*
X123001543Y-116914285D02*
X123620590Y-116914285D01*
X124001543Y-117152380D02*
X124049162Y-117200000D01*
X124049162Y-117200000D02*
X124001543Y-117247619D01*
X124001543Y-117247619D02*
X123953924Y-117200000D01*
X123953924Y-117200000D02*
X124001543Y-117152380D01*
X124001543Y-117152380D02*
X124001543Y-117247619D01*
X124382495Y-116247619D02*
X125049161Y-116247619D01*
X125049161Y-116247619D02*
X124620590Y-117247619D01*
X125858685Y-116580952D02*
X125858685Y-117247619D01*
X125430114Y-116580952D02*
X125430114Y-117104761D01*
X125430114Y-117104761D02*
X125477733Y-117200000D01*
X125477733Y-117200000D02*
X125572971Y-117247619D01*
X125572971Y-117247619D02*
X125715828Y-117247619D01*
X125715828Y-117247619D02*
X125811066Y-117200000D01*
X125811066Y-117200000D02*
X125858685Y-117152380D01*
X126668209Y-116723809D02*
X126334876Y-116723809D01*
X126334876Y-117247619D02*
X126334876Y-116247619D01*
X126334876Y-116247619D02*
X126811066Y-116247619D01*
X128430114Y-116247619D02*
X127953924Y-116247619D01*
X127953924Y-116247619D02*
X127906305Y-116723809D01*
X127906305Y-116723809D02*
X127953924Y-116676190D01*
X127953924Y-116676190D02*
X128049162Y-116628571D01*
X128049162Y-116628571D02*
X128287257Y-116628571D01*
X128287257Y-116628571D02*
X128382495Y-116676190D01*
X128382495Y-116676190D02*
X128430114Y-116723809D01*
X128430114Y-116723809D02*
X128477733Y-116819047D01*
X128477733Y-116819047D02*
X128477733Y-117057142D01*
X128477733Y-117057142D02*
X128430114Y-117152380D01*
X128430114Y-117152380D02*
X128382495Y-117200000D01*
X128382495Y-117200000D02*
X128287257Y-117247619D01*
X128287257Y-117247619D02*
X128049162Y-117247619D01*
X128049162Y-117247619D02*
X127953924Y-117200000D01*
X127953924Y-117200000D02*
X127906305Y-117152380D01*
X129096781Y-116247619D02*
X129192019Y-116247619D01*
X129192019Y-116247619D02*
X129287257Y-116295238D01*
X129287257Y-116295238D02*
X129334876Y-116342857D01*
X129334876Y-116342857D02*
X129382495Y-116438095D01*
X129382495Y-116438095D02*
X129430114Y-116628571D01*
X129430114Y-116628571D02*
X129430114Y-116866666D01*
X129430114Y-116866666D02*
X129382495Y-117057142D01*
X129382495Y-117057142D02*
X129334876Y-117152380D01*
X129334876Y-117152380D02*
X129287257Y-117200000D01*
X129287257Y-117200000D02*
X129192019Y-117247619D01*
X129192019Y-117247619D02*
X129096781Y-117247619D01*
X129096781Y-117247619D02*
X129001543Y-117200000D01*
X129001543Y-117200000D02*
X128953924Y-117152380D01*
X128953924Y-117152380D02*
X128906305Y-117057142D01*
X128906305Y-117057142D02*
X128858686Y-116866666D01*
X128858686Y-116866666D02*
X128858686Y-116628571D01*
X128858686Y-116628571D02*
X128906305Y-116438095D01*
X128906305Y-116438095D02*
X128953924Y-116342857D01*
X128953924Y-116342857D02*
X129001543Y-116295238D01*
X129001543Y-116295238D02*
X129096781Y-116247619D01*
X129715829Y-116247619D02*
X130049162Y-117247619D01*
X130049162Y-117247619D02*
X130382495Y-116247619D01*
D11*
X126561066Y-115292330D02*
X126537257Y-115316140D01*
X126537257Y-115316140D02*
X126465828Y-115339949D01*
X126465828Y-115339949D02*
X126418209Y-115339949D01*
X126418209Y-115339949D02*
X126346781Y-115316140D01*
X126346781Y-115316140D02*
X126299162Y-115268520D01*
X126299162Y-115268520D02*
X126275352Y-115220901D01*
X126275352Y-115220901D02*
X126251543Y-115125663D01*
X126251543Y-115125663D02*
X126251543Y-115054235D01*
X126251543Y-115054235D02*
X126275352Y-114958997D01*
X126275352Y-114958997D02*
X126299162Y-114911378D01*
X126299162Y-114911378D02*
X126346781Y-114863759D01*
X126346781Y-114863759D02*
X126418209Y-114839949D01*
X126418209Y-114839949D02*
X126465828Y-114839949D01*
X126465828Y-114839949D02*
X126537257Y-114863759D01*
X126537257Y-114863759D02*
X126561066Y-114887568D01*
X127037257Y-115339949D02*
X126751543Y-115339949D01*
X126894400Y-115339949D02*
X126894400Y-114839949D01*
X126894400Y-114839949D02*
X126846781Y-114911378D01*
X126846781Y-114911378D02*
X126799162Y-114958997D01*
X126799162Y-114958997D02*
X126751543Y-114982806D01*
D10*
X111428638Y-112965257D02*
X111476257Y-112917638D01*
X111476257Y-112917638D02*
X111571495Y-112870019D01*
X111571495Y-112870019D02*
X111809590Y-112870019D01*
X111809590Y-112870019D02*
X111904828Y-112917638D01*
X111904828Y-112917638D02*
X111952447Y-112965257D01*
X111952447Y-112965257D02*
X112000066Y-113060495D01*
X112000066Y-113060495D02*
X112000066Y-113155733D01*
X112000066Y-113155733D02*
X111952447Y-113298590D01*
X111952447Y-113298590D02*
X111381019Y-113870019D01*
X111381019Y-113870019D02*
X112000066Y-113870019D01*
X112381019Y-112965257D02*
X112428638Y-112917638D01*
X112428638Y-112917638D02*
X112523876Y-112870019D01*
X112523876Y-112870019D02*
X112761971Y-112870019D01*
X112761971Y-112870019D02*
X112857209Y-112917638D01*
X112857209Y-112917638D02*
X112904828Y-112965257D01*
X112904828Y-112965257D02*
X112952447Y-113060495D01*
X112952447Y-113060495D02*
X112952447Y-113155733D01*
X112952447Y-113155733D02*
X112904828Y-113298590D01*
X112904828Y-113298590D02*
X112333400Y-113870019D01*
X112333400Y-113870019D02*
X112952447Y-113870019D01*
X113809590Y-113203352D02*
X113809590Y-113870019D01*
X113381019Y-113203352D02*
X113381019Y-113727161D01*
X113381019Y-113727161D02*
X113428638Y-113822400D01*
X113428638Y-113822400D02*
X113523876Y-113870019D01*
X113523876Y-113870019D02*
X113666733Y-113870019D01*
X113666733Y-113870019D02*
X113761971Y-113822400D01*
X113761971Y-113822400D02*
X113809590Y-113774780D01*
X114619114Y-113346209D02*
X114285781Y-113346209D01*
X114285781Y-113870019D02*
X114285781Y-112870019D01*
X114285781Y-112870019D02*
X114761971Y-112870019D01*
X116428638Y-113870019D02*
X115857210Y-113870019D01*
X116142924Y-113870019D02*
X116142924Y-112870019D01*
X116142924Y-112870019D02*
X116047686Y-113012876D01*
X116047686Y-113012876D02*
X115952448Y-113108114D01*
X115952448Y-113108114D02*
X115857210Y-113155733D01*
X117047686Y-112870019D02*
X117142924Y-112870019D01*
X117142924Y-112870019D02*
X117238162Y-112917638D01*
X117238162Y-112917638D02*
X117285781Y-112965257D01*
X117285781Y-112965257D02*
X117333400Y-113060495D01*
X117333400Y-113060495D02*
X117381019Y-113250971D01*
X117381019Y-113250971D02*
X117381019Y-113489066D01*
X117381019Y-113489066D02*
X117333400Y-113679542D01*
X117333400Y-113679542D02*
X117285781Y-113774780D01*
X117285781Y-113774780D02*
X117238162Y-113822400D01*
X117238162Y-113822400D02*
X117142924Y-113870019D01*
X117142924Y-113870019D02*
X117047686Y-113870019D01*
X117047686Y-113870019D02*
X116952448Y-113822400D01*
X116952448Y-113822400D02*
X116904829Y-113774780D01*
X116904829Y-113774780D02*
X116857210Y-113679542D01*
X116857210Y-113679542D02*
X116809591Y-113489066D01*
X116809591Y-113489066D02*
X116809591Y-113250971D01*
X116809591Y-113250971D02*
X116857210Y-113060495D01*
X116857210Y-113060495D02*
X116904829Y-112965257D01*
X116904829Y-112965257D02*
X116952448Y-112917638D01*
X116952448Y-112917638D02*
X117047686Y-112870019D01*
X117666734Y-112870019D02*
X118000067Y-113870019D01*
X118000067Y-113870019D02*
X118333400Y-112870019D01*
D14*
X114700067Y-115552864D02*
X114661971Y-115590960D01*
X114661971Y-115590960D02*
X114547686Y-115629055D01*
X114547686Y-115629055D02*
X114471495Y-115629055D01*
X114471495Y-115629055D02*
X114357209Y-115590960D01*
X114357209Y-115590960D02*
X114281019Y-115514769D01*
X114281019Y-115514769D02*
X114242924Y-115438579D01*
X114242924Y-115438579D02*
X114204828Y-115286198D01*
X114204828Y-115286198D02*
X114204828Y-115171912D01*
X114204828Y-115171912D02*
X114242924Y-115019531D01*
X114242924Y-115019531D02*
X114281019Y-114943340D01*
X114281019Y-114943340D02*
X114357209Y-114867150D01*
X114357209Y-114867150D02*
X114471495Y-114829055D01*
X114471495Y-114829055D02*
X114547686Y-114829055D01*
X114547686Y-114829055D02*
X114661971Y-114867150D01*
X114661971Y-114867150D02*
X114700067Y-114905245D01*
X115004828Y-114905245D02*
X115042924Y-114867150D01*
X115042924Y-114867150D02*
X115119114Y-114829055D01*
X115119114Y-114829055D02*
X115309590Y-114829055D01*
X115309590Y-114829055D02*
X115385781Y-114867150D01*
X115385781Y-114867150D02*
X115423876Y-114905245D01*
X115423876Y-114905245D02*
X115461971Y-114981436D01*
X115461971Y-114981436D02*
X115461971Y-115057626D01*
X115461971Y-115057626D02*
X115423876Y-115171912D01*
X115423876Y-115171912D02*
X114966733Y-115629055D01*
X114966733Y-115629055D02*
X115461971Y-115629055D01*
D10*
X109248914Y-113899157D02*
X109296533Y-113851538D01*
X109296533Y-113851538D02*
X109391771Y-113803919D01*
X109391771Y-113803919D02*
X109629866Y-113803919D01*
X109629866Y-113803919D02*
X109725104Y-113851538D01*
X109725104Y-113851538D02*
X109772723Y-113899157D01*
X109772723Y-113899157D02*
X109820342Y-113994395D01*
X109820342Y-113994395D02*
X109820342Y-114089633D01*
X109820342Y-114089633D02*
X109772723Y-114232490D01*
X109772723Y-114232490D02*
X109201295Y-114803919D01*
X109201295Y-114803919D02*
X109820342Y-114803919D01*
X110248914Y-114803919D02*
X110248914Y-113803919D01*
X110248914Y-113803919D02*
X110820342Y-114803919D01*
X110820342Y-114803919D02*
X110820342Y-113803919D01*
X111201295Y-113803919D02*
X111867961Y-113803919D01*
X111867961Y-113803919D02*
X111439390Y-114803919D01*
X112439390Y-113803919D02*
X112534628Y-113803919D01*
X112534628Y-113803919D02*
X112629866Y-113851538D01*
X112629866Y-113851538D02*
X112677485Y-113899157D01*
X112677485Y-113899157D02*
X112725104Y-113994395D01*
X112725104Y-113994395D02*
X112772723Y-114184871D01*
X112772723Y-114184871D02*
X112772723Y-114422966D01*
X112772723Y-114422966D02*
X112725104Y-114613442D01*
X112725104Y-114613442D02*
X112677485Y-114708680D01*
X112677485Y-114708680D02*
X112629866Y-114756300D01*
X112629866Y-114756300D02*
X112534628Y-114803919D01*
X112534628Y-114803919D02*
X112439390Y-114803919D01*
X112439390Y-114803919D02*
X112344152Y-114756300D01*
X112344152Y-114756300D02*
X112296533Y-114708680D01*
X112296533Y-114708680D02*
X112248914Y-114613442D01*
X112248914Y-114613442D02*
X112201295Y-114422966D01*
X112201295Y-114422966D02*
X112201295Y-114184871D01*
X112201295Y-114184871D02*
X112248914Y-113994395D01*
X112248914Y-113994395D02*
X112296533Y-113899157D01*
X112296533Y-113899157D02*
X112344152Y-113851538D01*
X112344152Y-113851538D02*
X112439390Y-113803919D01*
X113391771Y-113803919D02*
X113487009Y-113803919D01*
X113487009Y-113803919D02*
X113582247Y-113851538D01*
X113582247Y-113851538D02*
X113629866Y-113899157D01*
X113629866Y-113899157D02*
X113677485Y-113994395D01*
X113677485Y-113994395D02*
X113725104Y-114184871D01*
X113725104Y-114184871D02*
X113725104Y-114422966D01*
X113725104Y-114422966D02*
X113677485Y-114613442D01*
X113677485Y-114613442D02*
X113629866Y-114708680D01*
X113629866Y-114708680D02*
X113582247Y-114756300D01*
X113582247Y-114756300D02*
X113487009Y-114803919D01*
X113487009Y-114803919D02*
X113391771Y-114803919D01*
X113391771Y-114803919D02*
X113296533Y-114756300D01*
X113296533Y-114756300D02*
X113248914Y-114708680D01*
X113248914Y-114708680D02*
X113201295Y-114613442D01*
X113201295Y-114613442D02*
X113153676Y-114422966D01*
X113153676Y-114422966D02*
X113153676Y-114184871D01*
X113153676Y-114184871D02*
X113201295Y-113994395D01*
X113201295Y-113994395D02*
X113248914Y-113899157D01*
X113248914Y-113899157D02*
X113296533Y-113851538D01*
X113296533Y-113851538D02*
X113391771Y-113803919D01*
X114106057Y-113899157D02*
X114153676Y-113851538D01*
X114153676Y-113851538D02*
X114248914Y-113803919D01*
X114248914Y-113803919D02*
X114487009Y-113803919D01*
X114487009Y-113803919D02*
X114582247Y-113851538D01*
X114582247Y-113851538D02*
X114629866Y-113899157D01*
X114629866Y-113899157D02*
X114677485Y-113994395D01*
X114677485Y-113994395D02*
X114677485Y-114089633D01*
X114677485Y-114089633D02*
X114629866Y-114232490D01*
X114629866Y-114232490D02*
X114058438Y-114803919D01*
X114058438Y-114803919D02*
X114677485Y-114803919D01*
D15*
X111932723Y-112125014D02*
X111902247Y-112109776D01*
X111902247Y-112109776D02*
X111871771Y-112079300D01*
X111871771Y-112079300D02*
X111826057Y-112033585D01*
X111826057Y-112033585D02*
X111795580Y-112018347D01*
X111795580Y-112018347D02*
X111765104Y-112018347D01*
X111780342Y-112094538D02*
X111749866Y-112079300D01*
X111749866Y-112079300D02*
X111719390Y-112048823D01*
X111719390Y-112048823D02*
X111704152Y-111987871D01*
X111704152Y-111987871D02*
X111704152Y-111881204D01*
X111704152Y-111881204D02*
X111719390Y-111820252D01*
X111719390Y-111820252D02*
X111749866Y-111789776D01*
X111749866Y-111789776D02*
X111780342Y-111774538D01*
X111780342Y-111774538D02*
X111841295Y-111774538D01*
X111841295Y-111774538D02*
X111871771Y-111789776D01*
X111871771Y-111789776D02*
X111902247Y-111820252D01*
X111902247Y-111820252D02*
X111917485Y-111881204D01*
X111917485Y-111881204D02*
X111917485Y-111987871D01*
X111917485Y-111987871D02*
X111902247Y-112048823D01*
X111902247Y-112048823D02*
X111871771Y-112079300D01*
X111871771Y-112079300D02*
X111841295Y-112094538D01*
X111841295Y-112094538D02*
X111780342Y-112094538D01*
X112222247Y-112094538D02*
X112039390Y-112094538D01*
X112130818Y-112094538D02*
X112130818Y-111774538D01*
X112130818Y-111774538D02*
X112100342Y-111820252D01*
X112100342Y-111820252D02*
X112069866Y-111850728D01*
X112069866Y-111850728D02*
X112039390Y-111865966D01*
D16*
%TO.C,R3*%
X107350400Y-110988600D02*
X108600400Y-110988600D01*
X107350400Y-112988600D02*
X107350400Y-110988600D01*
X108600400Y-110988600D02*
X108600400Y-112988600D01*
X108600400Y-112988600D02*
X107350400Y-112988600D01*
%TO.C,D1*%
X116264800Y-103674900D02*
X116264800Y-101074900D01*
X119776240Y-103675380D02*
X119854980Y-103675380D01*
X119778780Y-101074420D02*
X119776240Y-103675380D01*
X119854980Y-101074420D02*
X119778780Y-101074420D01*
X119854980Y-103675380D02*
X119854980Y-101074420D01*
X120564800Y-101074900D02*
X116264800Y-101074900D01*
X120564800Y-103674900D02*
X116264800Y-103674900D01*
X120564800Y-103674900D02*
X120564800Y-101074900D01*
%TO.C,J2*%
X91449200Y-110484800D02*
X91449200Y-109844800D01*
X91449200Y-113024800D02*
X91449200Y-112384800D01*
X97449200Y-108894800D02*
X99989200Y-108894800D01*
X97449200Y-109844800D02*
X91449200Y-109844800D01*
X97449200Y-110484800D02*
X91449200Y-110484800D01*
X97449200Y-112384800D02*
X91449200Y-112384800D01*
X97449200Y-113024800D02*
X91449200Y-113024800D01*
X97449200Y-113974800D02*
X97449200Y-108894800D01*
X99354200Y-113974800D02*
X97449200Y-113974800D01*
X99989200Y-108894800D02*
X99989200Y-113339800D01*
X99989200Y-113339800D02*
X99354200Y-113974800D01*
X101809200Y-109844800D02*
X99989200Y-109844800D01*
X101809200Y-110484800D02*
X99989200Y-110484800D01*
X101809200Y-110484800D02*
X101809200Y-109844800D01*
X101809200Y-112384800D02*
X99989200Y-112384800D01*
X101809200Y-113024800D02*
X99989200Y-113024800D01*
X101809200Y-113024800D02*
X101809200Y-112384800D01*
D17*
%TO.C,U1*%
X116967000Y-106644400D02*
X116967000Y-107152400D01*
X116967000Y-107152400D02*
X117792500Y-107152400D01*
X116967000Y-107594400D02*
X116967000Y-108102400D01*
X116967000Y-108102400D02*
X117792500Y-108102400D01*
X116967000Y-108544400D02*
X116967000Y-109052400D01*
X116967000Y-109052400D02*
X117792500Y-109052400D01*
X117792500Y-106400600D02*
X117792500Y-109296200D01*
X117792500Y-106644400D02*
X116967000Y-106644400D01*
X117792500Y-107152400D02*
X117792500Y-106644400D01*
X117792500Y-107594400D02*
X116967000Y-107594400D01*
X117792500Y-108102400D02*
X117792500Y-107594400D01*
X117792500Y-108544400D02*
X116967000Y-108544400D01*
X117792500Y-109052400D02*
X117792500Y-108544400D01*
X117792500Y-109296200D02*
X119341900Y-109296200D01*
X119341900Y-106400600D02*
X117792500Y-106400600D01*
X119341900Y-106644400D02*
X119341900Y-107152400D01*
X119341900Y-107152400D02*
X120167400Y-107152400D01*
X119341900Y-108544400D02*
X119341900Y-109052400D01*
X119341900Y-109052400D02*
X120167400Y-109052400D01*
X119341900Y-109296200D02*
X119341900Y-106400600D01*
X120167400Y-106644400D02*
X119341900Y-106644400D01*
X120167400Y-107152400D02*
X120167400Y-106644400D01*
X120167400Y-108544400D02*
X119341900Y-108544400D01*
X120167400Y-109052400D02*
X120167400Y-108544400D01*
X118872000Y-106400600D02*
G75*
G02*
X118262400Y-106400600I-304800J0D01*
G01*
D16*
%TO.C,J1*%
X135223600Y-105847000D02*
X135223600Y-106487000D01*
X135223600Y-105847000D02*
X137043600Y-105847000D01*
X135223600Y-106487000D02*
X137043600Y-106487000D01*
X135223600Y-108387000D02*
X135223600Y-109027000D01*
X135223600Y-108387000D02*
X137043600Y-108387000D01*
X135223600Y-109027000D02*
X137043600Y-109027000D01*
X137043600Y-105532000D02*
X137678600Y-104897000D01*
X137043600Y-109977000D02*
X137043600Y-105532000D01*
X137678600Y-104897000D02*
X139583600Y-104897000D01*
X139583600Y-104897000D02*
X139583600Y-109977000D01*
X139583600Y-105847000D02*
X145583600Y-105847000D01*
X139583600Y-106487000D02*
X145583600Y-106487000D01*
X139583600Y-108387000D02*
X145583600Y-108387000D01*
X139583600Y-109027000D02*
X145583600Y-109027000D01*
X139583600Y-109977000D02*
X137043600Y-109977000D01*
X145583600Y-105847000D02*
X145583600Y-106487000D01*
X145583600Y-108387000D02*
X145583600Y-109027000D01*
%TO.C,R4*%
X107864400Y-114814800D02*
X109864400Y-114814800D01*
X107864400Y-116064800D02*
X107864400Y-114814800D01*
X109864400Y-114814800D02*
X109864400Y-116064800D01*
X109864400Y-116064800D02*
X107864400Y-116064800D01*
%TO.C,D2*%
X108534400Y-103674900D02*
X108534400Y-101074900D01*
X112045840Y-103675380D02*
X112124580Y-103675380D01*
X112048380Y-101074420D02*
X112045840Y-103675380D01*
X112124580Y-101074420D02*
X112048380Y-101074420D01*
X112124580Y-103675380D02*
X112124580Y-101074420D01*
X112834400Y-101074900D02*
X108534400Y-101074900D01*
X112834400Y-103674900D02*
X108534400Y-103674900D01*
X112834400Y-103674900D02*
X112834400Y-101074900D01*
%TO.C,C3*%
X119954800Y-114589400D02*
X121954800Y-114589400D01*
X119954800Y-115839400D02*
X119954800Y-114589400D01*
X121954800Y-114589400D02*
X121954800Y-115839400D01*
X121954800Y-115839400D02*
X119954800Y-115839400D01*
%TO.C,R2*%
X117262400Y-111897000D02*
X119262400Y-111897000D01*
X117262400Y-113147000D02*
X117262400Y-111897000D01*
X119262400Y-111897000D02*
X119262400Y-113147000D01*
X119262400Y-113147000D02*
X117262400Y-113147000D01*
D17*
%TO.C,L1*%
X124714000Y-102069900D02*
X124714000Y-109562900D01*
X124714000Y-109562900D02*
X131572000Y-109562900D01*
X131572000Y-102069900D02*
X124714000Y-102069900D01*
X131572000Y-109562900D02*
X131572000Y-102069900D01*
X128219200Y-102323900D02*
G75*
G02*
X128066800Y-102323900I-76200J0D01*
G01*
X128066800Y-102323900D02*
G75*
G02*
X128219200Y-102323900I76200J0D01*
G01*
D16*
%TO.C,J4*%
X91474600Y-103525200D02*
X91474600Y-102885200D01*
X91474600Y-106065200D02*
X91474600Y-105425200D01*
X97474600Y-101935200D02*
X100014600Y-101935200D01*
X97474600Y-102885200D02*
X91474600Y-102885200D01*
X97474600Y-103525200D02*
X91474600Y-103525200D01*
X97474600Y-105425200D02*
X91474600Y-105425200D01*
X97474600Y-106065200D02*
X91474600Y-106065200D01*
X97474600Y-107015200D02*
X97474600Y-101935200D01*
X99379600Y-107015200D02*
X97474600Y-107015200D01*
X100014600Y-101935200D02*
X100014600Y-106380200D01*
X100014600Y-106380200D02*
X99379600Y-107015200D01*
X101834600Y-102885200D02*
X100014600Y-102885200D01*
X101834600Y-103525200D02*
X100014600Y-103525200D01*
X101834600Y-103525200D02*
X101834600Y-102885200D01*
X101834600Y-105425200D02*
X100014600Y-105425200D01*
X101834600Y-106065200D02*
X100014600Y-106065200D01*
X101834600Y-106065200D02*
X101834600Y-105425200D01*
%TO.C,J3*%
X104626500Y-105662700D02*
X105626500Y-104662700D01*
X104626500Y-109382700D02*
X104626500Y-105662700D01*
X105626500Y-104662700D02*
X114406500Y-104662700D01*
X108839833Y-106387700D02*
X108839833Y-107657700D01*
X114406500Y-104662700D02*
X114406500Y-109382700D01*
X114406500Y-109382700D02*
X104626500Y-109382700D01*
X107486500Y-106387700D02*
X108839833Y-106387700D01*
X108839833Y-107657700D01*
X107486500Y-107657700D01*
X107486500Y-106387700D01*
G36*
X107486500Y-106387700D02*
G01*
X108839833Y-106387700D01*
X108839833Y-107657700D01*
X107486500Y-107657700D01*
X107486500Y-106387700D01*
G37*
X107486500Y-106387700D02*
X111546500Y-106387700D01*
X111546500Y-107657700D01*
X107486500Y-107657700D01*
X107486500Y-106387700D01*
%TO.C,R1*%
X121961400Y-111871600D02*
X123961400Y-111871600D01*
X121961400Y-113121600D02*
X121961400Y-111871600D01*
X123961400Y-111871600D02*
X123961400Y-113121600D01*
X123961400Y-113121600D02*
X121961400Y-113121600D01*
%TO.C,C1*%
X125644400Y-114487800D02*
X127644400Y-114487800D01*
X125644400Y-115737800D02*
X125644400Y-114487800D01*
X127644400Y-114487800D02*
X127644400Y-115737800D01*
X127644400Y-115737800D02*
X125644400Y-115737800D01*
%TO.C,C2*%
X113233400Y-114465200D02*
X116433400Y-114465200D01*
X113233400Y-116065200D02*
X113233400Y-114465200D01*
X116433400Y-114465200D02*
X116433400Y-116065200D01*
X116433400Y-116065200D02*
X113233400Y-116065200D01*
%TO.C,Q1*%
X111313200Y-110824100D02*
X111638200Y-110499100D01*
X111313200Y-113399100D02*
X111313200Y-110824100D01*
X111638200Y-110499100D02*
X112613200Y-110499100D01*
X112613200Y-110499100D02*
X112613200Y-113399100D01*
X112613200Y-113399100D02*
X111313200Y-113399100D01*
%TD*%
M02*
