%TF.GenerationSoftware,KiCad,Pcbnew,9.0.1*%
%TF.CreationDate,2025-08-14T16:00:01+05:30*%
%TF.ProjectId,TinySolarSupply,54696e79-536f-46c6-9172-537570706c79,rev?*%
%TF.SameCoordinates,Original*%
%TF.FileFunction,Copper,L1,Top*%
%TF.FilePolarity,Positive*%
%FSLAX46Y46*%
G04 Gerber Fmt 4.6, Leading zero omitted, Abs format (unit mm)*
G04 Created by KiCad (PCBNEW 9.0.1) date 2025-08-14 16:00:01*
%MOMM*%
%LPD*%
G01*
G04 APERTURE LIST*
G04 Aperture macros list*
%AMRoundRect*
0 Rectangle with rounded corners*
0 $1 Rounding radius*
0 $2 $3 $4 $5 $6 $7 $8 $9 X,Y pos of 4 corners*
0 Add a 4 corners polygon primitive as box body*
4,1,4,$2,$3,$4,$5,$6,$7,$8,$9,$2,$3,0*
0 Add four circle primitives for the rounded corners*
1,1,$1+$1,$2,$3*
1,1,$1+$1,$4,$5*
1,1,$1+$1,$6,$7*
1,1,$1+$1,$8,$9*
0 Add four rect primitives between the rounded corners*
20,1,$1+$1,$2,$3,$4,$5,0*
20,1,$1+$1,$4,$5,$6,$7,0*
20,1,$1+$1,$6,$7,$8,$9,0*
20,1,$1+$1,$8,$9,$2,$3,0*%
G04 Aperture macros list end*
%TA.AperFunction,SMDPad,CuDef*%
%ADD10RoundRect,0.250000X-0.450000X0.262500X-0.450000X-0.262500X0.450000X-0.262500X0.450000X0.262500X0*%
%TD*%
%TA.AperFunction,SMDPad,CuDef*%
%ADD11R,2.500000X1.700000*%
%TD*%
%TA.AperFunction,ComponentPad*%
%ADD12R,1.700000X1.700000*%
%TD*%
%TA.AperFunction,ComponentPad*%
%ADD13C,1.700000*%
%TD*%
%TA.AperFunction,SMDPad,CuDef*%
%ADD14R,1.384300X0.558800*%
%TD*%
%TA.AperFunction,SMDPad,CuDef*%
%ADD15RoundRect,0.250000X-0.262500X-0.450000X0.262500X-0.450000X0.262500X0.450000X-0.262500X0.450000X0*%
%TD*%
%TA.AperFunction,SMDPad,CuDef*%
%ADD16RoundRect,0.250000X-0.250000X-0.475000X0.250000X-0.475000X0.250000X0.475000X-0.250000X0.475000X0*%
%TD*%
%TA.AperFunction,SMDPad,CuDef*%
%ADD17R,3.302000X2.667000*%
%TD*%
%TA.AperFunction,ComponentPad*%
%ADD18RoundRect,0.250000X-0.550000X-0.550000X0.550000X-0.550000X0.550000X0.550000X-0.550000X0.550000X0*%
%TD*%
%TA.AperFunction,ComponentPad*%
%ADD19C,1.600000*%
%TD*%
%TA.AperFunction,SMDPad,CuDef*%
%ADD20RoundRect,0.250000X0.325000X0.650000X-0.325000X0.650000X-0.325000X-0.650000X0.325000X-0.650000X0*%
%TD*%
%TA.AperFunction,SMDPad,CuDef*%
%ADD21RoundRect,0.150000X-0.587500X-0.150000X0.587500X-0.150000X0.587500X0.150000X-0.587500X0.150000X0*%
%TD*%
%TA.AperFunction,ViaPad*%
%ADD22C,0.600000*%
%TD*%
%TA.AperFunction,ViaPad*%
%ADD23C,0.900000*%
%TD*%
%TA.AperFunction,Conductor*%
%ADD24C,0.200000*%
%TD*%
%TA.AperFunction,Conductor*%
%ADD25C,0.350000*%
%TD*%
G04 APERTURE END LIST*
D10*
%TO.P,R3,1*%
%TO.N,Net-(J3-Pin_1)*%
X107975400Y-111076100D03*
%TO.P,R3,2*%
%TO.N,Net-(Q1-D)*%
X107975400Y-112901100D03*
%TD*%
D11*
%TO.P,D1,A*%
%TO.N,Net-(U1-SW)*%
X116414800Y-102374900D03*
%TO.P,D1,K*%
%TO.N,/OUT_P*%
X120414800Y-102374900D03*
%TD*%
D12*
%TO.P,J2,1,Pin_1*%
%TO.N,/BAT_P*%
X101489200Y-112704800D03*
D13*
%TO.P,J2,2,Pin_2*%
%TO.N,GNDD*%
X101489200Y-110164800D03*
%TD*%
D14*
%TO.P,U1,1,SW*%
%TO.N,Net-(U1-SW)*%
X117100350Y-106898399D03*
%TO.P,U1,2,GND*%
%TO.N,GNDD*%
X117100350Y-107848400D03*
%TO.P,U1,3,FB*%
%TO.N,Net-(U1-FB)*%
X117100350Y-108798401D03*
%TO.P,U1,4,SHDN*%
%TO.N,Net-(Q1-D)*%
X120034050Y-108798401D03*
%TO.P,U1,5,VIN*%
%TO.N,Net-(J3-Pin_1)*%
X120034050Y-106898399D03*
%TD*%
D12*
%TO.P,J1,1,Pin_1*%
%TO.N,GNDD*%
X135543600Y-106167000D03*
D13*
%TO.P,J1,2,Pin_2*%
%TO.N,/OUT_P*%
X135543600Y-108707000D03*
%TD*%
D15*
%TO.P,R4,1*%
%TO.N,/SOLAR_P*%
X107951900Y-115439800D03*
%TO.P,R4,2*%
%TO.N,GNDD*%
X109776900Y-115439800D03*
%TD*%
D11*
%TO.P,D2,A*%
%TO.N,/SOLAR_P*%
X108684400Y-102374900D03*
%TO.P,D2,K*%
%TO.N,/BAT_P*%
X112684400Y-102374900D03*
%TD*%
D16*
%TO.P,C3,1*%
%TO.N,/OUT_P*%
X120004800Y-115214400D03*
%TO.P,C3,2*%
%TO.N,Net-(U1-FB)*%
X121904800Y-115214400D03*
%TD*%
D15*
%TO.P,R2,1*%
%TO.N,Net-(U1-FB)*%
X117349900Y-112522000D03*
%TO.P,R2,2*%
%TO.N,GNDD*%
X119174900Y-112522000D03*
%TD*%
D17*
%TO.P,L1,1,1*%
%TO.N,Net-(U1-SW)*%
X128143000Y-103251000D03*
%TO.P,L1,2,2*%
%TO.N,Net-(J3-Pin_1)*%
X128143000Y-108381800D03*
%TD*%
D12*
%TO.P,J4,1,Pin_1*%
%TO.N,/SOLAR_P*%
X101514600Y-105745200D03*
D13*
%TO.P,J4,2,Pin_2*%
%TO.N,GNDD*%
X101514600Y-103205200D03*
%TD*%
D18*
%TO.P,J3,1,Pin_1*%
%TO.N,Net-(J3-Pin_1)*%
X105706500Y-107022700D03*
D19*
%TO.P,J3,2,Pin_2*%
%TO.N,/BAT_P*%
X113326500Y-107022700D03*
%TD*%
D15*
%TO.P,R1,1*%
%TO.N,/OUT_P*%
X122048900Y-112496600D03*
%TO.P,R1,2*%
%TO.N,Net-(U1-FB)*%
X123873900Y-112496600D03*
%TD*%
D16*
%TO.P,C1,1*%
%TO.N,Net-(J3-Pin_1)*%
X125694400Y-115112800D03*
%TO.P,C1,2*%
%TO.N,GNDD*%
X127594400Y-115112800D03*
%TD*%
D20*
%TO.P,C2,1*%
%TO.N,/OUT_P*%
X116308400Y-115265200D03*
%TO.P,C2,2*%
%TO.N,GNDD*%
X113358400Y-115265200D03*
%TD*%
D21*
%TO.P,Q1,1,G*%
%TO.N,/SOLAR_P*%
X111025700Y-110999100D03*
%TO.P,Q1,2,S*%
%TO.N,GNDD*%
X111025700Y-112899100D03*
%TO.P,Q1,3,D*%
%TO.N,Net-(Q1-D)*%
X112900700Y-111949100D03*
%TD*%
D22*
%TO.N,Net-(J3-Pin_1)*%
X107772200Y-109967400D03*
%TO.N,GNDD*%
X125069600Y-111963200D03*
X111302800Y-115900200D03*
X127533400Y-113233200D03*
X120345200Y-111531400D03*
X112090200Y-116014600D03*
X111455200Y-113919000D03*
X115366800Y-107010200D03*
D23*
%TO.N,/OUT_P*%
X122732800Y-101092000D03*
X122123200Y-110896400D03*
X128676400Y-111887000D03*
D22*
%TO.N,Net-(U1-FB)*%
X115468400Y-108788200D03*
X123444000Y-113690400D03*
X115976400Y-112725200D03*
D23*
%TO.N,/BAT_P*%
X104165400Y-111404400D03*
%TO.N,/SOLAR_P*%
X102891200Y-104368600D03*
X105638600Y-114046000D03*
X109499400Y-111074200D03*
%TD*%
D24*
%TO.N,Net-(J3-Pin_1)*%
X118745000Y-108779300D02*
X119040900Y-108483400D01*
X118745000Y-108788200D02*
X118745000Y-108779300D01*
X120034050Y-106898399D02*
X122748751Y-109613100D01*
X119040900Y-108483400D02*
X119040900Y-107120700D01*
X107772200Y-110872900D02*
X107975400Y-111076100D01*
X107772200Y-109967400D02*
X107772200Y-110872900D01*
X122748751Y-109613100D02*
X126911700Y-109613100D01*
X119263201Y-106898399D02*
X120034050Y-106898399D01*
X119040900Y-107120700D02*
X119263201Y-106898399D01*
X117602000Y-109931200D02*
X118745000Y-108788200D01*
X126911700Y-109613100D02*
X128143000Y-108381800D01*
X109120300Y-109931200D02*
X117602000Y-109931200D01*
X125694400Y-110830400D02*
X128143000Y-108381800D01*
X125694400Y-115112800D02*
X125694400Y-110830400D01*
X107975400Y-111076100D02*
X109120300Y-109931200D01*
%TO.N,GNDD*%
X120345200Y-111099600D02*
X121412000Y-110032800D01*
X112090200Y-116014600D02*
X112609000Y-116014600D01*
X115366800Y-107010200D02*
X116128800Y-107772200D01*
X117024150Y-107772200D02*
X117100350Y-107848400D01*
X120345200Y-111531400D02*
X120381000Y-111495600D01*
X112609000Y-116014600D02*
X113358400Y-115265200D01*
X110237300Y-115900200D02*
X109776900Y-115439800D01*
X127533400Y-115051800D02*
X127594400Y-115112800D01*
X111302800Y-115900200D02*
X110237300Y-115900200D01*
X111455200Y-113919000D02*
X111358200Y-113919000D01*
X120165500Y-111531400D02*
X119174900Y-112522000D01*
X120345200Y-111531400D02*
X120345200Y-111099600D01*
X120345200Y-111531400D02*
X120165500Y-111531400D01*
X111358200Y-113919000D02*
X111025700Y-113586500D01*
X121412000Y-110032800D02*
X123139200Y-110032800D01*
X111025700Y-113586500D02*
X111025700Y-112899100D01*
X116128800Y-107772200D02*
X117024150Y-107772200D01*
X123139200Y-110032800D02*
X125069600Y-111963200D01*
X127533400Y-113233200D02*
X127533400Y-115051800D01*
D25*
%TO.N,/OUT_P*%
X122048900Y-113170300D02*
X122048900Y-112496600D01*
X122123200Y-112422300D02*
X122048900Y-112496600D01*
X132363600Y-111887000D02*
X128676400Y-111887000D01*
X121449900Y-102374900D02*
X122732800Y-101092000D01*
X120414800Y-102374900D02*
X121449900Y-102374900D01*
X119954000Y-115265200D02*
X120004800Y-115214400D01*
X120004800Y-115214400D02*
X122048900Y-113170300D01*
X116308400Y-115265200D02*
X119954000Y-115265200D01*
X135543600Y-108707000D02*
X132363600Y-111887000D01*
X122123200Y-110896400D02*
X122123200Y-112422300D01*
D24*
%TO.N,Net-(U1-FB)*%
X115976400Y-112725200D02*
X117146700Y-112725200D01*
X123444000Y-112926500D02*
X123873900Y-112496600D01*
X123444000Y-113690400D02*
X123444000Y-112926500D01*
X117100350Y-108798401D02*
X115478601Y-108798401D01*
X115478601Y-108798401D02*
X115468400Y-108788200D01*
X123444000Y-113690400D02*
X123139200Y-113995200D01*
X123139200Y-113995200D02*
X123124000Y-113995200D01*
X117146700Y-112725200D02*
X117349900Y-112522000D01*
X123124000Y-113995200D02*
X121904800Y-115214400D01*
%TO.N,Net-(U1-SW)*%
X118008400Y-105283000D02*
X120421400Y-105283000D01*
X124307600Y-101396800D02*
X126288800Y-101396800D01*
X120421400Y-105283000D02*
X124307600Y-101396800D01*
X117100350Y-106191050D02*
X118008400Y-105283000D01*
X126288800Y-101396800D02*
X128143000Y-103251000D01*
X116414800Y-102374900D02*
X116414800Y-106212849D01*
X116414800Y-106212849D02*
X117100350Y-106898399D01*
X117100350Y-106898399D02*
X117100350Y-106191050D01*
D25*
%TO.N,/BAT_P*%
X111612200Y-105308400D02*
X113326500Y-107022700D01*
X104165400Y-111404400D02*
X103708200Y-110947200D01*
X103962200Y-105308400D02*
X111612200Y-105308400D01*
X112684400Y-102374900D02*
X113233200Y-102923700D01*
X113233200Y-106929400D02*
X113326500Y-107022700D01*
X103708200Y-105562400D02*
X103962200Y-105308400D01*
X113233200Y-102923700D02*
X113233200Y-106929400D01*
X103708200Y-110947200D02*
X103708200Y-105562400D01*
%TO.N,/SOLAR_P*%
X104884900Y-102374900D02*
X108684400Y-102374900D01*
X109574500Y-110999100D02*
X111025700Y-110999100D01*
X107951900Y-115439800D02*
X107032400Y-115439800D01*
X102891200Y-104368600D02*
X104884900Y-102374900D01*
X107032400Y-115439800D02*
X105638600Y-114046000D01*
X109499400Y-111074200D02*
X109574500Y-110999100D01*
D24*
%TO.N,Net-(Q1-D)*%
X119456200Y-110591600D02*
X120034050Y-110013750D01*
X120034050Y-110013750D02*
X120034050Y-108798401D01*
X108927400Y-111949100D02*
X112900700Y-111949100D01*
X107975400Y-112901100D02*
X108927400Y-111949100D01*
X114258200Y-110591600D02*
X119456200Y-110591600D01*
X112900700Y-111949100D02*
X114258200Y-110591600D01*
%TD*%
M02*
