%TF.GenerationSoftware,KiCad,Pcbnew,9.0.1*%
%TF.CreationDate,2025-08-14T16:00:01+05:30*%
%TF.ProjectId,TinySolarSupply,54696e79-536f-46c6-9172-537570706c79,rev?*%
%TF.SameCoordinates,Original*%
%TF.FileFunction,Legend,Top*%
%TF.FilePolarity,Positive*%
%FSLAX46Y46*%
G04 Gerber Fmt 4.6, Leading zero omitted, Abs format (unit mm)*
G04 Created by KiCad (PCBNEW 9.0.1) date 2025-08-14 16:00:01*
%MOMM*%
%LPD*%
G01*
G04 APERTURE LIST*
%ADD10C,0.150000*%
%ADD11C,0.120000*%
%ADD12C,0.100000*%
%ADD13C,0.152400*%
G04 APERTURE END LIST*
D10*
X115138248Y-100123666D02*
X115900153Y-100123666D01*
X115519200Y-100504619D02*
X115519200Y-99742714D01*
X107137248Y-100022066D02*
X107899153Y-100022066D01*
X107518200Y-100403019D02*
X107518200Y-99641114D01*
X106645619Y-112098566D02*
X106169428Y-112431899D01*
X106645619Y-112669994D02*
X105645619Y-112669994D01*
X105645619Y-112669994D02*
X105645619Y-112289042D01*
X105645619Y-112289042D02*
X105693238Y-112193804D01*
X105693238Y-112193804D02*
X105740857Y-112146185D01*
X105740857Y-112146185D02*
X105836095Y-112098566D01*
X105836095Y-112098566D02*
X105978952Y-112098566D01*
X105978952Y-112098566D02*
X106074190Y-112146185D01*
X106074190Y-112146185D02*
X106121809Y-112193804D01*
X106121809Y-112193804D02*
X106169428Y-112289042D01*
X106169428Y-112289042D02*
X106169428Y-112669994D01*
X105645619Y-111765232D02*
X105645619Y-111146185D01*
X105645619Y-111146185D02*
X106026571Y-111479518D01*
X106026571Y-111479518D02*
X106026571Y-111336661D01*
X106026571Y-111336661D02*
X106074190Y-111241423D01*
X106074190Y-111241423D02*
X106121809Y-111193804D01*
X106121809Y-111193804D02*
X106217047Y-111146185D01*
X106217047Y-111146185D02*
X106455142Y-111146185D01*
X106455142Y-111146185D02*
X106550380Y-111193804D01*
X106550380Y-111193804D02*
X106598000Y-111241423D01*
X106598000Y-111241423D02*
X106645619Y-111336661D01*
X106645619Y-111336661D02*
X106645619Y-111622375D01*
X106645619Y-111622375D02*
X106598000Y-111717613D01*
X106598000Y-111717613D02*
X106550380Y-111765232D01*
X117841805Y-100556219D02*
X117841805Y-99556219D01*
X117841805Y-99556219D02*
X118079900Y-99556219D01*
X118079900Y-99556219D02*
X118222757Y-99603838D01*
X118222757Y-99603838D02*
X118317995Y-99699076D01*
X118317995Y-99699076D02*
X118365614Y-99794314D01*
X118365614Y-99794314D02*
X118413233Y-99984790D01*
X118413233Y-99984790D02*
X118413233Y-100127647D01*
X118413233Y-100127647D02*
X118365614Y-100318123D01*
X118365614Y-100318123D02*
X118317995Y-100413361D01*
X118317995Y-100413361D02*
X118222757Y-100508600D01*
X118222757Y-100508600D02*
X118079900Y-100556219D01*
X118079900Y-100556219D02*
X117841805Y-100556219D01*
X119365614Y-100556219D02*
X118794186Y-100556219D01*
X119079900Y-100556219D02*
X119079900Y-99556219D01*
X119079900Y-99556219D02*
X118984662Y-99699076D01*
X118984662Y-99699076D02*
X118889424Y-99794314D01*
X118889424Y-99794314D02*
X118794186Y-99841933D01*
X101165066Y-114847019D02*
X101165066Y-115561304D01*
X101165066Y-115561304D02*
X101117447Y-115704161D01*
X101117447Y-115704161D02*
X101022209Y-115799400D01*
X101022209Y-115799400D02*
X100879352Y-115847019D01*
X100879352Y-115847019D02*
X100784114Y-115847019D01*
X101593638Y-114942257D02*
X101641257Y-114894638D01*
X101641257Y-114894638D02*
X101736495Y-114847019D01*
X101736495Y-114847019D02*
X101974590Y-114847019D01*
X101974590Y-114847019D02*
X102069828Y-114894638D01*
X102069828Y-114894638D02*
X102117447Y-114942257D01*
X102117447Y-114942257D02*
X102165066Y-115037495D01*
X102165066Y-115037495D02*
X102165066Y-115132733D01*
X102165066Y-115132733D02*
X102117447Y-115275590D01*
X102117447Y-115275590D02*
X101546019Y-115847019D01*
X101546019Y-115847019D02*
X102165066Y-115847019D01*
X121285095Y-104864819D02*
X121285095Y-105674342D01*
X121285095Y-105674342D02*
X121332714Y-105769580D01*
X121332714Y-105769580D02*
X121380333Y-105817200D01*
X121380333Y-105817200D02*
X121475571Y-105864819D01*
X121475571Y-105864819D02*
X121666047Y-105864819D01*
X121666047Y-105864819D02*
X121761285Y-105817200D01*
X121761285Y-105817200D02*
X121808904Y-105769580D01*
X121808904Y-105769580D02*
X121856523Y-105674342D01*
X121856523Y-105674342D02*
X121856523Y-104864819D01*
X122856523Y-105864819D02*
X122285095Y-105864819D01*
X122570809Y-105864819D02*
X122570809Y-104864819D01*
X122570809Y-104864819D02*
X122475571Y-105007676D01*
X122475571Y-105007676D02*
X122380333Y-105102914D01*
X122380333Y-105102914D02*
X122285095Y-105150533D01*
X138401466Y-102947119D02*
X138401466Y-103661404D01*
X138401466Y-103661404D02*
X138353847Y-103804261D01*
X138353847Y-103804261D02*
X138258609Y-103899500D01*
X138258609Y-103899500D02*
X138115752Y-103947119D01*
X138115752Y-103947119D02*
X138020514Y-103947119D01*
X139401466Y-103947119D02*
X138830038Y-103947119D01*
X139115752Y-103947119D02*
X139115752Y-102947119D01*
X139115752Y-102947119D02*
X139020514Y-103089976D01*
X139020514Y-103089976D02*
X138925276Y-103185214D01*
X138925276Y-103185214D02*
X138830038Y-103232833D01*
X106106933Y-115923219D02*
X105773600Y-115447028D01*
X105535505Y-115923219D02*
X105535505Y-114923219D01*
X105535505Y-114923219D02*
X105916457Y-114923219D01*
X105916457Y-114923219D02*
X106011695Y-114970838D01*
X106011695Y-114970838D02*
X106059314Y-115018457D01*
X106059314Y-115018457D02*
X106106933Y-115113695D01*
X106106933Y-115113695D02*
X106106933Y-115256552D01*
X106106933Y-115256552D02*
X106059314Y-115351790D01*
X106059314Y-115351790D02*
X106011695Y-115399409D01*
X106011695Y-115399409D02*
X105916457Y-115447028D01*
X105916457Y-115447028D02*
X105535505Y-115447028D01*
X106964076Y-115256552D02*
X106964076Y-115923219D01*
X106725981Y-114875600D02*
X106487886Y-115589885D01*
X106487886Y-115589885D02*
X107106933Y-115589885D01*
X109946305Y-100632419D02*
X109946305Y-99632419D01*
X109946305Y-99632419D02*
X110184400Y-99632419D01*
X110184400Y-99632419D02*
X110327257Y-99680038D01*
X110327257Y-99680038D02*
X110422495Y-99775276D01*
X110422495Y-99775276D02*
X110470114Y-99870514D01*
X110470114Y-99870514D02*
X110517733Y-100060990D01*
X110517733Y-100060990D02*
X110517733Y-100203847D01*
X110517733Y-100203847D02*
X110470114Y-100394323D01*
X110470114Y-100394323D02*
X110422495Y-100489561D01*
X110422495Y-100489561D02*
X110327257Y-100584800D01*
X110327257Y-100584800D02*
X110184400Y-100632419D01*
X110184400Y-100632419D02*
X109946305Y-100632419D01*
X110898686Y-99727657D02*
X110946305Y-99680038D01*
X110946305Y-99680038D02*
X111041543Y-99632419D01*
X111041543Y-99632419D02*
X111279638Y-99632419D01*
X111279638Y-99632419D02*
X111374876Y-99680038D01*
X111374876Y-99680038D02*
X111422495Y-99727657D01*
X111422495Y-99727657D02*
X111470114Y-99822895D01*
X111470114Y-99822895D02*
X111470114Y-99918133D01*
X111470114Y-99918133D02*
X111422495Y-100060990D01*
X111422495Y-100060990D02*
X110851067Y-100632419D01*
X110851067Y-100632419D02*
X111470114Y-100632419D01*
X118044933Y-115573980D02*
X117997314Y-115621600D01*
X117997314Y-115621600D02*
X117854457Y-115669219D01*
X117854457Y-115669219D02*
X117759219Y-115669219D01*
X117759219Y-115669219D02*
X117616362Y-115621600D01*
X117616362Y-115621600D02*
X117521124Y-115526361D01*
X117521124Y-115526361D02*
X117473505Y-115431123D01*
X117473505Y-115431123D02*
X117425886Y-115240647D01*
X117425886Y-115240647D02*
X117425886Y-115097790D01*
X117425886Y-115097790D02*
X117473505Y-114907314D01*
X117473505Y-114907314D02*
X117521124Y-114812076D01*
X117521124Y-114812076D02*
X117616362Y-114716838D01*
X117616362Y-114716838D02*
X117759219Y-114669219D01*
X117759219Y-114669219D02*
X117854457Y-114669219D01*
X117854457Y-114669219D02*
X117997314Y-114716838D01*
X117997314Y-114716838D02*
X118044933Y-114764457D01*
X118378267Y-114669219D02*
X118997314Y-114669219D01*
X118997314Y-114669219D02*
X118663981Y-115050171D01*
X118663981Y-115050171D02*
X118806838Y-115050171D01*
X118806838Y-115050171D02*
X118902076Y-115097790D01*
X118902076Y-115097790D02*
X118949695Y-115145409D01*
X118949695Y-115145409D02*
X118997314Y-115240647D01*
X118997314Y-115240647D02*
X118997314Y-115478742D01*
X118997314Y-115478742D02*
X118949695Y-115573980D01*
X118949695Y-115573980D02*
X118902076Y-115621600D01*
X118902076Y-115621600D02*
X118806838Y-115669219D01*
X118806838Y-115669219D02*
X118521124Y-115669219D01*
X118521124Y-115669219D02*
X118425886Y-115621600D01*
X118425886Y-115621600D02*
X118378267Y-115573980D01*
X119086333Y-111275019D02*
X118753000Y-110798828D01*
X118514905Y-111275019D02*
X118514905Y-110275019D01*
X118514905Y-110275019D02*
X118895857Y-110275019D01*
X118895857Y-110275019D02*
X118991095Y-110322638D01*
X118991095Y-110322638D02*
X119038714Y-110370257D01*
X119038714Y-110370257D02*
X119086333Y-110465495D01*
X119086333Y-110465495D02*
X119086333Y-110608352D01*
X119086333Y-110608352D02*
X119038714Y-110703590D01*
X119038714Y-110703590D02*
X118991095Y-110751209D01*
X118991095Y-110751209D02*
X118895857Y-110798828D01*
X118895857Y-110798828D02*
X118514905Y-110798828D01*
X119467286Y-110370257D02*
X119514905Y-110322638D01*
X119514905Y-110322638D02*
X119610143Y-110275019D01*
X119610143Y-110275019D02*
X119848238Y-110275019D01*
X119848238Y-110275019D02*
X119943476Y-110322638D01*
X119943476Y-110322638D02*
X119991095Y-110370257D01*
X119991095Y-110370257D02*
X120038714Y-110465495D01*
X120038714Y-110465495D02*
X120038714Y-110560733D01*
X120038714Y-110560733D02*
X119991095Y-110703590D01*
X119991095Y-110703590D02*
X119419667Y-111275019D01*
X119419667Y-111275019D02*
X120038714Y-111275019D01*
X129195533Y-101242019D02*
X128719343Y-101242019D01*
X128719343Y-101242019D02*
X128719343Y-100242019D01*
X130052676Y-101242019D02*
X129481248Y-101242019D01*
X129766962Y-101242019D02*
X129766962Y-100242019D01*
X129766962Y-100242019D02*
X129671724Y-100384876D01*
X129671724Y-100384876D02*
X129576486Y-100480114D01*
X129576486Y-100480114D02*
X129481248Y-100527733D01*
X101673066Y-99886419D02*
X101673066Y-100600704D01*
X101673066Y-100600704D02*
X101625447Y-100743561D01*
X101625447Y-100743561D02*
X101530209Y-100838800D01*
X101530209Y-100838800D02*
X101387352Y-100886419D01*
X101387352Y-100886419D02*
X101292114Y-100886419D01*
X102577828Y-100219752D02*
X102577828Y-100886419D01*
X102339733Y-99838800D02*
X102101638Y-100553085D01*
X102101638Y-100553085D02*
X102720685Y-100553085D01*
X105376166Y-102807419D02*
X105376166Y-103521704D01*
X105376166Y-103521704D02*
X105328547Y-103664561D01*
X105328547Y-103664561D02*
X105233309Y-103759800D01*
X105233309Y-103759800D02*
X105090452Y-103807419D01*
X105090452Y-103807419D02*
X104995214Y-103807419D01*
X105757119Y-102807419D02*
X106376166Y-102807419D01*
X106376166Y-102807419D02*
X106042833Y-103188371D01*
X106042833Y-103188371D02*
X106185690Y-103188371D01*
X106185690Y-103188371D02*
X106280928Y-103235990D01*
X106280928Y-103235990D02*
X106328547Y-103283609D01*
X106328547Y-103283609D02*
X106376166Y-103378847D01*
X106376166Y-103378847D02*
X106376166Y-103616942D01*
X106376166Y-103616942D02*
X106328547Y-103712180D01*
X106328547Y-103712180D02*
X106280928Y-103759800D01*
X106280928Y-103759800D02*
X106185690Y-103807419D01*
X106185690Y-103807419D02*
X105899976Y-103807419D01*
X105899976Y-103807419D02*
X105804738Y-103759800D01*
X105804738Y-103759800D02*
X105757119Y-103712180D01*
X123759933Y-111249619D02*
X123426600Y-110773428D01*
X123188505Y-111249619D02*
X123188505Y-110249619D01*
X123188505Y-110249619D02*
X123569457Y-110249619D01*
X123569457Y-110249619D02*
X123664695Y-110297238D01*
X123664695Y-110297238D02*
X123712314Y-110344857D01*
X123712314Y-110344857D02*
X123759933Y-110440095D01*
X123759933Y-110440095D02*
X123759933Y-110582952D01*
X123759933Y-110582952D02*
X123712314Y-110678190D01*
X123712314Y-110678190D02*
X123664695Y-110725809D01*
X123664695Y-110725809D02*
X123569457Y-110773428D01*
X123569457Y-110773428D02*
X123188505Y-110773428D01*
X124712314Y-111249619D02*
X124140886Y-111249619D01*
X124426600Y-111249619D02*
X124426600Y-110249619D01*
X124426600Y-110249619D02*
X124331362Y-110392476D01*
X124331362Y-110392476D02*
X124236124Y-110487714D01*
X124236124Y-110487714D02*
X124140886Y-110535333D01*
X123683733Y-115599380D02*
X123636114Y-115647000D01*
X123636114Y-115647000D02*
X123493257Y-115694619D01*
X123493257Y-115694619D02*
X123398019Y-115694619D01*
X123398019Y-115694619D02*
X123255162Y-115647000D01*
X123255162Y-115647000D02*
X123159924Y-115551761D01*
X123159924Y-115551761D02*
X123112305Y-115456523D01*
X123112305Y-115456523D02*
X123064686Y-115266047D01*
X123064686Y-115266047D02*
X123064686Y-115123190D01*
X123064686Y-115123190D02*
X123112305Y-114932714D01*
X123112305Y-114932714D02*
X123159924Y-114837476D01*
X123159924Y-114837476D02*
X123255162Y-114742238D01*
X123255162Y-114742238D02*
X123398019Y-114694619D01*
X123398019Y-114694619D02*
X123493257Y-114694619D01*
X123493257Y-114694619D02*
X123636114Y-114742238D01*
X123636114Y-114742238D02*
X123683733Y-114789857D01*
X124636114Y-115694619D02*
X124064686Y-115694619D01*
X124350400Y-115694619D02*
X124350400Y-114694619D01*
X124350400Y-114694619D02*
X124255162Y-114837476D01*
X124255162Y-114837476D02*
X124159924Y-114932714D01*
X124159924Y-114932714D02*
X124064686Y-114980333D01*
X114692133Y-113846780D02*
X114644514Y-113894400D01*
X114644514Y-113894400D02*
X114501657Y-113942019D01*
X114501657Y-113942019D02*
X114406419Y-113942019D01*
X114406419Y-113942019D02*
X114263562Y-113894400D01*
X114263562Y-113894400D02*
X114168324Y-113799161D01*
X114168324Y-113799161D02*
X114120705Y-113703923D01*
X114120705Y-113703923D02*
X114073086Y-113513447D01*
X114073086Y-113513447D02*
X114073086Y-113370590D01*
X114073086Y-113370590D02*
X114120705Y-113180114D01*
X114120705Y-113180114D02*
X114168324Y-113084876D01*
X114168324Y-113084876D02*
X114263562Y-112989638D01*
X114263562Y-112989638D02*
X114406419Y-112942019D01*
X114406419Y-112942019D02*
X114501657Y-112942019D01*
X114501657Y-112942019D02*
X114644514Y-112989638D01*
X114644514Y-112989638D02*
X114692133Y-113037257D01*
X115073086Y-113037257D02*
X115120705Y-112989638D01*
X115120705Y-112989638D02*
X115215943Y-112942019D01*
X115215943Y-112942019D02*
X115454038Y-112942019D01*
X115454038Y-112942019D02*
X115549276Y-112989638D01*
X115549276Y-112989638D02*
X115596895Y-113037257D01*
X115596895Y-113037257D02*
X115644514Y-113132495D01*
X115644514Y-113132495D02*
X115644514Y-113227733D01*
X115644514Y-113227733D02*
X115596895Y-113370590D01*
X115596895Y-113370590D02*
X115025467Y-113942019D01*
X115025467Y-113942019D02*
X115644514Y-113942019D01*
X114915961Y-112564057D02*
X114820723Y-112516438D01*
X114820723Y-112516438D02*
X114725485Y-112421200D01*
X114725485Y-112421200D02*
X114582628Y-112278342D01*
X114582628Y-112278342D02*
X114487390Y-112230723D01*
X114487390Y-112230723D02*
X114392152Y-112230723D01*
X114439771Y-112468819D02*
X114344533Y-112421200D01*
X114344533Y-112421200D02*
X114249295Y-112325961D01*
X114249295Y-112325961D02*
X114201676Y-112135485D01*
X114201676Y-112135485D02*
X114201676Y-111802152D01*
X114201676Y-111802152D02*
X114249295Y-111611676D01*
X114249295Y-111611676D02*
X114344533Y-111516438D01*
X114344533Y-111516438D02*
X114439771Y-111468819D01*
X114439771Y-111468819D02*
X114630247Y-111468819D01*
X114630247Y-111468819D02*
X114725485Y-111516438D01*
X114725485Y-111516438D02*
X114820723Y-111611676D01*
X114820723Y-111611676D02*
X114868342Y-111802152D01*
X114868342Y-111802152D02*
X114868342Y-112135485D01*
X114868342Y-112135485D02*
X114820723Y-112325961D01*
X114820723Y-112325961D02*
X114725485Y-112421200D01*
X114725485Y-112421200D02*
X114630247Y-112468819D01*
X114630247Y-112468819D02*
X114439771Y-112468819D01*
X115820723Y-112468819D02*
X115249295Y-112468819D01*
X115535009Y-112468819D02*
X115535009Y-111468819D01*
X115535009Y-111468819D02*
X115439771Y-111611676D01*
X115439771Y-111611676D02*
X115344533Y-111706914D01*
X115344533Y-111706914D02*
X115249295Y-111754533D01*
D11*
%TO.C,R3*%
X107240400Y-111761536D02*
X107240400Y-112215664D01*
X108710400Y-111761536D02*
X108710400Y-112215664D01*
D12*
%TO.C,D1*%
X116164800Y-100974900D02*
X116164800Y-101374900D01*
X116164800Y-100974900D02*
X116564800Y-100974900D01*
X116164800Y-103774900D02*
X116164800Y-103374900D01*
X116164800Y-103774900D02*
X116564800Y-103774900D01*
X119778780Y-100972820D02*
X119854980Y-100972820D01*
X119778780Y-101432560D02*
X119778780Y-100972820D01*
X119778780Y-103309620D02*
X119778780Y-103774440D01*
X119778780Y-103774440D02*
X119854980Y-103774440D01*
X119854980Y-100972820D02*
X119854980Y-101432560D01*
X119854980Y-101432560D02*
X119778780Y-101432560D01*
X119854980Y-103309620D02*
X119778780Y-103309620D01*
X119854980Y-103774440D02*
X119854980Y-103309620D01*
X120664800Y-100974900D02*
X120264800Y-100974900D01*
X120664800Y-100974900D02*
X120664800Y-101374900D01*
X120664800Y-103774900D02*
X120264800Y-103774900D01*
X120664800Y-103774900D02*
X120664800Y-103374900D01*
D11*
%TO.C,J2*%
X97339200Y-108784800D02*
X97339200Y-114084800D01*
X97339200Y-114084800D02*
X100099200Y-114084800D01*
X100099200Y-108784800D02*
X97339200Y-108784800D01*
X100099200Y-111434800D02*
X97339200Y-111434800D01*
X100099200Y-114084800D02*
X100099200Y-108784800D01*
X100329200Y-112274800D02*
X100099200Y-112274800D01*
X100329200Y-113134800D02*
X100099200Y-113134800D01*
X100411842Y-109734800D02*
X100099200Y-109734800D01*
X100411842Y-110594800D02*
X100099200Y-110594800D01*
X102759200Y-112704800D02*
X102759200Y-113974800D01*
X102759200Y-113974800D02*
X101489200Y-113974800D01*
D13*
%TO.C,U1*%
X117665500Y-109423200D02*
X119468900Y-109423200D01*
X119468900Y-106273600D02*
X117665500Y-106273600D01*
X119468900Y-108186261D02*
X119468900Y-107510539D01*
D11*
%TO.C,J1*%
X134273600Y-104897000D02*
X135543600Y-104897000D01*
X134273600Y-106167000D02*
X134273600Y-104897000D01*
X136620958Y-108277000D02*
X136933600Y-108277000D01*
X136620958Y-109137000D02*
X136933600Y-109137000D01*
X136703600Y-105737000D02*
X136933600Y-105737000D01*
X136703600Y-106597000D02*
X136933600Y-106597000D01*
X136933600Y-104787000D02*
X136933600Y-110087000D01*
X136933600Y-107437000D02*
X139693600Y-107437000D01*
X136933600Y-110087000D02*
X139693600Y-110087000D01*
X139693600Y-104787000D02*
X136933600Y-104787000D01*
X139693600Y-110087000D02*
X139693600Y-104787000D01*
%TO.C,R4*%
X108637336Y-114704800D02*
X109091464Y-114704800D01*
X108637336Y-116174800D02*
X109091464Y-116174800D01*
D12*
%TO.C,D2*%
X108434400Y-100974900D02*
X108434400Y-101374900D01*
X108434400Y-100974900D02*
X108834400Y-100974900D01*
X108434400Y-103774900D02*
X108434400Y-103374900D01*
X108434400Y-103774900D02*
X108834400Y-103774900D01*
X112048380Y-100972820D02*
X112124580Y-100972820D01*
X112048380Y-101432560D02*
X112048380Y-100972820D01*
X112048380Y-103309620D02*
X112048380Y-103774440D01*
X112048380Y-103774440D02*
X112124580Y-103774440D01*
X112124580Y-100972820D02*
X112124580Y-101432560D01*
X112124580Y-101432560D02*
X112048380Y-101432560D01*
X112124580Y-103309620D02*
X112048380Y-103309620D01*
X112124580Y-103774440D02*
X112124580Y-103309620D01*
X112934400Y-100974900D02*
X112534400Y-100974900D01*
X112934400Y-100974900D02*
X112934400Y-101374900D01*
X112934400Y-103774900D02*
X112534400Y-103774900D01*
X112934400Y-103774900D02*
X112934400Y-103374900D01*
D11*
%TO.C,C3*%
X120693548Y-114479400D02*
X121216052Y-114479400D01*
X120693548Y-115949400D02*
X121216052Y-115949400D01*
%TO.C,R2*%
X118035336Y-111787000D02*
X118489464Y-111787000D01*
X118035336Y-113257000D02*
X118489464Y-113257000D01*
D13*
%TO.C,L1*%
X124587000Y-101942900D02*
X124587000Y-109689900D01*
X124587000Y-109689900D02*
X126159260Y-109689900D01*
X126159260Y-101942900D02*
X124587000Y-101942900D01*
X130126740Y-109689900D02*
X131699000Y-109689900D01*
X131699000Y-101942900D02*
X130126740Y-101942900D01*
X131699000Y-109689900D02*
X131699000Y-101942900D01*
X128219200Y-100799900D02*
G75*
G02*
X128066800Y-100799900I-76200J0D01*
G01*
X128066800Y-100799900D02*
G75*
G02*
X128219200Y-100799900I76200J0D01*
G01*
D11*
%TO.C,J4*%
X97364600Y-101825200D02*
X97364600Y-107125200D01*
X97364600Y-107125200D02*
X100124600Y-107125200D01*
X100124600Y-101825200D02*
X97364600Y-101825200D01*
X100124600Y-104475200D02*
X97364600Y-104475200D01*
X100124600Y-107125200D02*
X100124600Y-101825200D01*
X100354600Y-105315200D02*
X100124600Y-105315200D01*
X100354600Y-106175200D02*
X100124600Y-106175200D01*
X100437242Y-102775200D02*
X100124600Y-102775200D01*
X100437242Y-103635200D02*
X100124600Y-103635200D01*
X102784600Y-105745200D02*
X102784600Y-107015200D01*
X102784600Y-107015200D02*
X101514600Y-107015200D01*
%TO.C,J3*%
X104326500Y-104362700D02*
X104326500Y-105745700D01*
X104326500Y-104362700D02*
X105709500Y-104362700D01*
X104566500Y-104602700D02*
X104566500Y-109442700D01*
X104566500Y-104602700D02*
X114466500Y-104602700D01*
X104566500Y-109442700D02*
X114466500Y-109442700D01*
X108839833Y-106387700D02*
X108839833Y-107657700D01*
X114466500Y-104602700D02*
X114466500Y-109442700D01*
X107486500Y-106387700D02*
X108839833Y-106387700D01*
X108839833Y-107657700D01*
X107486500Y-107657700D01*
X107486500Y-106387700D01*
G36*
X107486500Y-106387700D02*
G01*
X108839833Y-106387700D01*
X108839833Y-107657700D01*
X107486500Y-107657700D01*
X107486500Y-106387700D01*
G37*
X107486500Y-106387700D02*
X111546500Y-106387700D01*
X111546500Y-107657700D01*
X107486500Y-107657700D01*
X107486500Y-106387700D01*
%TO.C,R1*%
X122734336Y-111761600D02*
X123188464Y-111761600D01*
X122734336Y-113231600D02*
X123188464Y-113231600D01*
%TO.C,C1*%
X126383148Y-114377800D02*
X126905652Y-114377800D01*
X126383148Y-115847800D02*
X126905652Y-115847800D01*
%TO.C,C2*%
X115544652Y-114355200D02*
X114122148Y-114355200D01*
X115544652Y-116175200D02*
X114122148Y-116175200D01*
%TO.C,Q1*%
X111963200Y-110389100D02*
X111313200Y-110389100D01*
X111963200Y-110389100D02*
X112613200Y-110389100D01*
X111963200Y-113509100D02*
X111313200Y-113509100D01*
X111963200Y-113509100D02*
X112613200Y-113509100D01*
X110800700Y-110439100D02*
X110560700Y-110109100D01*
X111040700Y-110109100D01*
X110800700Y-110439100D01*
G36*
X110800700Y-110439100D02*
G01*
X110560700Y-110109100D01*
X111040700Y-110109100D01*
X110800700Y-110439100D01*
G37*
%TD*%
M02*
